<?xml version="1.0" standalone="no"?>
<!DOCTYPE svg PUBLIC "-//W3C//DTD SVG 1.1//EN" "http://www.w3.org/Graphics/SVG/1.1/DTD/svg11.dtd" >
<svg>
<metadata>
Created by FontForge 20090914 at Thu Apr  3 15:35:47 2014
 By www-data
KApIqaD V0.5&#195;&#159; &#194;&#169;1999&#194;&#173;10&#194;&#173;27 Bj&#195;&#182;rn X &#195;&#150;qvist, Klingonska Akademien, Uppsala
</metadata>
<defs>
<font id="KApIqaD" horiz-adv-x="0" >
  <font-face 
    font-family="KApIqaD"
    font-weight="0"
    font-stretch="normal"
    units-per-em="1000"
    panose-1="0 0 0 0 0 0 0 0 0 0"
    ascent="800"
    descent="-200"
    x-height="799.999"
    bbox="-1.95819 -214.999 1172 837.998"
    underline-thickness="20"
    underline-position="-90"
    unicode-range="U+0001-U+00FF"
  />
<missing-glyph 
 />
    <glyph glyph-name=".notdef" 
 />
    <glyph glyph-name=".notdef" 
 />
    <glyph glyph-name="ogonek" 
 />
    <glyph glyph-name="dotaccent" 
 />
    <glyph glyph-name="breve" 
 />
    <glyph glyph-name="hungarumlaut" 
 />
    <glyph glyph-name="whitesmiley" 
 />
    <glyph glyph-name="blacksmiley" 
 />
    <glyph glyph-name="musicalnote" 
 />
    <glyph glyph-name="arrowdblup" 
 />
    <glyph glyph-name="arrowdbldown" unicode="&#x9;" 
 />
    <glyph glyph-name="arrowdblright" unicode="&#xa;" 
 />
    <glyph glyph-name="arrowdblleft" 
 />
    <glyph glyph-name="doublearrowupdown" 
 />
    <glyph glyph-name="arrowdblboth" unicode="&#xd;" 
 />
    <glyph glyph-name="arrowup" 
 />
    <glyph glyph-name="arrowdown" 
 />
    <glyph glyph-name="arrowright" 
 />
    <glyph glyph-name="arrowleft" 
 />
    <glyph glyph-name="male" 
 />
    <glyph glyph-name="female" 
 />
    <glyph glyph-name="peace" 
 />
    <glyph glyph-name="minus" 
 />
    <glyph glyph-name="thinverticalline" 
 />
    <glyph glyph-name="thinintersctinglines" 
 />
    <glyph glyph-name="lowerrightboxcorner" 
 />
    <glyph glyph-name="lowerleftboxcorner" 
 />
    <glyph glyph-name="upperleftboxcorner" 
 />
    <glyph glyph-name="upperrightboxcorner" 
 />
    <glyph glyph-name="middleboxbottom" 
 />
    <glyph glyph-name="middleboxtop" 
 />
    <glyph glyph-name="rightmiddleboxside" 
 />
    <glyph glyph-name="leftmiddleboxside" 
 />
    <glyph glyph-name="space" unicode=" " horiz-adv-x="700" 
 />
    <glyph glyph-name="exclam" unicode="!" 
 />
    <glyph glyph-name="quotedbl" unicode="&#x22;" 
 />
    <glyph glyph-name="numbersign" unicode="#" 
 />
    <glyph glyph-name="dollar" unicode="$" 
 />
    <glyph glyph-name="percent" unicode="%" 
 />
    <glyph glyph-name="ampersand" unicode="&#x26;" 
 />
    <glyph glyph-name="quoteright" unicode="'" 
 />
    <glyph glyph-name="parenleft" unicode="(" 
 />
    <glyph glyph-name="parenright" unicode=")" 
 />
    <glyph glyph-name="asterisk" unicode="*" 
 />
    <glyph glyph-name="plus" unicode="+" 
 />
    <glyph glyph-name="comma" unicode="," horiz-adv-x="699" 
d="M361 75l314 525l-25 25h-600l-25 -25l312 -525h24z" />
    <glyph glyph-name="hyphen" unicode="-" 
 />
    <glyph glyph-name="period" unicode="." horiz-adv-x="699" 
d="M337 625l-312 -525l25 -25h600l25 25l-314 525h-24z" />
    <glyph glyph-name="slash" unicode="/" 
 />
    <glyph glyph-name="zero" unicode="0" horiz-adv-x="795" 
d="M0 330c38.667 -26.667 90 -49.6641 154 -68.9971s133.333 -31 208 -35c75.333 -4.66699 148.666 1.66602 219.999 18.999c71.333 18 134 51 188 99c-2 16.667 -21.333 36.667 -58 60c-36 24 -87.667 42.667 -155 56s-147.666 13.666 -240.999 0.999023
c-94 -12.667 -199.333 -46.334 -316 -101.001v-30z" />
    <glyph glyph-name="one" unicode="1" horiz-adv-x="955" 
d="M210 680c-38 -58.667 -70.6631 -129.332 -97.9961 -211.999c-26.667 -82.667 -48.334 -166.667 -65.001 -252s-28.667 -161 -36 -227c-8 -66.667 -11.667 -113 -11 -139l22 22c49.333 116 93.666 212.333 132.999 289s72.666 137 99.999 181
c27.333 43.333 48.333 74 63 92c14 18 21.333 27 22 27c1.33301 0.666992 21.666 13.667 60.999 39l153 91c61.333 36 125.333 71.333 192 106c66.667 34 128 61 184 81l-22 22c-58.667 -10.667 -117.334 -19.667 -176.001 -27l-177 -24
c-59.333 -8.66699 -117.666 -18.334 -174.999 -29.001c-58 -10.667 -114.667 -24 -170 -40v0z" />
    <glyph glyph-name="two" unicode="2" horiz-adv-x="425" 
d="M1 350c2 -30.667 11.665 -63.999 28.998 -99.999c16.667 -36 39 -75 67 -117c28.667 -42 61.334 -86.667 98.001 -134l118 -149l22 22c-53.333 88 -95 170 -125 246s-45 149 -45 219s18.667 141 56 213c37.333 71.333 97 147.333 179 228l-22 22
c-46 -22.667 -92 -48.334 -138 -77.001c-45.333 -29.333 -87 -62.333 -125 -99c-37.333 -36.667 -66.666 -77.667 -87.999 -123c-21.333 -46 -30 -96.333 -26 -151v0z" />
    <glyph glyph-name="three" unicode="3" horiz-adv-x="675" 
d="M32 265c8 -18.667 30.666 -47.667 67.999 -87c37.333 -38.667 84.666 -82 141.999 -130s119.333 -94.333 186 -139c66.667 -44 133.334 -80.333 200.001 -109l22 22c-74 52.667 -133.333 99.667 -178 141c-45.333 41.333 -78.333 78.666 -99 111.999
c-21.333 33.333 -33 64 -35 92c-2.66699 28 1.66602 55.667 12.999 83c4.66699 12.667 12.334 24.334 23.001 35.001c10.667 11.333 26.334 23.333 47.001 36c20 12.667 46.667 27.667 80 45l125 64l-22 22c-50.667 -8.66699 -96 -17 -136 -25
c-40 -7.33301 -74.667 -13 -104 -17c-30 -4 -55.333 -4.66699 -76 -2s-36.334 10 -47.001 22c-11.333 12 -17 33 -17 63c0 29.333 4.33301 62.333 13 99c8 37.333 20 73 36 107s34.667 61.667 56 83l-22 18c-45.333 -32.667 -89.666 -67 -132.999 -103
c-44 -36 -82 -75.333 -114 -118c-31.333 -42 -51 -89 -59 -141c-7.33301 -51.333 3 -109 31 -173v0z" />
    <glyph glyph-name="four" unicode="4" horiz-adv-x="910" 
d="M285 702c1.33301 -2.66699 2 -5.33398 2 -8.00098c0.666992 -3.33301 0.666992 -6.33301 0 -9s-1.33398 -5 -2.00098 -7v-2c10.667 -15.333 23.667 -32.666 39 -51.999c14.667 -18.667 30.334 -37.334 47.001 -56.001c16.667 -19.333 33 -37.333 49 -54
c16.667 -16 32 -29 46 -39h30c-4 58 11.333 103.333 46 136c34.667 32 76 57 124 75c47.333 18 88.666 35 123.999 51c34.667 16 51 37 49 63c-51.333 0 -102 -1 -152 -3c-50.667 -2.66699 -100 -7 -148 -13c-48 -6.66699 -93.333 -16.667 -136 -30
c-43.333 -13.333 -82.666 -30.666 -117.999 -51.999v0zM125 730c36 -109.333 74.3311 -201.666 114.998 -276.999s78.334 -137.333 113.001 -186l78 -114c18 -26.667 22.333 -46 13 -58c-15.333 -18 -38.333 -31.667 -69 -41s-66 -11.666 -106 -6.99902
c-40 5.33301 -81.333 20.666 -124 45.999s-83.667 64 -123 116l-22 -22c18.667 -63.333 36 -115.333 52 -156c16 -40 31 -71.667 45 -95c13.333 -23.333 26 -41.333 38 -54s23.667 -23.334 35 -32.001h710c12.667 31.333 -6.66602 76.666 -57.999 135.999
c-52 58.667 -120.333 128 -205 208c-84.667 80.667 -170 168 -256 262c-86 94.667 -156.333 193.334 -211 296.001z" />
    <glyph glyph-name="five" unicode="5" horiz-adv-x="520" 
d="M340 -200l22.001 22.002c-33.333 64 -53.333 117.333 -60 160c-6.66699 42 -2.33398 78 12.999 108c14.667 30 37.667 59 69 87l111 98l-22 22l-49 -21c-16.667 -7.33301 -32.667 -13.666 -48 -18.999c-14.667 -5.33301 -26.667 -7.33301 -36 -6
s-14.333 7.66602 -15 18.999s1.66602 21.666 6.99902 30.999s14 18.666 26 27.999c12 10 28 21.667 48 35l74 51l-22 22c-33.333 -11.333 -63 -20.666 -89 -27.999s-48.667 -12 -68 -14c-20 -2 -37 -1.33301 -51 2c-14.667 4 -26.334 11.667 -35.001 23
c-8 75.333 -3.33301 135 14 179c16.667 43.333 39.334 76 68.001 98c28 21.333 55.667 37 83 47c27.333 9.33301 48 18.333 62 27l-22 22c-37.333 4.66699 -77.666 6.66699 -120.999 6s-85.333 -5.33398 -126 -14.001c-40.667 -9.33301 -75.667 -24 -105 -44
c-30 -19.333 -49.667 -45.333 -59 -78c-16 -64 -12.333 -143.333 11 -238c23.333 -95.333 56.333 -190.333 99 -285c42 -95.333 83.667 -175.333 125 -240c42 -64.667 74 -98 96 -100v0z" />
    <glyph glyph-name="six" unicode="6" horiz-adv-x="925" 
d="M455 500c-46 6 -87.3301 15.6641 -123.997 28.9971c-36 13.333 -70.333 30 -103 50c-32 20.667 -64.667 45 -98 73s-69.333 60.667 -108 98l-22 -22l51 -110c14.667 -29.333 26.667 -55.666 36 -78.999c8.66699 -23.333 15.667 -48.666 21 -75.999
c5.33301 -26.667 9.33301 -59.667 12 -99c1.33301 -95.333 0.666016 -166 -2.00098 -212s-5 -77 -7 -93c-2 -16.667 -1.33301 -27.667 2 -33c4 -4.66699 13.667 -13.334 29 -26.001c34 80.667 59.333 144.667 76 192c16 47.333 31.333 82.333 46 105
c14 22.667 35 37.334 63 44.001c27.333 6.66699 70 9.66699 128 9c54 -1.33301 95 -18 123 -50s49 -73.333 63 -124c14.667 -50.667 28.334 -104.667 41.001 -162c13.333 -57.333 32.666 -112 57.999 -164l22 22c0.666992 104 7.66699 187.667 21 251
c14 62.667 30 116.334 48 161.001c17.333 44 33 90.667 47 140c13.333 49.333 20.666 113 21.999 191c-30.667 -5.33301 -63.334 -15 -98.001 -29l-110 -44c-38 -15.333 -77 -27.666 -117 -36.999c-40 -8.66699 -80 -10.334 -120 -5.00098v0z" />
    <glyph glyph-name="seven" unicode="7" horiz-adv-x="730" 
d="M0 445l0.00292969 -30.0029c28.667 1.33301 55.334 3.33301 80.001 6s46.667 4.66699 66 6c18.667 1.33301 34.334 0.666016 47.001 -2.00098c12.667 -3.33301 21.667 -9.33301 27 -18c4 -9.33301 3.66699 -20.333 -1 -33c-4 -12 -8.66699 -25 -14 -39
c-5.33301 -13.333 -7 -26.666 -5 -39.999c2.66699 -13.333 12.667 -25 30 -35c-2.66699 6.66699 -2.33398 14.667 0.999023 24c2.66699 8.66699 7.66699 17.334 15 26.001c7.33301 8 16.333 14.667 27 20c11.333 4.66699 23.666 6.33398 36.999 5.00098
c16 -4 33.667 -24 53 -60l70 -135c27.333 -53.333 61 -108 101 -164c40.667 -55.333 90.334 -104 149.001 -146l22 22c-95.333 114 -154 222.333 -176 325c-21.333 102.667 -21.333 195.334 0 278.001c20.667 82.667 47.667 151.667 81 207
c33.333 56 57.666 94.667 72.999 116l-22 22c-62.667 -44.667 -112.334 -90.667 -149.001 -138c-36.667 -48 -68.334 -85.333 -95.001 -112s-55.334 -30.667 -86.001 -12s-71 72.667 -121 162c-26 -17.333 -47.667 -35.666 -65 -54.999c-18 -18.667 -34 -38.334 -48 -59.001
s-28.333 -43 -43 -67c-15.333 -23.333 -33.333 -48 -54 -74v0z" />
    <glyph glyph-name="eight" unicode="8" horiz-adv-x="1005" 
d="M640 -120c23.333 0.666992 32.3301 9.33398 26.9971 26.001s-14.333 36 -27 58c-13.333 22 -18.666 41.333 -15.999 58s24 25.667 64 27c23.333 -0.666992 42.333 -8.66699 57 -24c14 -15.333 28.667 -34.333 44 -57c14.667 -22 35 -44 61 -66
c25.333 -21.333 61.333 -38.666 108 -51.999l22 22c-40 30 -75 61 -105 93c-30 31.333 -55 64.333 -75 99c-20 34 -35 71 -45 111c-10 39.333 -15 82.666 -15 129.999c0 60 7.66699 113.667 23 161s35 89.666 59 126.999c24.667 37.333 50.667 71 78 101l80 84l-25 22
c-55.333 -2 -96.666 -17 -123.999 -45s-49.333 -60.333 -66 -97c-16.667 -37.333 -35.667 -69.666 -57 -96.999c-22 -27.333 -54.667 -41 -98 -41c-24 1.33301 -36 12.666 -36 33.999c0 20.667 5.33301 46 16 76l30 86c8.66699 27.333 10.334 48.666 5.00098 63.999
c-25.333 -8 -49 -13.667 -71 -17c-22 -4 -43.333 -6 -64 -6c-21.333 0 -43 2 -65 6c-22 3.33301 -45.333 9 -70 17c-6 -15.333 -4.66699 -36.666 4 -63.999l30 -86c10.667 -30 16 -55.333 16 -76c0 -21.333 -11.667 -32.666 -35 -33.999c-44 0 -77 13.667 -99 41
c-21.333 27.333 -40.333 59.666 -57 96.999c-16.667 36.667 -38.667 69 -66 97s-68.333 43 -123 45l-25 -22l79 -84c27.333 -30 53.333 -63.667 78 -101c24 -37.333 43.667 -79.666 59 -126.999s23.333 -101 24 -161c-0.666992 -47.333 -6 -90.666 -16 -129.999
c-10 -40 -25 -77 -45 -111c-20 -34.667 -45 -67.667 -75 -99c-30 -32 -64.667 -63 -104 -93l22 -22c46 13.333 81.667 30.666 107 51.999c26 22 46.333 44 61 66c15.333 22.667 30 41.667 44 57c14.667 15.333 34 23.333 58 24c39.333 -1.33301 60.333 -10.333 63 -27
s-2.33301 -36 -15 -58c-13.333 -22 -22.666 -41.333 -27.999 -58s4 -25.334 28 -26.001c32 10 59.667 17.333 83 22c23.333 5.33301 45.666 8 66.999 8c20.667 0 42.667 -2.66699 66 -8c23.333 -4.66699 51.333 -12 84 -22v0z" />
    <glyph glyph-name="nine" unicode="9" horiz-adv-x="725" 
d="M350 800c-4.66699 10.667 -12.3291 11.3311 -22.9961 1.99805c-10 -8.66699 -22 -23 -36 -43l-44 -62c-14.667 -21.333 -28.334 -39 -41.001 -53c-16 -16 -35.333 -31 -58 -45l-68 -42c-22.667 -14.667 -41.667 -31 -57 -49c-15.333 -17.333 -23 -37.666 -23 -60.999
c48.667 20.667 88.667 33.334 120 38.001c32 4.66699 57 4.66699 75 0s31.333 -11 40 -19c9.33301 -7.33301 16 -13.333 20 -18c28 -30 44.667 -70.333 50 -121c5.33301 -51.333 2 -107 -10 -167c-11.333 -60 -28.333 -117.667 -51 -173
c-22.667 -54.667 -47.334 -100.334 -74.001 -137.001l22 -22c22.667 16 45 25.333 67 28c21.333 2.66699 44 1.66699 68 -3l79 -16c29.333 -6 63.333 -9 102 -9l22 22c-27.333 36.667 -52.333 82.334 -75 137.001c-22.667 55.333 -39.667 113 -51 173
c-12 60 -15.333 115.667 -10 167c5.33301 50.667 22.333 91 51 121c3.33301 4.66699 9.66602 10.667 18.999 18c8.66699 8 22 14.333 40 19s43 4.66699 75 0c31.333 -4.66699 71.666 -17.334 120.999 -38.001c-1.33301 28.667 -16.333 54.334 -45 77.001
c-29.333 22.667 -64.333 45.667 -105 69s-79.667 51 -117 83c-37.333 32.667 -65 74 -83 124v0z" />
    <glyph glyph-name="colon" unicode=":" 
 />
    <glyph glyph-name="semicolon" unicode=";" 
 />
    <glyph glyph-name="less" unicode="&#x3c;" horiz-adv-x="1170" 
d="M651 333c6.66699 -10 12.668 -19.668 18.001 -29.001c4.66699 -9.33301 8.66699 -18.666 12 -27.999s5.66602 -19.333 6.99902 -30c2 -10.667 3.33301 -22 4 -34c2.66699 6 5.33398 11.667 8.00098 17c2.66699 6 5 11.667 7 17c2 4.66699 4 10 6 16l7 18
c7.33301 -9.33301 14.333 -19 21 -29c6 -10 11.333 -21 16 -33c4.66699 -12.667 8 -26.667 10 -42c1.33301 -15.333 1.33301 -32.333 0 -51c-2.66699 -19.333 -7.33398 -37 -14.001 -53c-6.66699 -15.333 -14.667 -28.666 -24 -39.999c-8.66699 -12 -17.334 -22 -26.001 -30
c-9.33301 -8 -17 -14 -23 -18c-11.333 0 -21.333 0.666992 -30 2c-8.66699 0.666992 -17 2.33398 -25 5.00098c-8 2 -15.667 4.66699 -23 8c-8 3.33301 -16.333 7.66602 -25 12.999c3.33301 -6 6.66602 -11.333 9.99902 -16s6.66602 -9 9.99902 -13
c2.66699 -4 5.66699 -8 9 -12c3.33301 -4.66699 7 -9.33398 11 -14.001c-11.333 -4 -23.666 -6.33301 -36.999 -7s-26.666 0 -39.999 2c-14 2.66699 -27.667 6.33398 -41 11.001c-12.667 4.66699 -24.334 10.667 -35.001 18c-10.667 6.66699 -20.667 14.334 -30 23.001
c-8.66699 8 -16.667 17.333 -24 28c-8 10.667 -15 22 -21 34c-6 12.667 -11 26.667 -15 42c4.66699 11.333 10 21.666 16 30.999c5.33301 9.33301 11.666 18 18.999 26c6.66699 8 14.334 15.333 23.001 22c8.66699 7.33301 18.667 14.666 30 21.999
c-9.33301 -1.33301 -17.666 -2.33301 -24.999 -3c-8 -0.666992 -15.333 -1.66699 -22 -3c-7.33301 -0.666992 -14 -1.66699 -20 -3c-6.66699 -1.33301 -13 -2.33301 -19 -3c2.66699 13.333 7.33398 26.333 14.001 39c6 12 13 23.667 21 35
c8.66699 11.333 18.334 21.333 29.001 30c10 9.33301 21.333 17.333 34 24c11.333 6 23.666 11.333 36.999 16s27.333 7.66699 42 9c14 0.666992 29.333 0 46 -2c16 -2.66699 33.333 -7.66699 52 -15v0zM347.001 189.999c-18 -6.66699 -34.334 -13.3291 -49.001 -19.9961
c-15.333 -6 -29.666 -12.333 -42.999 -19s-26.666 -14.667 -39.999 -24c-13.333 -8.66699 -27.333 -18.667 -42 -30c-20.667 -18.667 -40 -38.667 -58 -60c-17.333 -21.333 -33.333 -44 -48 -68c-14.667 -24.667 -27.334 -50.334 -38.001 -77.001
c-10.667 -26 -19.334 -53 -26.001 -81c11.333 10 23 19.333 35 28c12 9.33301 24.667 17.666 38 24.999c12.667 8 26.334 15.333 41.001 22c14 7.33301 29.333 14 46 20c15.333 6 31.333 10.667 48 14c16 4 32.333 7 49 9c17.333 1.33301 34.666 2 51.999 2
c17.333 -0.666992 35.666 -2 54.999 -4c-4 10.667 -7 21.334 -9 32.001c-2 10 -3.66699 20 -5 30c-0.666992 10.667 -0.666992 21.667 0 33c0.666992 12 2.33398 25 5.00098 39c8 -17.333 16.667 -33 26 -47c10 -14 20.667 -26.333 32 -37
c10.667 -11.333 22.334 -21 35.001 -29c12 -8 24.667 -14.667 38 -20c12.667 -5.33301 25.667 -9.66602 39 -12.999c13.333 -2.66699 26.666 -4.33398 39.999 -5.00098c14 -0.666992 27.667 0 41 2c14 2 27.667 5.66699 41 11c6.66699 -8 15.667 -17 27 -27
c12 -9.33301 25.667 -19.333 41 -30c15.333 -10 31.666 -19.667 48.999 -29s35.333 -17 54 -23c25.333 -9.33301 51.333 -16.333 78 -21c27.333 -4.66699 55 -7.33398 83 -8.00098c28 0 56 2 84 6c28 4.66699 56.333 11.334 85 20.001c-15.333 4 -30.333 8.66699 -45 14
c-14 6 -27.667 12.333 -41 19c-13.333 7.33301 -26.666 15.666 -39.999 24.999c-13.333 8.66699 -26.666 18.667 -39.999 30c-12 10.667 -23.667 22.334 -35 35.001c-10.667 12.667 -20.667 26 -30 40s-18.333 28.667 -27 44c-8.66699 16 -16.667 33 -24 51
c-10 -10 -19.333 -18.667 -28 -26s-17.334 -14 -26.001 -20s-17.667 -11 -27 -15c-10 -4.66699 -20.667 -8.33398 -32 -11.001c6.66699 8.66699 13.334 18 20.001 28c6 10 11.667 20.667 17 32c5.33301 12 9.33301 24.667 12 38s4.33398 28 5.00098 44
c0 16.667 -1.33301 33 -4 49c-2.66699 15.333 -7.33398 30.333 -14.001 45s-15 29 -25 43c-10 13.333 -22 27 -36 41c4 15.333 7 30.333 9 45c2.66699 15.333 4.33398 31 5.00098 47s0.666992 33.333 0 52c-0.666992 18 -2.33398 38 -5.00098 60
c-5.33301 26.667 -13 53 -23 79c-9.33301 26 -21 51.333 -35 76s-29.667 48.334 -47 71.001c-18 23.333 -37.333 45.333 -58 66c2.66699 -15.333 5 -30.666 7 -45.999c2.66699 -14.667 4.33398 -29.667 5.00098 -45c0 -15.333 -0.333008 -31 -1 -47
s-2.33398 -32.333 -5.00098 -49c-3.33301 -17.333 -7.66602 -34 -12.999 -50c-4.66699 -16.667 -10.667 -32.667 -18 -48c-7.33301 -16 -15.666 -31.667 -24.999 -47s-19.666 -30.333 -30.999 -45c15.333 -4 29 -8 41 -12c11.333 -4.66699 21.666 -9.33398 30.999 -14.001
l25 -16l24 -19c-18 1.33301 -34.667 1.66602 -50 0.999023s-29.666 -2.33398 -42.999 -5.00098s-26.333 -7 -39 -13c-12.667 -5.33301 -24.667 -12 -36 -20c-12.667 -8.66699 -24.334 -18.334 -35.001 -29.001c-11.333 -11.333 -21.333 -23.333 -30 -36
s-16.334 -26 -23.001 -40s-11.334 -28.333 -14.001 -43v0z" />
    <glyph glyph-name="equal" unicode="=" 
 />
    <glyph glyph-name="greater" unicode="&#x3e;" horiz-adv-x="822" 
d="M284 391l-6 -18.002c-2 -6 -4 -11.667 -6 -17l-6 -18c-2 -6 -4 -11.667 -6 -17c-2.66699 -6.66699 -5.33398 -13 -8.00098 -19c-2.66699 -6.66699 -5 -13 -7 -19c-2.66699 -6.66699 -5.33398 -13 -8.00098 -19c-2.66699 -6.66699 -5 -13 -7 -19l130 -217l129 217
c-3.33301 5.33301 -6.33301 11 -9 17c-2 5.33301 -4.33301 11 -7 17s-5 12.333 -7 19c-2 6 -3.66699 12.333 -5 19c-2.66699 5.33301 -5.33398 11 -8.00098 17c-2 6 -4 12.333 -6 19c-2 6 -4 12.333 -6 19c-1.33301 6 -2.66602 12.333 -3.99902 19
c14.667 -4.66699 28.667 -10 42 -16s26 -13 38 -21c12 -7.33301 23.333 -16 34 -26c10.667 -9.33301 20.667 -19.666 30 -30.999c8.66699 -12 16.334 -24.333 23.001 -37s12.334 -25.334 17.001 -38.001c4 -13.333 7.33301 -27 10 -41s4.33398 -28.333 5.00098 -43
c-0.666992 -7.33301 -1 -13.333 -1 -18c-0.666992 -5.33301 -1.33398 -10 -2.00098 -14c-0.666992 -4.66699 -1.33398 -9 -2.00098 -13c-1.33301 -4.66699 -2.33301 -9.66699 -3 -15l-18 12l-16 14c-6 4 -11.333 8.33301 -16 13c-5.33301 5.33301 -10.333 10.666 -15 15.999
c-5.33301 4.66699 -10.333 9.66699 -15 15s-9 11 -13 17c-4.66699 6 -9 12 -13 18s-7.66699 12.333 -11 19l-136 -229l22 -2c7.33301 -0.666992 14.666 -1.66699 21.999 -3c7.33301 -0.666992 14.333 -1.66699 21 -3c7.33301 -1.33301 14.666 -2.33301 21.999 -3
c6.66699 -2 13.334 -3.66699 20.001 -5s13.334 -3 20.001 -5c7.33301 -1.33301 14.333 -3 21 -5s13.334 -3.66699 20.001 -5c-6.66699 -6 -13.334 -11.333 -20.001 -16c-7.33301 -5.33301 -14.333 -10 -21 -14c-7.33301 -4.66699 -14.666 -8.66699 -21.999 -12
s-14.666 -6.33301 -21.999 -9c-8 -3.33301 -16 -6 -24 -8l-24 -6c-8.66699 -1.33301 -17.334 -2.33301 -26.001 -3c-8 -0.666992 -16.333 -1 -25 -1c-9.33301 0 -18.333 0.333008 -27 1s-17.334 1.66699 -26.001 3l-24 6c-8 2 -15.667 4.66699 -23 8
c-8 2.66699 -15.667 5.66699 -23 9c-8 3.33301 -15.333 7.33301 -22 12l-21 14c-7.33301 5.33301 -14 11 -20 17c5.33301 2.66699 11 5 17 7c6 2.66699 12.333 5 19 7c6 2 12.333 3.66699 19 5c6 1.33301 12.667 3 20 5c6.66699 1.33301 13.334 2.33301 20.001 3
c6.66699 1.33301 13.667 2.33301 21 3s15.666 1.33398 24.999 2.00098c8.66699 0 18.667 0.333008 30 1l-136 226c-4 -5.33301 -7.66699 -10.666 -11 -15.999c-4 -5.33301 -8 -10.333 -12 -15c-4 -5.33301 -8.33301 -10.333 -13 -15c-4 -5.33301 -8.33301 -10.333 -13 -15
c-5.33301 -5.33301 -10.666 -10.333 -15.999 -15c-5.33301 -5.33301 -11 -10.333 -17 -15c-5.33301 -5.33301 -11.333 -10.333 -18 -15l-18 -14c-2 5.33301 -3.33301 10.333 -4 15c-1.33301 4 -2 8 -2 12c-0.666992 4 -1 8 -1 12v16c-0.666992 14.667 0.333008 28.667 3 42
c2 14 5.33301 27.667 10 41c4 13.333 9.66699 26 17 38c6.66699 12.667 15 25 25 37c8.66699 10.667 18 21 28 31c10.667 10 22 19 34 27s25 15 39 21c14 6.66699 29 12.334 45 17.001v0zM360 837.998c-1.33301 -18.667 -2.99707 -36.9971 -4.99707 -54.9971l-6 -54
c-2 -18 -4.33301 -36 -7 -54c-2 -17.333 -4.33301 -34.666 -7 -51.999l-10 -54l-10 -52c-4 -17.333 -8.33301 -34.333 -13 -51c-4 -17.333 -8.33301 -34.333 -13 -51c-18 -5.33301 -35 -11.333 -51 -18s-31 -14.334 -45 -23.001s-27.333 -18.334 -40 -29.001
c-12 -10.667 -23 -22 -33 -34c-10 -12.667 -19 -26 -27 -40c-7.33301 -14 -13.333 -28.333 -18 -43c-5.33301 -15.333 -9.33301 -31 -12 -47c-2 -16.667 -3 -33.334 -3 -50.001c0 -8 0.333008 -14.667 1 -20c0 -4.66699 0.333008 -9.33398 1 -14.001s1.66699 -9.66699 3 -15
l5 -17l-17 -19c-5.33301 -6.66699 -10 -13.334 -14 -20.001c-4.66699 -6.66699 -8.66699 -13.667 -12 -21c-3.33301 -6.66699 -6.33301 -13.334 -9 -20.001c-3.33301 -7.33301 -6 -15 -8 -23c-2.66699 -7.33301 -4.66699 -15 -6 -23
c-1.33301 -7.33301 -2.33301 -15.333 -3 -24c-0.666992 -8 -1 -16 -1 -24v-13c0.666992 -4.66699 1 -8.66699 1 -12c0.666992 -4 1.33398 -7.66699 2.00098 -11c0.666992 -4 1.66699 -7.33301 3 -10c0.666992 -4 2 -7.66699 4 -11
c1.33301 -3.33301 2.66602 -6.33301 3.99902 -9c2 -3.33301 3.66699 -6.33301 5 -9c2 -3.33301 4 -6 6 -8c2.66699 6.66699 5.66699 13 9 19s7 12 11 18s8.66699 11.667 14 17c4.66699 5.33301 9.66699 10.666 15 15.999c4.66699 4.66699 9.66699 9.33398 15 14.001
c6 5.33301 12 10 18 14l20 14c6.66699 4 14 8 22 12c6.66699 -6.66699 14 -13 22 -19l23 -16l25 -14c8.66699 -4 17.667 -7.66699 27 -11c8.66699 -3.33301 17.334 -6.33301 26.001 -9c9.33301 -2 19 -3.66699 29 -5c9.33301 -2 19 -3.33301 29 -4
c9.33301 -0.666992 19.333 -1 30 -1c9.33301 0 19 0.333008 29 1c9.33301 0.666992 19 2 29 4l27 6c9.33301 2.66699 18.666 5.66699 27.999 9c8.66699 3.33301 17 7.33301 25 12c8.66699 4.66699 17 9.66699 25 15c8.66699 5.33301 16.667 11 24 17c8 6 16 12.667 24 20
c5.33301 -1.33301 10 -2.66602 14 -3.99902c4.66699 -0.666992 9 -1 13 -1c3.33301 -0.666992 7.33301 -1 12 -1c5.33301 -0.666992 11.333 -0.666992 18 0c10.667 0 21 0.333008 31 1c10 1.33301 20 3 30 5c9.33301 2 18.666 4.66699 27.999 8
c8.66699 3.33301 17.667 7.33301 27 12c8.66699 4 16.667 8.66699 24 14c7.33301 4.66699 14.333 10 21 16s12.667 12 18 18c5.33301 6.66699 10.333 14 15 22c-10 -1.33301 -19 -2 -27 -2s-15.333 0.666992 -22 2c-7.33301 0.666992 -14.666 1.66699 -21.999 3
s-15.333 3.33301 -24 6c-6.66699 1.33301 -13.334 3 -20.001 5s-13.334 4.33301 -20.001 7s-13 5.66699 -19 9c-6.66699 2.66699 -13 6 -19 10c1.33301 6.66699 2.66602 12.667 3.99902 18c1.33301 4.66699 2.33301 9.66699 3 15c0.666992 4.66699 1.33398 10 2.00098 16
c0 6 0.333008 13.333 1 22c0 16 -1.33301 31.667 -4 47s-6.66699 30.333 -12 45s-12 29 -20 43c-8 13.333 -17 26.666 -27 39.999c-10.667 12 -22.334 23.333 -35.001 34c-12 10.667 -25 20.334 -39 29.001s-28.667 16 -44 22c-16 6.66699 -32.333 12.334 -49 17.001
c-4.66699 16 -9 32.667 -13 50c-4.66699 16.667 -8.66699 33.667 -12 51c-4 16.667 -7.66699 33.667 -11 51l-8 53c-3.33301 17.333 -6.33301 35 -9 53c-2.66699 17.333 -5 35.333 -7 54c-2 18 -3.66699 36.333 -5 55c-2 18 -3.33301 36.667 -4 56v0z" />
    <glyph glyph-name="question" unicode="?" 
 />
    <glyph glyph-name="at" unicode="@" 
 />
    <glyph glyph-name="A" unicode="A" 
 />
    <glyph glyph-name="B" unicode="B" 
 />
    <glyph glyph-name="C" unicode="C" 
 />
    <glyph glyph-name="D" unicode="D" 
 />
    <glyph glyph-name="E" unicode="E" 
 />
    <glyph glyph-name="F" unicode="F" 
 />
    <glyph glyph-name="G" unicode="G" 
 />
    <glyph glyph-name="H" unicode="H" 
 />
    <glyph glyph-name="I" unicode="I" 
 />
    <glyph glyph-name="J" unicode="J" 
 />
    <glyph glyph-name="K" unicode="K" 
 />
    <glyph glyph-name="L" unicode="L" 
 />
    <glyph glyph-name="M" unicode="M" 
 />
    <glyph glyph-name="N" unicode="N" 
 />
    <glyph glyph-name="O" unicode="O" 
 />
    <glyph glyph-name="P" unicode="P" 
 />
    <glyph glyph-name="Q" unicode="Q" 
 />
    <glyph glyph-name="R" unicode="R" 
 />
    <glyph glyph-name="S" unicode="S" 
 />
    <glyph glyph-name="T" unicode="T" 
 />
    <glyph glyph-name="U" unicode="U" 
 />
    <glyph glyph-name="V" unicode="V" 
 />
    <glyph glyph-name="W" unicode="W" 
 />
    <glyph glyph-name="X" unicode="X" 
 />
    <glyph glyph-name="Y" unicode="Y" 
 />
    <glyph glyph-name="Z" unicode="Z" 
 />
    <glyph glyph-name="bracketleft" unicode="[" 
 />
    <glyph glyph-name="backslash" unicode="\" 
 />
    <glyph glyph-name="bracketright" unicode="]" 
 />
    <glyph glyph-name="asciicircum" unicode="^" 
 />
    <glyph glyph-name="underscore" unicode="_" horiz-adv-x="700" 
 />
    <glyph glyph-name="quoteleft" unicode="`" 
 />
    <glyph glyph-name="a" unicode="a" horiz-adv-x="1025" 
d="M0 10l-0.000976562 -30.002c174.667 -1.33301 317.667 -1.66602 429 -0.999023c110.667 0.666992 199 -3 265 -11c66 -7.33301 119.667 -24 161 -50c40.667 -26 79 -65.333 115 -118h30c-14 105.333 -48 184.333 -102 237c-53.333 52 -112.666 88.333 -177.999 109
s-122.333 35.667 -171 45c-48 9.33301 -73 23.666 -75 42.999c0.666992 9.33301 14.667 16.333 42 21c28 4.66699 62.667 8.33398 104 11.001l127 6c42.667 2 80.334 4.66699 113.001 8v30c-112 28.667 -186.333 64 -223 106s-43.334 85.667 -20.001 131
c22.667 45.333 67 87.666 133 126.999s146 71.333 240 96v30h-93h-88h-90h-99c-25.333 -15.333 -62 -59.333 -110 -132l-161 -248c-60 -93.333 -120.333 -178.666 -181 -255.999c-61.333 -77.333 -117.333 -128.666 -168 -153.999v0z" />
    <glyph glyph-name="b" unicode="b" horiz-adv-x="1000" 
d="M5 561c10 -15.333 22.334 -31.0029 37.001 -47.0029c14 -15.333 27.667 -31.333 41 -48c13.333 -17.333 23.666 -35.666 30.999 -54.999c7.33301 -20 9.66602 -41.333 6.99902 -64c34 -6 59.333 -2 76 12c16 14 28.667 30.667 38 50c9.33301 20 21 36 35 48
s35.667 13.667 65 5l98 -192c32 -61.333 66.667 -120 104 -176c36.667 -55.333 80 -107.666 130 -156.999s110 -95 180 -137v30c-34 38.667 -67.333 79 -100 121c-33.333 42.667 -63.333 88 -90 136c-27.333 48 -49.333 100 -66 156c-16.667 56.667 -25 118.667 -25 186
c0.666992 37.333 15.334 74.666 44.001 111.999c28.667 38 65 73 109 105c44 32.667 89.333 60 136 82s88.334 36 125.001 42v30c-30.667 0.666992 -65 -0.333008 -103 -3c-37.333 -2.66699 -73.333 -6 -108 -10c-34.667 -4.66699 -63.334 -8.66699 -86.001 -12
s-34.334 -5 -35.001 -5c-18 -17.333 -37.333 -34.666 -58 -51.999c-21.333 -16.667 -42.666 -31.667 -63.999 -45s-41.333 -22.666 -60 -27.999c-19.333 -6 -35.333 -6.33301 -48 -1c-18.667 8 -32 22 -40 42l-25 62c-8.66699 22 -23 41 -43 57
c-19.333 15.333 -50 23.666 -92 24.999c-9.33301 -27.333 -21.333 -54.333 -36 -81s-31.667 -52 -51 -76c-18.667 -24.667 -39 -46.667 -61 -66c-21.333 -19.333 -43 -34.666 -65 -45.999v0z" />
    <glyph glyph-name="c" unicode="c" horiz-adv-x="1125" 
d="M0 130v-29.9971c78.667 45.333 149 90.666 211 135.999c61.333 45.333 113.333 79.666 156 102.999c42.667 22.667 75 22.667 97 0s32.333 -79 31 -169c1.33301 -5.33301 19.333 -7.33301 54 -6c34.667 0.666992 75 2.33398 121 5.00098s86.667 4.33398 122 5.00098
s54.666 -1.33301 57.999 -6c15.333 -68 19.333 -119.333 12 -154c-8 -35.333 -31.667 -58.333 -71 -69s-98.666 -12.667 -177.999 -6c-79.333 6 -183 17 -311 33l-22 -22c54 -36.667 103 -65.334 147 -86.001c43.333 -20.667 82.333 -35.667 117 -45
c34 -9.33301 64.333 -15 91 -17c26 -2 49.333 -2.66699 70 -2c128 -0.666992 214 19 258 59c44.667 39.333 68 99.666 70 180.999c1.33301 82 2.33301 186 3 312c1.33301 126 22.666 275.333 63.999 448h-30l-70 -139c-26.667 -54.667 -56 -109 -88 -163
c-32 -54.667 -65.333 -100.334 -100 -137.001c-34.667 -36 -69.667 -54.667 -105 -56c-28.667 2 -58 26 -88 72s-60.667 100 -92 162c-32 62 -64.333 118 -97 168c-32.667 50.667 -66 81.667 -100 93c-14 -61.333 -31.333 -122.333 -52 -183
c-21.333 -60.667 -45.666 -120 -72.999 -178c-28 -58 -59 -113 -93 -165c-34.667 -52.667 -72 -100.667 -112 -144v0z" />
    <glyph glyph-name="d" unicode="d" horiz-adv-x="851" 
d="M465 241c40 -32 70.0059 -65.668 90.0059 -101.001c20 -34.667 27 -68.334 21 -101.001c-6.66699 -32.667 -29.334 -60.667 -68.001 -84c-38.667 -24 -96.334 -40.667 -173.001 -50v-80c42.667 -6 96.334 -3 161.001 9c65.333 12.667 127.666 32.334 186.999 59.001
c59.333 26 101.666 56.667 126.999 92s20.333 73.333 -15 114c-28 26.667 -68.333 63 -121 109c-52.667 46.667 -108.334 101.334 -167.001 164.001c-58.667 62 -110.667 131 -156 207c-46 76 -75.667 157 -89 243l-17 -22c-28.667 -51.333 -40.334 -104.333 -35.001 -159
c6 -54 22.667 -106.667 50 -158c27.333 -50.667 59.666 -97 96.999 -139s73.333 -76.333 108 -103v0zM245.006 -200.001l-0.00195312 134.999c-66 -1.33301 -102 6.66699 -108 24c-5.33301 18 4.66699 44 30 78c24.667 34 50.334 74.333 77.001 121
s39.334 98.334 38.001 155.001l-22 27c-6 -45.333 -34 -95.666 -84 -150.999c-49.333 -55.333 -94.333 -110 -135 -164c-41.333 -54 -51.333 -101.333 -30 -142c20.667 -40.667 98.667 -68.334 234 -83.001v0z" />
    <glyph glyph-name="e" unicode="e" horiz-adv-x="705" 
d="M229 -30c-27.333 42.667 -45.001 85.335 -53.001 128.002c-8 43.333 -9.33301 89 -4 137c5.33301 48.667 14.666 102.667 27.999 162c14 59.333 29 127 45 203c32 5.33301 64.333 9.33301 97 12c32.667 3.33301 66 5.33301 100 6c34 1.33301 68 2 102 2h105
c2 22.667 4.66699 40 8 52c3.33301 11.333 6 21 8 29c2.66699 8 4 18.333 4 31c0 13.333 -1.66699 32.666 -5 57.999c-29.333 6.66699 -59.666 10.667 -90.999 12c-30.667 0.666992 -68.667 0 -114 -2c-44.667 -2 -102 -4 -172 -6c-69.333 -2.66699 -157 -4 -263 -4
c-15.333 -128.667 -23.666 -230.334 -24.999 -305.001c-0.666992 -75.333 3 -141 11 -197c8.66699 -56 20 -119.333 34 -190c14 -71.333 29 -167.333 45 -288h30z" />
    <glyph glyph-name="f" unicode="f" horiz-adv-x="1101" 
d="M0 768l125.001 -82.998c37.333 -24 69.333 -45.333 96 -64s47.334 -35.667 62.001 -51c14 -14.667 21.333 -28 22 -40c-1.33301 -30.667 -11.333 -56.334 -30 -77.001s-40.334 -39.667 -65.001 -57c-25.333 -16.667 -47.333 -35.667 -66 -57
s-28.334 -47.666 -29.001 -78.999c0 -17.333 20 -50 60 -98c40 -47.333 95.333 -99 166 -155c71.333 -56 154 -104 248 -144c94 -40.667 196 -61.667 306 -63v30c-129.333 64.667 -233.333 131 -312 199c-79.333 68 -129.666 131 -150.999 189s-9.66602 105 35.001 141
c44 36 125 54.667 243 56c-34 78 -41 134.667 -21 170c20 36 51.333 52.333 94 49c42 -4 80 -25.667 114 -65c33.333 -39.333 47 -95 41 -167l22 -22c28.667 65.333 52.667 122.666 72 171.999c20 48.667 33.333 89.667 40 123s4.66699 59.666 -6 78.999
c-10 19.333 -30.333 33 -61 41c-82 -10 -165 -15.667 -249 -17c-84.667 -2 -169.334 -1.33301 -254.001 2c-85.333 2.66699 -170 5.66699 -254 9c-84.667 3.33301 -167.334 5.33301 -248.001 6v-27z" />
    <glyph glyph-name="g" unicode="g" horiz-adv-x="1165" 
d="M598 607c-2 -28.667 -7.32812 -65.666 -15.9951 -110.999s-19.334 -93.333 -32.001 -144l-35 -143c-12 -44 -21 -79 -27 -105c-57.333 -18.667 -112.333 -39 -165 -61c-53.333 -22 -102 -45.667 -146 -71c-44 -26 -81.333 -53.333 -112 -82
c-31.333 -28.667 -53 -58.667 -65 -90h30c36 25.333 94 52.666 174 81.999c79.333 29.333 170.666 55 273.999 77c102.667 21.333 208 32.666 316 33.999c107.333 1.33301 207.666 -13 300.999 -43l22 22c-45.333 35.333 -86 62.333 -122 81
c-36.667 19.333 -70.334 33.333 -101.001 42s-60 14.667 -88 18c-28.667 3.33301 -57 7.33301 -85 12c3.33301 38 9 79.667 17 125c7.33301 46 15.666 92 24.999 138c9.33301 46.667 18.666 90 27.999 130s18 73.667 26 101l102 14c30 4.66699 57 8 81 10s47 2 69 0
c22.667 -1.33301 46.334 -5.66602 71.001 -12.999v30c-14 13.333 -27.333 27.666 -40 42.999c-12 16 -24.333 31.333 -37 46c-12.667 14 -26.667 25.333 -42 34c-14.667 8.66699 -31.667 12.667 -51 12c-58 -0.666992 -122 -1 -192 -1h-203h-160
c-42 0 -63.667 0.333008 -65 1c26.667 -46 46.667 -77 60 -93c14 -16.667 27 -26.667 39 -30s29 -8.66602 51 -15.999c22 -6.66699 54.667 -23 98 -49v0z" />
    <glyph glyph-name="h" unicode="h" horiz-adv-x="535" 
d="M0 525c2 -50 10.999 -107.332 26.999 -171.999c16.667 -64 40.334 -129.333 71.001 -196c31.333 -66.667 70.333 -129.334 117 -188.001c46.667 -58 102 -106 166 -144l21 22c-58 83.333 -96 152 -114 206c-18 54.667 -20 103.667 -6 147c14.667 43.333 42 91.333 82 144
l146 201c-0.666992 0 -7 8.33301 -19 25l-48 64l-66 83l-72 83h-30c-26.667 -19.333 -50.667 -39.666 -72 -60.999l-63 -68l-64 -72c-22 -24.667 -47.333 -49.334 -76 -74.001v0zM368.999 561.001c-12.667 -26 -24.332 -52.333 -34.999 -79s-22 -51.334 -34 -74.001
c-12.667 -23.333 -28.334 -42 -47.001 -56c-18.667 -14.667 -42 -22 -70 -22c-20.667 0.666992 -35.667 11.334 -45 32.001c-8.66699 20 -13.667 43.667 -15 71c-2 26.667 -2 50 0 70c1.33301 20.667 2.33301 31.667 3 33c16.667 7.33301 38.667 14 66 20
c28 6 56 10.333 84 13s51 3.66699 69 3c18 -1.33301 26 -5 24 -11v0z" />
    <glyph glyph-name="i" unicode="i" horiz-adv-x="827" 
d="M0 491l281.996 -356.998c66 -84.667 118.333 -146.334 157 -185.001c38.667 -38 78.334 -64.667 119.001 -80s97.334 -30 170.001 -44l2 22c-69.333 46 -122.666 90.333 -159.999 133c-38 43.333 -63.333 83.333 -76 120c-13.333 36.667 -18 68.334 -14 95.001
s13.333 46.667 28 60l47 43l46 41l69 62l118 105c6.66699 18.667 10.667 38.334 12 59.001c1.33301 20 1 41 -1 63c-2 21.333 -4.33301 44 -7 68c-2.66699 23.333 -4 48 -4 74c-18.667 3.33301 -38 6 -58 8s-40.667 3.33301 -62 4c-20.667 0.666992 -41.667 1 -63 1h-60
c20 -48.667 33 -93.334 39 -134.001c6.66699 -40.667 6.66699 -77 0 -109c-7.33301 -32 -20.333 -58.667 -39 -80c-18.667 -20.667 -42.667 -35.667 -72 -45c-22.667 -6.66699 -48.334 -6.33398 -77.001 0.999023c-28 7.33301 -55.667 18.666 -83 33.999
s-50.666 32 -69.999 50s-31 34.667 -35 50c-3.33301 14 1 31.333 13 52c11.333 21.333 27 43.333 47 66c20 23.333 41.333 45 64 65c22 20.667 42.667 37.334 62 50.001l-241 17l-49 -65c-17.333 -24.667 -33.666 -50.334 -48.999 -77.001c-16 -27.333 -29 -55 -39 -83
c-10 -28.667 -15.333 -56.667 -16 -84v0z" />
    <glyph glyph-name="j" unicode="j" horiz-adv-x="980" 
d="M110 646c70 -7.33301 121.334 -31.002 154.001 -71.002s45.667 -93.667 39 -161c-7.33301 -66.667 -36 -143.667 -86 -231c-50 -88 -122.333 -182.333 -217 -283h30c103.333 36.667 183.666 90 240.999 160c58 69.333 103.667 141 137 215c32.667 74 64.667 137 96 189
c30.667 52 71 79.333 121 82c32 -1.33301 55.333 -17.666 70 -48.999c14 -32 19.333 -75.333 16 -130c-3.33301 -54 -14.333 -115 -33 -183c-18.667 -67.333 -44.667 -137 -78 -209h30c46 34 87.667 80 125 138c38 58 71 122 99 192s50.667 140.333 68 211
c16.667 70 27.667 134.667 33 194l-22 22c-56.667 -2.66699 -113.334 -4 -170.001 -4c-56 -0.666992 -111.333 1.33301 -166 6s-107.667 12 -159 22c-51.333 10.667 -100.666 25.334 -147.999 44.001l-45 -41l-46 -40l-45 -39c-15.333 -12.667 -30 -24 -44 -34v0z" />
    <glyph glyph-name="k" unicode="k" horiz-adv-x="460" 
d="M0 430l140.999 -133c35.333 -32 61.333 -64.667 78 -98c17.333 -33.333 28.333 -80.333 33 -141c5.33301 -60 8 -146 8 -258h30c47.333 102.667 79 187.667 95 255s20.667 123 14 167c-6.66699 43.333 -19.667 81 -39 113s-40.333 64.333 -63 97
c16.667 22.667 31.334 40.667 44.001 54c13.333 12.667 25.666 23.334 36.999 32.001c10.667 8 20.667 17 30 27c8.66699 9.33301 17.667 22.666 27 39.999c0 0.666992 -2 8 -6 22c-4 14.667 -11.333 31.667 -22 51c-10 20 -24.667 38.667 -44 56
c-18.667 17.333 -43 29.333 -73 36c-13.333 -34 -32.666 -66 -57.999 -96s-53 -58 -83 -84l-86 -75c-26.667 -23.333 -47.667 -45 -63 -65v0z" />
    <glyph glyph-name="l" unicode="l" horiz-adv-x="737" 
d="M0 2l19.9971 -22.002c124.667 9.33301 226.667 10 306 2c79.333 -8.66699 142 -23 188 -43c46.667 -19.333 83 -41.666 109 -66.999c26 -24.667 48.333 -48.667 67 -72l22 22l-49 120c-14.667 32.667 -29.667 60 -45 82s-33.333 41 -54 57
c-21.333 15.333 -47.666 30 -78.999 44c-29.333 11.333 -57 17.333 -83 18c-26 1.33301 -45.333 6 -58 14c-13.333 8 -15 28 -5 60s37 84.667 81 158c24.667 48 43 82 55 102c12.667 20.667 25.334 33.667 38.001 39c13.333 4.66699 33 7.33398 59 8.00098
c26 1.33301 65.333 6.66602 118 15.999v30c-24 30.667 -42.333 57 -55 79c-13.333 22.667 -25.666 42.667 -36.999 60c-11.333 16.667 -25.333 32.334 -42 47.001c-17.333 14 -41 28.667 -71 44l-241 -399l-137 -221l-70 -111c-14.667 -24 -27 -46.333 -37 -67v0z" />
    <glyph glyph-name="m" unicode="m" horiz-adv-x="710" 
d="M502 -178c-82 104 -141.001 198.998 -177.001 284.998s-54.333 160 -55 222c0 62.667 13 111.334 39 146.001c26.667 34 62 52.333 106 55c39.333 0 68 -15 86 -45c17.333 -30 26.333 -68.667 27 -116s-3.66602 -96.666 -12.999 -147.999c-9.33301 -52 -21 -99 -35 -141
h30c34.667 43.333 63.334 84.333 86.001 123c23.333 39.333 41.333 76.333 54 111c12 35.333 20.667 69.333 26 102c5.33301 32 8.33301 63.333 9 94l-81 115c-25.333 33.333 -49.333 62 -72 86c-23.333 24 -46.333 43.333 -69 58c-23.333 14.667 -47.666 25 -72.999 31
c-26 -2.66699 -46 -11.667 -60 -27l-50 -62c-19.333 -25.333 -50.333 -54.333 -93 -87c-42 -32.667 -104.333 -67.334 -187 -104.001c0 -62 10.333 -126.667 31 -194c21.333 -67.333 52.333 -133.666 93 -198.999c41.333 -66 91.666 -127 150.999 -183
c59.333 -56.667 127.666 -104.667 204.999 -144z" />
    <glyph glyph-name="n" unicode="n" horiz-adv-x="870" 
d="M3 430c15.333 -42.667 41.999 -84.6641 79.999 -125.997c38 -42 83 -86 135 -132c52 -46.667 106.333 -98.667 163 -156c56.667 -56.667 112 -122 166 -196c20.667 -6.66699 44.667 -11.334 72 -14.001c27.333 -3.33301 55.666 -5.33301 84.999 -6
c28.667 -0.666992 55.334 -1 80.001 -1c25.333 0 45.666 0.333008 60.999 1v30c-59.333 22 -113.666 52.667 -162.999 92c-49.333 38.667 -92.333 79.334 -129 122.001c-36.667 42 -65 79.333 -85 112c-20 32 -30 53 -30 63c0.666992 35.333 11.667 58.333 33 69
c21.333 11.333 47.333 16.333 78 15c31.333 -0.666992 61.666 -0.666992 90.999 0c30 1.33301 54.333 10.333 73 27c-6.66699 18 -13.667 34.333 -21 49c-8 14 -16.667 26.333 -26 37c-9.33301 10 -19.333 18.667 -30 26s-21.667 13.333 -33 18
c-39.333 -3.33301 -81.333 -6.33301 -126 -9c-45.333 -3.33301 -88 -5.33301 -128 -6c-40.667 -1.33301 -72.667 -1 -96 1c-24 2 -34 6.66699 -30 14c40.667 57.333 76.667 90.666 108 99.999c32 10 62 10 90 0c28.667 -10.667 58.334 -16 89.001 -16
c31.333 -0.666992 67.333 18 108 56c-14 25.333 -30.667 48.666 -50 69.999c-19.333 22 -40.666 42 -63.999 60c-23.333 17.333 -48 32 -74 44c-25.333 11.333 -51 20 -77 26l-154 -119c-46 -36.667 -84.667 -70.334 -116 -101.001c-32 -30.667 -55 -58.334 -69 -83.001
c-14 -25.333 -17.667 -47.666 -11 -66.999v0z" />
    <glyph glyph-name="o" unicode="o" horiz-adv-x="965" 
d="M0 778c88.667 -60 169.996 -103.336 243.996 -130.003c74 -26 138.333 -45.333 193 -58c54.667 -12 97 -27.333 127 -46s45.333 -50 46 -94c-1.33301 -34.667 -9.66602 -61.334 -24.999 -80.001c-16 -18.667 -34.333 -35.667 -55 -51
c-21.333 -15.333 -39.666 -35.666 -54.999 -60.999c-16 -25.333 -24.333 -61.333 -25 -108c-0.666992 -32.667 4.66602 -64.667 15.999 -96c12 -30.667 32 -60.667 60 -90c28 -30 66.333 -58.667 115 -86s110 -53.333 184 -78l22 22
c-96 102.667 -153.667 182.334 -173 239.001c-19.333 57.333 -15.666 100.333 11.001 129s61.334 52.667 104.001 72s78 43.666 106 72.999c-32 68.667 -54.333 120.334 -67 155.001c-12 34.667 -16 56.334 -12 65.001c4.66699 9.33301 15.667 10.333 33 3
c17.333 -6.66699 40.333 -16.667 69 -30l22 22c-25.333 40.667 -43.666 72.334 -54.999 95.001c-11.333 23.333 -18.333 41.666 -21 54.999c-2.66699 12.667 -4 24.334 -4 35.001c0.666992 10.667 0.666992 24 0 40c-82.667 -4.66699 -159.667 -8.66699 -231 -12
c-71.333 -2.66699 -140 -3.66699 -206 -3c-65.333 0 -131 3.33301 -197 10c-65.333 6 -133.333 16 -204 30z" />
    <glyph glyph-name="p" unicode="p" horiz-adv-x="705" 
d="M25 350l22.0029 -22.0029c42 17.333 80.333 37 115 59s66.667 40 96 54c30 13.333 59 16.333 87 9c27.333 -7.33301 55.666 -31.666 84.999 -72.999c22 -34.667 27 -75 15 -121s-38 -94 -78 -144c-40.667 -49.333 -92.334 -96.666 -155.001 -141.999
c-62.667 -44.667 -133.334 -83 -212.001 -115v-30c190 34.667 339.667 92.334 449 173.001c110 81.333 180.667 166.333 212 255c30.667 89.333 23 163.666 -23 222.999c-46.667 60 -131 86.333 -253 79c-24.667 0.666992 -40 13.334 -46 38.001c-5.33301 24 -7 52 -5 84
s3 60 3 84c-0.666992 24.667 -8 37.667 -22 39l-22 -22c-10 -33.333 -22 -69 -36 -107c-13.333 -38 -30.333 -76.333 -51 -115c-20.667 -38 -45.667 -75 -75 -111c-30 -35.333 -65.333 -67 -106 -95v0z" />
    <glyph glyph-name="q" unicode="q" horiz-adv-x="755" 
d="M0 330l0.000976562 -30.0029c77.333 -14.667 131.666 -42 162.999 -82c30.667 -39.333 42.334 -84.333 35.001 -135c-6.66699 -50 -27.667 -98.667 -63 -146c-36 -47.333 -81 -85.666 -135 -114.999l22 -22c64.667 22.667 125 54.334 181 95.001
c55.333 41.333 99.666 88 132.999 140c33.333 51.333 49.333 105 48 161s-26 110.667 -74 164c1.33301 0.666992 20.666 14.667 57.999 42c38 27.333 81.667 63 131 107c50 44.667 94.667 92.334 134 143.001c38.667 50.667 61 100 67 148h-20c-18 -14.667 -41 -28 -69 -40
c-27.333 -12.667 -57 -23.667 -89 -33c-31.333 -9.33301 -62.333 -16.333 -93 -21c-30 -4.66699 -56.333 -6.66699 -79 -6c-20 -31.333 -42.667 -64 -68 -98s-52.666 -68 -81.999 -102c-30 -34 -62 -65.667 -96 -95c-33.333 -29.333 -68 -54.333 -104 -75v0z" />
    <glyph glyph-name="r" unicode="r" horiz-adv-x="885" 
d="M0 800l-0.00195312 -30.002c46 -20 93.333 -42 142 -66c48 -24 92.667 -48.667 134 -74c40.667 -25.333 73.667 -50.333 99 -75c25.333 -24 38.666 -45.667 39.999 -65c-1.33301 -33.333 -13.666 -74.333 -36.999 -123c-23.333 -49.333 -52.666 -104.333 -87.999 -165
l-112 -193c-38 -68 -72.333 -137.667 -103 -209h50l162 180c54.667 62.667 111.667 124.334 171 185.001s121.333 117 186 169c64.667 51.333 133.334 95 206.001 131l-22 23c-23.333 -0.666992 -46.333 -3.66699 -69 -9c-22 -4.66699 -42 -7.66699 -60 -9s-32.333 3 -43 13
c-10.667 9.33301 -16 28.333 -16 57c0 36.667 8 62.334 24 77.001s36 22.667 60 24s48.333 0 73 -4c24 -4 45 -6.33301 63 -7c-4.66699 17.333 -9.66699 33.333 -15 48s-11 28 -17 40c-6.66699 12 -13.667 23 -21 33c-6.66699 10 -14 19.667 -22 29
c-72 -5.33301 -142 -7.33301 -210 -6s-134.333 4 -199 8c-65.333 4 -129.333 7.66699 -192 11c-62 4 -123.333 6.33301 -184 7v0z" />
    <glyph glyph-name="s" unicode="s" horiz-adv-x="1055" 
d="M315 315c-36 -116 -72.3359 -203.665 -109.003 -262.998c-37.333 -59.333 -71.666 -102 -102.999 -128l-75 -61c-19.333 -15.333 -28.666 -36.333 -27.999 -63h30l187 74c62.667 24 130.667 41.333 204 52c73.333 11.333 157.333 10.666 252 -2.00098
c95.333 -13.333 207 -43.666 335 -90.999l22 22c-3.33301 31.333 -30.666 59 -81.999 83c-51.333 23.333 -110.666 48.666 -177.999 75.999c-68 27.333 -127.667 63 -179 107c-51.333 43.333 -78.333 101.333 -81 174c1.33301 64 17 118.667 47 164
c30 44.667 65.333 82.667 106 114l111 83c32.667 23.333 53 46.333 61 69c-5.33301 6 -11.666 10 -18.999 12c-6.66699 2 -14 3 -22 3l-23 -2c-8 0 -15 0.666992 -21 2c-50.667 -25.333 -100.334 -40.666 -149.001 -45.999c-48 -5.33301 -94 -3 -138 7
c-43.333 9.33301 -83.333 22.666 -120 39.999c-36 18 -67 37.667 -93 59h-30c0.666992 -20.667 8.66699 -46.334 24 -77.001c15.333 -31.333 31.666 -67.333 48.999 -108c17.333 -41.333 29.333 -87 36 -137s2 -104.333 -14 -163v0z" />
    <glyph glyph-name="t" unicode="t" horiz-adv-x="935" 
d="M330 175c-36.667 0.666992 -61.6631 13 -74.9961 37c-12.667 23.333 -18 52.666 -16 87.999c1.33301 34.667 5.66602 69.334 12.999 104.001c8 34.667 14 63.334 18 86.001h-30c-32.667 -48.667 -64.334 -104.334 -95.001 -167.001s-57.667 -125.667 -81 -189
s-41 -120.333 -53 -171s-15.667 -88.334 -11 -113.001h30l236 142c73.333 42.667 143.666 78.667 210.999 108c68 30 137 52 207 66c70.667 14 146 18.667 226 14v30c-24 44 -39.333 92.667 -46 146s-7 107 -1 161c5.33301 54.667 15 106.334 29 155.001
s30 91.334 48 128.001c-46.667 3.33301 -93.334 -25.334 -140.001 -86.001s-94.667 -132.667 -144 -216c-49.333 -84 -101 -158 -155 -222s-111 -97.667 -171 -101v0z" />
    <glyph glyph-name="u" unicode="u" horiz-adv-x="1035" 
d="M0 -178l22.001 -21.999c76.667 58.667 154 112.667 232 162c78.667 48.667 158.667 90 240 124c81.333 34.667 164.666 60.334 249.999 77.001c86 16 174.667 21.667 266 17c-9.33301 18.667 -19.333 30.667 -30 36l-35 17c-13.333 6 -28.333 19.333 -45 40
c-16 20.667 -34.333 56.334 -55 107.001c-2 2 -4 4.33301 -6 7l-6 8l-5 5c-2 2 -3.66699 2.66699 -5 2c-20.667 -30.667 -52 -60.334 -94 -89.001c-42.667 -28 -87.667 -51.333 -135 -70c-46.667 -18.667 -86.667 -29.334 -120 -32.001
c-33.333 -2 -50.666 7.66699 -51.999 29c0.666992 8.66699 12 31 34 67c22.667 36 51.667 74 87 114c36 39.333 74.333 68.666 115 87.999c41.333 18.667 81 15.667 119 -9h30c-18.667 53.333 -28 97.333 -28 132c0.666992 35.333 4.66699 64 12 86
c7.33301 21.333 12.666 38.333 15.999 51c2.66699 12.667 -2.33301 23 -15 31c-99.333 -40 -186 -97 -260 -171c-73.333 -74 -139 -157.667 -197 -251c-58.667 -93.333 -114.667 -188.333 -168 -285s-109 -187 -167 -271v0z" />
    <glyph glyph-name="v" unicode="v" horiz-adv-x="1197" 
d="M675 220c-70.667 -12.667 -136.999 -22.332 -198.999 -28.999c-61.333 -6.66699 -116 -5 -164 5c-47.333 10 -84.333 33 -111 69c-27.333 36.667 -41 91.667 -41 165h-30c-39.333 -37.333 -65.666 -84 -78.999 -140c-14 -55.333 -21.667 -113.333 -23 -174
s-2.66602 -117.334 -3.99902 -170.001c-2 -52 -10 -93.333 -24 -124l22 -22c59.333 43.333 96 79.333 110 108c13.333 29.333 28.666 52.666 45.999 69.999c16.667 16.667 60 28.667 130 36s191.333 11 364 11c35.333 -22.667 66.333 -46.334 93 -71.001l76 -70
c24 -21.333 50.333 -39 79 -53c29.333 -14 64.333 -21 105 -21l22 22c-16.667 40.667 -34.667 93 -54 157c-20 64.667 -31.667 138.334 -35 221.001c-4 83.333 9.33301 173 40 269c30.667 95.333 88.667 195 174 299l-22 22c-59.333 -21.333 -113 -53.666 -161 -96.999
c-48.667 -43.333 -92.334 -93 -131.001 -149s-73 -113 -103 -171c-30.667 -58 -57.334 -112.333 -80.001 -163v0z" />
    <glyph glyph-name="w" unicode="w" horiz-adv-x="904" 
d="M325 -200l29.999 0.000976562c-30.667 98 -57.334 190.667 -80.001 278c-22 88 -39.333 167.333 -52 238c-12.667 71.333 -20 130.333 -22 177c-2.66699 46.667 1 78 11 94c16.667 24 51.334 41.667 104.001 53c52 10.667 112.667 20 182 28
c68.667 7.33301 137 18.333 205 33c68.667 14 127.667 37 177 69v30h-880c0 -133.333 8.33301 -252 25 -356c16 -104 38.667 -196 68 -276c30 -80 64.667 -150 104 -210c38.667 -60.667 81.334 -113.334 128.001 -158.001v0z" />
    <glyph glyph-name="x" unicode="x" horiz-adv-x="945" 
d="M656 681c-1.33301 -15.333 -12.334 -39 -33.001 -71c-20 -32.667 -45.667 -65.667 -77 -99c-32 -34 -64.333 -60.667 -97 -80c-33.333 -19.333 -62.666 -23 -87.999 -11c-2.66699 32.667 -4.33398 66.334 -5.00098 101.001c-0.666992 34 1 67 5 99
c4.66699 32 13.667 60.667 27 86c13.333 26 32.666 47.333 57.999 64c-52 24.667 -96.667 33 -134 25s-71.666 -24.667 -102.999 -50l-97 -74c-32.667 -24.667 -70 -41 -112 -49c8 -28.667 19.333 -43.667 34 -45c14 -2 30.333 2 49 12s38.667 18 60 24
c20.667 6.66699 42.334 4.66699 65.001 -6c26 -61.333 34.333 -109.666 25 -144.999c-8.66699 -36 -25 -65.667 -49 -89s-45.333 -47 -64 -71c-18.667 -24.667 -24.667 -55.667 -18 -93c7.33301 -37.333 20.333 -71.333 39 -102c18 -30.667 40.333 -60.667 67 -90l90 -97
c33.333 -34.667 69.333 -74.667 108 -120h365v30l-54 25c-16.667 7.33301 -34.334 17.666 -53.001 30.999c-19.333 13.333 -42.666 33.666 -69.999 60.999s-61.666 66 -102.999 116c-44 56 -48 113.333 -12 172c35.333 58.667 88 118 158 178s134.333 121 193 183
c58 62 88 125 90 189c-26 4.66699 -57 8 -93 10c-36.667 2 -72.334 3.33301 -107.001 4c-35.333 0.666992 -65 1 -89 1h-36c-12 -18 -16 -32.333 -12 -43c4.66699 -10.667 12.667 -19.667 24 -27l32 -23c10 -7.33301 15.667 -16 17 -26v0z" />
    <glyph glyph-name="y" unicode="y" horiz-adv-x="930" 
d="M0 415c2 -23.333 32.6719 -63.6641 92.0049 -120.997c60 -56.667 135 -119.334 225 -188.001c90 -68 181.333 -130.333 274 -187c93.333 -57.333 174.666 -97 243.999 -119l22 22c-94.667 127.333 -149.334 235.666 -164.001 324.999c-14 88.667 -6 166 24 232
c30.667 66.667 66 130 106 190s67.333 125.333 82 196c-20.667 12 -45.334 20.667 -74.001 26s-64 8.33301 -106 9c-42 1.33301 -92.667 1.66602 -152 0.999023c-60 -0.666992 -131 -1 -213 -1c-44 -12 -87 -30 -129 -54c-42.667 -24 -81.334 -53 -116.001 -87
s-62.334 -71.667 -83.001 -113c-21.333 -41.333 -32 -85 -32 -131v0zM551.005 642.002c2 -6 1.33105 -13.6719 -2.00195 -23.0049c-3.33301 -8.66699 -8 -19.334 -14 -32.001c-6.66699 -12.667 -13 -27 -19 -43c-6.66699 -16.667 -12 -34.667 -16 -54
c-4 -20.667 -5.33301 -41.667 -4 -63s3 -41.666 5 -60.999s1.66699 -36.666 -1 -51.999c-2 -15.333 -8.66699 -26.666 -20 -33.999c-10 -6 -24.333 -3.66699 -43 7c-18.667 10 -38 25.667 -58 47c-20 20.667 -36.667 44.334 -50 71.001
c-13.333 26 -19.666 52.667 -18.999 80c0.666992 30 10.334 58 29.001 84c18.667 25.333 41.667 46.333 69 63c26.667 16.667 53 26.334 79 29.001s47.333 -3.66602 64 -18.999v0z" />
    <glyph glyph-name="z" unicode="z" horiz-adv-x="325" 
d="M50 462c-0.666992 -12 1.33203 -28.666 5.99902 -49.999c4 -21.333 11 -43.666 21 -66.999c10 -24 24 -45 42 -63c18 -17.333 40.667 -28 68 -32c30 6.66699 47.667 15.334 53 26.001c5.33301 11.333 3.33301 23.666 -6 36.999c-8.66699 12.667 -18.667 26 -30 40
s-17.666 27.667 -18.999 41c-0.666992 28 9 58 29 90c20 31.333 37 64 51 98s12 69.333 -6 106c-17.333 36 -64 73.333 -140 112l-22 -22c34.667 -40 52.667 -75.667 54 -107c0.666992 -30.667 -7 -58.334 -23 -83.001c-16.667 -24.667 -33.667 -47.334 -51 -68.001
c-16.667 -20.667 -25.667 -40 -27 -58v0z" />
    <glyph glyph-name="braceleft" unicode="{" 
 />
    <glyph glyph-name="bar" unicode="|" 
 />
    <glyph glyph-name="braceright" unicode="}" 
 />
    <glyph glyph-name="asciitilde" unicode="~" 
 />
    <glyph glyph-name="uni007F" 
 />
    <glyph glyph-name="radical" 
 />
    <glyph glyph-name="macron" 
 />
    <glyph glyph-name="approxequal" 
 />
    <glyph glyph-name="notequal" 
 />
    <glyph glyph-name="guilsinglleft" 
 />
    <glyph glyph-name="guilsinglright" unicode="&#x85;" 
 />
    <glyph glyph-name="lessequal" 
 />
    <glyph glyph-name="greaterequal" 
 />
    <glyph glyph-name="guillemotleft" 
 />
    <glyph glyph-name="guillemotright" 
 />
    <glyph glyph-name="multiply" 
 />
    <glyph glyph-name="divide" 
 />
    <glyph glyph-name="plusminus" 
 />
    <glyph glyph-name="logicalnot" 
 />
    <glyph glyph-name="brokenbar" 
 />
    <glyph glyph-name="fraction" 
 />
    <glyph glyph-name="onequarter" 
 />
    <glyph glyph-name="onehalf" 
 />
    <glyph glyph-name="threequarters" 
 />
    <glyph glyph-name="onesuperior" 
 />
    <glyph glyph-name="twosuperior" 
 />
    <glyph glyph-name="threesuperior" 
 />
    <glyph glyph-name="pi" 
 />
    <glyph glyph-name="infinity" 
 />
    <glyph glyph-name="perthousand" 
 />
    <glyph glyph-name="mu" 
 />
    <glyph glyph-name="delta" 
 />
    <glyph glyph-name="degree" 
 />
    <glyph glyph-name="ordmasculine" 
 />
    <glyph glyph-name="Eth" 
 />
    <glyph glyph-name="Thorn" 
 />
    <glyph glyph-name="Oslash" 
 />
    <glyph glyph-name="currency" unicode="&#xa0;" 
 />
    <glyph glyph-name="yen" unicode="&#xa1;" 
 />
    <glyph glyph-name="cent" unicode="&#xa2;" 
 />
    <glyph glyph-name="sterling" unicode="&#xa3;" 
 />
    <glyph glyph-name="florin" unicode="&#xa4;" 
 />
    <glyph glyph-name="section" unicode="&#xa5;" 
 />
    <glyph glyph-name="quotesingle" unicode="&#xa6;" 
 />
    <glyph glyph-name="quotesinglbase" unicode="&#xa7;" 
 />
    <glyph glyph-name="quotedblbase" unicode="&#xa8;" 
 />
    <glyph glyph-name="quotedblleft" unicode="&#xa9;" 
 />
    <glyph glyph-name="quotedblright" unicode="&#xaa;" 
 />
    <glyph glyph-name="periodcentered" unicode="&#xab;" 
 />
    <glyph glyph-name="bullet" unicode="&#xac;" 
 />
    <glyph glyph-name="endash" unicode="&#xad;" 
 />
    <glyph glyph-name="emdash" unicode="&#xae;" 
 />
    <glyph glyph-name="ellipsis" unicode="&#xaf;" 
 />
    <glyph glyph-name="fi" unicode="&#xb0;" 
 />
    <glyph glyph-name="fl" unicode="&#xb1;" 
 />
    <glyph glyph-name="pt" unicode="&#xb2;" 
 />
    <glyph glyph-name="daggerdbl" unicode="&#xb3;" 
 />
    <glyph glyph-name="dagger" unicode="&#xb4;" 
 />
    <glyph glyph-name="paragraph" unicode="&#xb5;" 
 />
    <glyph glyph-name="trademark" unicode="&#xb6;" 
 />
    <glyph glyph-name="copyright" unicode="&#xb7;" 
 />
    <glyph glyph-name="registered" unicode="&#xb8;" 
 />
    <glyph glyph-name="questiondown" unicode="&#xb9;" 
 />
    <glyph glyph-name="exclamdown" unicode="&#xba;" 
 />
    <glyph glyph-name="germandbls" unicode="&#xbb;" 
 />
    <glyph glyph-name="ordfeminine" unicode="&#xbc;" 
 />
    <glyph glyph-name="eth" unicode="&#xbd;" 
 />
    <glyph glyph-name="thorn" unicode="&#xbe;" 
 />
    <glyph glyph-name="oslash" unicode="&#xbf;" 
 />
    <glyph glyph-name="Agrave" unicode="&#xc0;" 
 />
    <glyph glyph-name="Aacute" unicode="&#xc1;" 
 />
    <glyph glyph-name="Acircumflex" unicode="&#xc2;" 
 />
    <glyph glyph-name="Atilde" unicode="&#xc3;" 
 />
    <glyph glyph-name="Adieresis" unicode="&#xc4;" 
 />
    <glyph glyph-name="Aring" unicode="&#xc5;" 
 />
    <glyph glyph-name="AE" unicode="&#xc6;" 
 />
    <glyph glyph-name="Ccedilla" unicode="&#xc7;" 
 />
    <glyph glyph-name="Egrave" unicode="&#xc8;" 
 />
    <glyph glyph-name="Eacute" unicode="&#xc9;" 
 />
    <glyph glyph-name="Ecircumflex" unicode="&#xca;" 
 />
    <glyph glyph-name="Edieresis" unicode="&#xcb;" 
 />
    <glyph glyph-name="Igrave" unicode="&#xcc;" 
 />
    <glyph glyph-name="Iacute" unicode="&#xcd;" 
 />
    <glyph glyph-name="Icircumflex" unicode="&#xce;" 
 />
    <glyph glyph-name="Idieresis" unicode="&#xcf;" 
 />
    <glyph glyph-name="Lslash" unicode="&#xd0;" 
 />
    <glyph glyph-name="Ntilde" unicode="&#xd1;" 
 />
    <glyph glyph-name="Ograve" unicode="&#xd2;" 
 />
    <glyph glyph-name="Oacute" unicode="&#xd3;" 
 />
    <glyph glyph-name="Ocircumflex" unicode="&#xd4;" 
 />
    <glyph glyph-name="Otilde" unicode="&#xd5;" 
 />
    <glyph glyph-name="Odieresis" unicode="&#xd6;" 
 />
    <glyph glyph-name="OE" unicode="&#xd7;" 
 />
    <glyph glyph-name="Scaron" unicode="&#xd8;" 
 />
    <glyph glyph-name="Ugrave" unicode="&#xd9;" 
 />
    <glyph glyph-name="Uacute" unicode="&#xda;" 
 />
    <glyph glyph-name="Ucircumflex" unicode="&#xdb;" 
 />
    <glyph glyph-name="Udieresis" unicode="&#xdc;" 
 />
    <glyph glyph-name="Yacute" unicode="&#xdd;" 
 />
    <glyph glyph-name="Ydieresis" unicode="&#xde;" 
 />
    <glyph glyph-name="Zcaron" unicode="&#xdf;" 
 />
    <glyph glyph-name="agrave" unicode="&#xe0;" 
 />
    <glyph glyph-name="aacute" unicode="&#xe1;" 
 />
    <glyph glyph-name="acircumflex" unicode="&#xe2;" 
 />
    <glyph glyph-name="atilde" unicode="&#xe3;" 
 />
    <glyph glyph-name="adieresis" unicode="&#xe4;" 
 />
    <glyph glyph-name="aring" unicode="&#xe5;" 
 />
    <glyph glyph-name="ae" unicode="&#xe6;" 
 />
    <glyph glyph-name="ccedilla" unicode="&#xe7;" 
 />
    <glyph glyph-name="egrave" unicode="&#xe8;" 
 />
    <glyph glyph-name="eacute" unicode="&#xe9;" 
 />
    <glyph glyph-name="ecircumflex" unicode="&#xea;" 
 />
    <glyph glyph-name="edieresis" unicode="&#xeb;" 
 />
    <glyph glyph-name="igrave" unicode="&#xec;" 
 />
    <glyph glyph-name="iacute" unicode="&#xed;" 
 />
    <glyph glyph-name="icircumflex" unicode="&#xee;" 
 />
    <glyph glyph-name="idieresis" unicode="&#xef;" 
 />
    <glyph glyph-name="lslash" unicode="&#xf0;" 
 />
    <glyph glyph-name="ntilde" unicode="&#xf1;" 
 />
    <glyph glyph-name="ograve" unicode="&#xf2;" 
 />
    <glyph glyph-name="oacute" unicode="&#xf3;" 
 />
    <glyph glyph-name="ocircumflex" unicode="&#xf4;" 
 />
    <glyph glyph-name="otilde" unicode="&#xf5;" 
 />
    <glyph glyph-name="odieresis" unicode="&#xf6;" 
 />
    <glyph glyph-name="oe" unicode="&#xf7;" 
 />
    <glyph glyph-name="scaron" unicode="&#xf8;" 
 />
    <glyph glyph-name="ugrave" unicode="&#xf9;" 
 />
    <glyph glyph-name="uacute" unicode="&#xfa;" 
 />
    <glyph glyph-name="ucircumflex" unicode="&#xfb;" 
 />
    <glyph glyph-name="udieresis" unicode="&#xfc;" 
 />
    <glyph glyph-name="yacute" unicode="&#xfd;" 
 />
    <glyph glyph-name="ydieresis" unicode="&#xfe;" 
 />
    <glyph glyph-name="zcaron" unicode="&#xff;" 
 />
    <glyph glyph-name="glyph256" 
 />
    <glyph glyph-name="glyph257" 
 />
    <glyph glyph-name="glyph258" 
 />
    <glyph glyph-name="glyph259" 
 />
    <glyph glyph-name="glyph260" 
 />
    <glyph glyph-name="glyph261" 
 />
    <glyph glyph-name="glyph262" 
 />
    <glyph glyph-name="glyph263" 
 />
    <glyph glyph-name="glyph264" 
 />
    <glyph glyph-name="glyph265" 
 />
    <glyph glyph-name="glyph266" 
 />
    <glyph glyph-name="glyph267" 
 />
    <glyph glyph-name="glyph268" 
 />
    <glyph glyph-name="glyph269" 
 />
    <glyph glyph-name="glyph270" 
 />
    <glyph glyph-name="glyph271" 
 />
    <glyph glyph-name="glyph272" 
 />
    <glyph glyph-name="glyph273" 
 />
    <glyph glyph-name="glyph274" 
 />
    <glyph glyph-name="glyph275" 
 />
    <glyph glyph-name="glyph276" 
 />
    <glyph glyph-name="glyph277" 
 />
    <glyph glyph-name="glyph278" 
 />
    <glyph glyph-name="glyph279" 
 />
    <glyph glyph-name="glyph280" 
 />
    <glyph glyph-name="glyph281" 
 />
    <glyph glyph-name="glyph282" 
 />
    <glyph glyph-name="glyph283" 
 />
    <glyph glyph-name="glyph284" 
 />
    <glyph glyph-name="glyph285" 
 />
    <glyph glyph-name="glyph286" 
 />
    <glyph glyph-name="glyph287" 
 />
    <glyph glyph-name="glyph288" 
 />
    <glyph glyph-name="glyph289" 
 />
    <glyph glyph-name="glyph290" 
 />
    <glyph glyph-name="glyph291" 
 />
    <glyph glyph-name="glyph292" 
 />
    <glyph glyph-name="glyph293" 
 />
    <glyph glyph-name="glyph294" 
 />
    <glyph glyph-name="glyph295" 
 />
    <glyph glyph-name="glyph296" 
 />
    <glyph glyph-name="glyph297" 
 />
    <glyph glyph-name="glyph298" 
 />
    <glyph glyph-name="glyph299" 
 />
    <glyph glyph-name="glyph300" horiz-adv-x="675" 
d="M361 75l314 525l-25 25h-600l-25 -25l312 -525h24z" />
    <glyph glyph-name="glyph301" 
 />
    <glyph glyph-name="glyph302" horiz-adv-x="675" 
d="M337 625l-312 -525l25 -25h600l25 25l-314 525h-24z" />
    <glyph glyph-name="glyph303" 
 />
    <glyph glyph-name="glyph304" horiz-adv-x="770" 
d="M0 330c38.667 -26.667 90 -49.6641 154 -68.9971s133.333 -31 208 -35c75.333 -4.66699 148.666 1.66602 219.999 18.999c71.333 18 134 51 188 99c-2 16.667 -21.333 36.667 -58 60c-36 24 -87.667 42.667 -155 56s-147.666 13.666 -240.999 0.999023
c-94 -12.667 -199.333 -46.334 -316 -101.001v-30z" />
    <glyph glyph-name="glyph305" horiz-adv-x="930" 
d="M210 680c-38 -58.667 -70.6631 -129.332 -97.9961 -211.999c-26.667 -82.667 -48.334 -166.667 -65.001 -252s-28.667 -161 -36 -227c-8 -66.667 -11.667 -113 -11 -139l22 22c49.333 116 93.666 212.333 132.999 289s72.666 137 99.999 181
c27.333 43.333 48.333 74 63 92c14 18 21.333 27 22 27c1.33301 0.666992 21.666 13.667 60.999 39l153 91c61.333 36 125.333 71.333 192 106c66.667 34 128 61 184 81l-22 22c-58.667 -10.667 -117.334 -19.667 -176.001 -27l-177 -24
c-59.333 -8.66699 -117.666 -18.334 -174.999 -29.001c-58 -10.667 -114.667 -24 -170 -40v0z" />
    <glyph glyph-name="glyph306" horiz-adv-x="400" 
d="M1 350c2 -30.667 11.665 -63.999 28.998 -99.999c16.667 -36 39 -75 67 -117c28.667 -42 61.334 -86.667 98.001 -134l118 -149l22 22c-53.333 88 -95 170 -125 246s-45 149 -45 219s18.667 141 56 213c37.333 71.333 97 147.333 179 228l-22 22
c-46 -22.667 -92 -48.334 -138 -77.001c-45.333 -29.333 -87 -62.333 -125 -99c-37.333 -36.667 -66.666 -77.667 -87.999 -123c-21.333 -46 -30 -96.333 -26 -151v0z" />
    <glyph glyph-name="glyph307" horiz-adv-x="650" 
d="M32 265c8 -18.667 30.666 -47.667 67.999 -87c37.333 -38.667 84.666 -82 141.999 -130s119.333 -94.333 186 -139c66.667 -44 133.334 -80.333 200.001 -109l22 22c-74 52.667 -133.333 99.667 -178 141c-45.333 41.333 -78.333 78.666 -99 111.999
c-21.333 33.333 -33 64 -35 92c-2.66699 28 1.66602 55.667 12.999 83c4.66699 12.667 12.334 24.334 23.001 35.001c10.667 11.333 26.334 23.333 47.001 36c20 12.667 46.667 27.667 80 45l125 64l-22 22c-50.667 -8.66699 -96 -17 -136 -25
c-40 -7.33301 -74.667 -13 -104 -17c-30 -4 -55.333 -4.66699 -76 -2s-36.334 10 -47.001 22c-11.333 12 -17 33 -17 63c0 29.333 4.33301 62.333 13 99c8 37.333 20 73 36 107s34.667 61.667 56 83l-22 18c-45.333 -32.667 -89.666 -67 -132.999 -103
c-44 -36 -82 -75.333 -114 -118c-31.333 -42 -51 -89 -59 -141c-7.33301 -51.333 3 -109 31 -173v0z" />
    <glyph glyph-name="glyph308" horiz-adv-x="880" 
d="M285 702c1.33301 -2.66699 2 -5.33398 2 -8.00098c0.666992 -3.33301 0.666992 -6.33301 0 -9s-1.33398 -5 -2.00098 -7v-2c10.667 -15.333 23.667 -32.666 39 -51.999c14.667 -18.667 30.334 -37.334 47.001 -56.001c16.667 -19.333 33 -37.333 49 -54
c16.667 -16 32 -29 46 -39h30c-4 58 11.333 103.333 46 136c34.667 32 76 57 124 75c47.333 18 88.666 35 123.999 51c34.667 16 51 37 49 63c-51.333 0 -102 -1 -152 -3c-50.667 -2.66699 -100 -7 -148 -13c-48 -6.66699 -93.333 -16.667 -136 -30
c-43.333 -13.333 -82.666 -30.666 -117.999 -51.999v0zM125 730c36 -109.333 74.3311 -201.666 114.998 -276.999s78.334 -137.333 113.001 -186l78 -114c18 -26.667 22.333 -46 13 -58c-15.333 -18 -38.333 -31.667 -69 -41s-66 -11.666 -106 -6.99902
c-40 5.33301 -81.333 20.666 -124 45.999s-83.667 64 -123 116l-22 -22c18.667 -63.333 36 -115.333 52 -156c16 -40 31 -71.667 45 -95c13.333 -23.333 26 -41.333 38 -54s23.667 -23.334 35 -32.001h710c12.667 31.333 -6.66602 76.666 -57.999 135.999
c-52 58.667 -120.333 128 -205 208c-84.667 80.667 -170 168 -256 262c-86 94.667 -156.333 193.334 -211 296.001z" />
    <glyph glyph-name="glyph309" horiz-adv-x="495" 
d="M340 -200l22.001 22.002c-33.333 64 -53.333 117.333 -60 160c-6.66699 42 -2.33398 78 12.999 108c14.667 30 37.667 59 69 87l111 98l-22 22l-49 -21c-16.667 -7.33301 -32.667 -13.666 -48 -18.999c-14.667 -5.33301 -26.667 -7.33301 -36 -6
s-14.333 7.66602 -15 18.999s1.66602 21.666 6.99902 30.999s14 18.666 26 27.999c12 10 28 21.667 48 35l74 51l-22 22c-33.333 -11.333 -63 -20.666 -89 -27.999s-48.667 -12 -68 -14c-20 -2 -37 -1.33301 -51 2c-14.667 4 -26.334 11.667 -35.001 23
c-8 75.333 -3.33301 135 14 179c16.667 43.333 39.334 76 68.001 98c28 21.333 55.667 37 83 47c27.333 9.33301 48 18.333 62 27l-22 22c-37.333 4.66699 -77.666 6.66699 -120.999 6s-85.333 -5.33398 -126 -14.001c-40.667 -9.33301 -75.667 -24 -105 -44
c-30 -19.333 -49.667 -45.333 -59 -78c-16 -64 -12.333 -143.333 11 -238c23.333 -95.333 56.333 -190.333 99 -285c42 -95.333 83.667 -175.333 125 -240c42 -64.667 74 -98 96 -100v0z" />
    <glyph glyph-name="glyph310" horiz-adv-x="900" 
d="M455 500c-46 6 -87.3301 15.6641 -123.997 28.9971c-36 13.333 -70.333 30 -103 50c-32 20.667 -64.667 45 -98 73s-69.333 60.667 -108 98l-22 -22l51 -110c14.667 -29.333 26.667 -55.666 36 -78.999c8.66699 -23.333 15.667 -48.666 21 -75.999
c5.33301 -26.667 9.33301 -59.667 12 -99c1.33301 -95.333 0.666016 -166 -2.00098 -212s-5 -77 -7 -93c-2 -16.667 -1.33301 -27.667 2 -33c4 -4.66699 13.667 -13.334 29 -26.001c34 80.667 59.333 144.667 76 192c16 47.333 31.333 82.333 46 105
c14 22.667 35 37.334 63 44.001c27.333 6.66699 70 9.66699 128 9c54 -1.33301 95 -18 123 -50s49 -73.333 63 -124c14.667 -50.667 28.334 -104.667 41.001 -162c13.333 -57.333 32.666 -112 57.999 -164l22 22c0.666992 104 7.66699 187.667 21 251
c14 62.667 30 116.334 48 161.001c17.333 44 33 90.667 47 140c13.333 49.333 20.666 113 21.999 191c-30.667 -5.33301 -63.334 -15 -98.001 -29l-110 -44c-38 -15.333 -77 -27.666 -117 -36.999c-40 -8.66699 -80 -10.334 -120 -5.00098v0z" />
    <glyph glyph-name="glyph311" horiz-adv-x="705" 
d="M0 445l0.00292969 -30.0029c28.667 1.33301 55.334 3.33301 80.001 6s46.667 4.66699 66 6c18.667 1.33301 34.334 0.666016 47.001 -2.00098c12.667 -3.33301 21.667 -9.33301 27 -18c4 -9.33301 3.66699 -20.333 -1 -33c-4 -12 -8.66699 -25 -14 -39
c-5.33301 -13.333 -7 -26.666 -5 -39.999c2.66699 -13.333 12.667 -25 30 -35c-2.66699 6.66699 -2.33398 14.667 0.999023 24c2.66699 8.66699 7.66699 17.334 15 26.001c7.33301 8 16.333 14.667 27 20c11.333 4.66699 23.666 6.33398 36.999 5.00098
c16 -4 33.667 -24 53 -60l70 -135c27.333 -53.333 61 -108 101 -164c40.667 -55.333 90.334 -104 149.001 -146l22 22c-95.333 114 -154 222.333 -176 325c-21.333 102.667 -21.333 195.334 0 278.001c20.667 82.667 47.667 151.667 81 207
c33.333 56 57.666 94.667 72.999 116l-22 22c-62.667 -44.667 -112.334 -90.667 -149.001 -138c-36.667 -48 -68.334 -85.333 -95.001 -112s-55.334 -30.667 -86.001 -12s-71 72.667 -121 162c-26 -17.333 -47.667 -35.666 -65 -54.999c-18 -18.667 -34 -38.334 -48 -59.001
s-28.333 -43 -43 -67c-15.333 -23.333 -33.333 -48 -54 -74v0z" />
    <glyph glyph-name="glyph312" horiz-adv-x="980" 
d="M640 -120c23.333 0.666992 32.3301 9.33398 26.9971 26.001s-14.333 36 -27 58c-13.333 22 -18.666 41.333 -15.999 58s24 25.667 64 27c23.333 -0.666992 42.333 -8.66699 57 -24c14 -15.333 28.667 -34.333 44 -57c14.667 -22 35 -44 61 -66
c25.333 -21.333 61.333 -38.666 108 -51.999l22 22c-40 30 -75 61 -105 93c-30 31.333 -55 64.333 -75 99c-20 34 -35 71 -45 111c-10 39.333 -15 82.666 -15 129.999c0 60 7.66699 113.667 23 161s35 89.666 59 126.999c24.667 37.333 50.667 71 78 101l80 84l-25 22
c-55.333 -2 -96.666 -17 -123.999 -45s-49.333 -60.333 -66 -97c-16.667 -37.333 -35.667 -69.666 -57 -96.999c-22 -27.333 -54.667 -41 -98 -41c-24 1.33301 -36 12.666 -36 33.999c0 20.667 5.33301 46 16 76l30 86c8.66699 27.333 10.334 48.666 5.00098 63.999
c-25.333 -8 -49 -13.667 -71 -17c-22 -4 -43.333 -6 -64 -6c-21.333 0 -43 2 -65 6c-22 3.33301 -45.333 9 -70 17c-6 -15.333 -4.66699 -36.666 4 -63.999l30 -86c10.667 -30 16 -55.333 16 -76c0 -21.333 -11.667 -32.666 -35 -33.999c-44 0 -77 13.667 -99 41
c-21.333 27.333 -40.333 59.666 -57 96.999c-16.667 36.667 -38.667 69 -66 97s-68.333 43 -123 45l-25 -22l79 -84c27.333 -30 53.333 -63.667 78 -101c24 -37.333 43.667 -79.666 59 -126.999s23.333 -101 24 -161c-0.666992 -47.333 -6 -90.666 -16 -129.999
c-10 -40 -25 -77 -45 -111c-20 -34.667 -45 -67.667 -75 -99c-30 -32 -64.667 -63 -104 -93l22 -22c46 13.333 81.667 30.666 107 51.999c26 22 46.333 44 61 66c15.333 22.667 30 41.667 44 57c14.667 15.333 34 23.333 58 24c39.333 -1.33301 60.333 -10.333 63 -27
s-2.33301 -36 -15 -58c-13.333 -22 -22.666 -41.333 -27.999 -58s4 -25.334 28 -26.001c32 10 59.667 17.333 83 22c23.333 5.33301 45.666 8 66.999 8c20.667 0 42.667 -2.66699 66 -8c23.333 -4.66699 51.333 -12 84 -22v0z" />
    <glyph glyph-name="glyph313" horiz-adv-x="700" 
d="M350 800c-4.66699 10.667 -12.3291 11.3311 -22.9961 1.99805c-10 -8.66699 -22 -23 -36 -43l-44 -62c-14.667 -21.333 -28.334 -39 -41.001 -53c-16 -16 -35.333 -31 -58 -45l-68 -42c-22.667 -14.667 -41.667 -31 -57 -49c-15.333 -17.333 -23 -37.666 -23 -60.999
c48.667 20.667 88.667 33.334 120 38.001c32 4.66699 57 4.66699 75 0s31.333 -11 40 -19c9.33301 -7.33301 16 -13.333 20 -18c28 -30 44.667 -70.333 50 -121c5.33301 -51.333 2 -107 -10 -167c-11.333 -60 -28.333 -117.667 -51 -173
c-22.667 -54.667 -47.334 -100.334 -74.001 -137.001l22 -22c22.667 16 45 25.333 67 28c21.333 2.66699 44 1.66699 68 -3l79 -16c29.333 -6 63.333 -9 102 -9l22 22c-27.333 36.667 -52.333 82.334 -75 137.001c-22.667 55.333 -39.667 113 -51 173
c-12 60 -15.333 115.667 -10 167c5.33301 50.667 22.333 91 51 121c3.33301 4.66699 9.66602 10.667 18.999 18c8.66699 8 22 14.333 40 19s43 4.66699 75 0c31.333 -4.66699 71.666 -17.334 120.999 -38.001c-1.33301 28.667 -16.333 54.334 -45 77.001
c-29.333 22.667 -64.333 45.667 -105 69s-79.667 51 -117 83c-37.333 32.667 -65 74 -83 124v0z" />
    <glyph glyph-name="glyph314" 
 />
    <glyph glyph-name="glyph315" 
 />
    <glyph glyph-name="glyph316" horiz-adv-x="1151" 
d="M651 333c6.66699 -10 12.668 -19.668 18.001 -29.001c4.66699 -9.33301 8.66699 -18.666 12 -27.999s5.66602 -19.333 6.99902 -30c2 -10.667 3.33301 -22 4 -34c2.66699 6 5.33398 11.667 8.00098 17c2.66699 6 5 11.667 7 17c2 4.66699 4 10 6 16l7 18
c7.33301 -9.33301 14.333 -19 21 -29c6 -10 11.333 -21 16 -33c4.66699 -12.667 8 -26.667 10 -42c1.33301 -15.333 1.33301 -32.333 0 -51c-2.66699 -19.333 -7.33398 -37 -14.001 -53c-6.66699 -15.333 -14.667 -28.666 -24 -39.999c-8.66699 -12 -17.334 -22 -26.001 -30
c-9.33301 -8 -17 -14 -23 -18c-11.333 0 -21.333 0.666992 -30 2c-8.66699 0.666992 -17 2.33398 -25 5.00098c-8 2 -15.667 4.66699 -23 8c-8 3.33301 -16.333 7.66602 -25 12.999c3.33301 -6 6.66602 -11.333 9.99902 -16s6.66602 -9 9.99902 -13
c2.66699 -4 5.66699 -8 9 -12c3.33301 -4.66699 7 -9.33398 11 -14.001c-11.333 -4 -23.666 -6.33301 -36.999 -7s-26.666 0 -39.999 2c-14 2.66699 -27.667 6.33398 -41 11.001c-12.667 4.66699 -24.334 10.667 -35.001 18c-10.667 6.66699 -20.667 14.334 -30 23.001
c-8.66699 8 -16.667 17.333 -24 28c-8 10.667 -15 22 -21 34c-6 12.667 -11 26.667 -15 42c4.66699 11.333 10 21.666 16 30.999c5.33301 9.33301 11.666 18 18.999 26c6.66699 8 14.334 15.333 23.001 22c8.66699 7.33301 18.667 14.666 30 21.999
c-9.33301 -1.33301 -17.666 -2.33301 -24.999 -3c-8 -0.666992 -15.333 -1.66699 -22 -3c-7.33301 -0.666992 -14 -1.66699 -20 -3c-6.66699 -1.33301 -13 -2.33301 -19 -3c2.66699 13.333 7.33398 26.333 14.001 39c6 12 13 23.667 21 35
c8.66699 11.333 18.334 21.333 29.001 30c10 9.33301 21.333 17.333 34 24c11.333 6 23.666 11.333 36.999 16s27.333 7.66699 42 9c14 0.666992 29.333 0 46 -2c16 -2.66699 33.333 -7.66699 52 -15v0zM347.001 189.999c-18 -6.66699 -34.334 -13.3291 -49.001 -19.9961
c-15.333 -6 -29.666 -12.333 -42.999 -19s-26.666 -14.667 -39.999 -24c-13.333 -8.66699 -27.333 -18.667 -42 -30c-20.667 -18.667 -40 -38.667 -58 -60c-17.333 -21.333 -33.333 -44 -48 -68c-14.667 -24.667 -27.334 -50.334 -38.001 -77.001
c-10.667 -26 -19.334 -53 -26.001 -81c11.333 10 23 19.333 35 28c12 9.33301 24.667 17.666 38 24.999c12.667 8 26.334 15.333 41.001 22c14 7.33301 29.333 14 46 20c15.333 6 31.333 10.667 48 14c16 4 32.333 7 49 9c17.333 1.33301 34.666 2 51.999 2
c17.333 -0.666992 35.666 -2 54.999 -4c-4 10.667 -7 21.334 -9 32.001c-2 10 -3.66699 20 -5 30c-0.666992 10.667 -0.666992 21.667 0 33c0.666992 12 2.33398 25 5.00098 39c8 -17.333 16.667 -33 26 -47c10 -14 20.667 -26.333 32 -37
c10.667 -11.333 22.334 -21 35.001 -29c12 -8 24.667 -14.667 38 -20c12.667 -5.33301 25.667 -9.66602 39 -12.999c13.333 -2.66699 26.666 -4.33398 39.999 -5.00098c14 -0.666992 27.667 0 41 2c14 2 27.667 5.66699 41 11c6.66699 -8 15.667 -17 27 -27
c12 -9.33301 25.667 -19.333 41 -30c15.333 -10 31.666 -19.667 48.999 -29s35.333 -17 54 -23c25.333 -9.33301 51.333 -16.333 78 -21c27.333 -4.66699 55 -7.33398 83 -8.00098c28 0 56 2 84 6c28 4.66699 56.333 11.334 85 20.001c-15.333 4 -30.333 8.66699 -45 14
c-14 6 -27.667 12.333 -41 19c-13.333 7.33301 -26.666 15.666 -39.999 24.999c-13.333 8.66699 -26.666 18.667 -39.999 30c-12 10.667 -23.667 22.334 -35 35.001c-10.667 12.667 -20.667 26 -30 40s-18.333 28.667 -27 44c-8.66699 16 -16.667 33 -24 51
c-10 -10 -19.333 -18.667 -28 -26s-17.334 -14 -26.001 -20s-17.667 -11 -27 -15c-10 -4.66699 -20.667 -8.33398 -32 -11.001c6.66699 8.66699 13.334 18 20.001 28c6 10 11.667 20.667 17 32c5.33301 12 9.33301 24.667 12 38s4.33398 28 5.00098 44
c0 16.667 -1.33301 33 -4 49c-2.66699 15.333 -7.33398 30.333 -14.001 45s-15 29 -25 43c-10 13.333 -22 27 -36 41c4 15.333 7 30.333 9 45c2.66699 15.333 4.33398 31 5.00098 47s0.666992 33.333 0 52c-0.666992 18 -2.33398 38 -5.00098 60
c-5.33301 26.667 -13 53 -23 79c-9.33301 26 -21 51.333 -35 76s-29.667 48.334 -47 71.001c-18 23.333 -37.333 45.333 -58 66c2.66699 -15.333 5 -30.666 7 -45.999c2.66699 -14.667 4.33398 -29.667 5.00098 -45c0 -15.333 -0.333008 -31 -1 -47
s-2.33398 -32.333 -5.00098 -49c-3.33301 -17.333 -7.66602 -34 -12.999 -50c-4.66699 -16.667 -10.667 -32.667 -18 -48c-7.33301 -16 -15.666 -31.667 -24.999 -47s-19.666 -30.333 -30.999 -45c15.333 -4 29 -8 41 -12c11.333 -4.66699 21.666 -9.33398 30.999 -14.001
l25 -16l24 -19c-18 1.33301 -34.667 1.66602 -50 0.999023s-29.666 -2.33398 -42.999 -5.00098s-26.333 -7 -39 -13c-12.667 -5.33301 -24.667 -12 -36 -20c-12.667 -8.66699 -24.334 -18.334 -35.001 -29.001c-11.333 -11.333 -21.333 -23.333 -30 -36
s-16.334 -26 -23.001 -40s-11.334 -28.333 -14.001 -43v0z" />
    <glyph glyph-name="glyph317" 
 />
    <glyph glyph-name="glyph318" horiz-adv-x="822" 
d="M284 391l-6 -18.002c-2 -6 -4 -11.667 -6 -17l-6 -18c-2 -6 -4 -11.667 -6 -17c-2.66699 -6.66699 -5.33398 -13 -8.00098 -19c-2.66699 -6.66699 -5 -13 -7 -19c-2.66699 -6.66699 -5.33398 -13 -8.00098 -19c-2.66699 -6.66699 -5 -13 -7 -19l130 -217l129 217
c-3.33301 5.33301 -6.33301 11 -9 17c-2 5.33301 -4.33301 11 -7 17s-5 12.333 -7 19c-2 6 -3.66699 12.333 -5 19c-2.66699 5.33301 -5.33398 11 -8.00098 17c-2 6 -4 12.333 -6 19c-2 6 -4 12.333 -6 19c-1.33301 6 -2.66602 12.333 -3.99902 19
c14.667 -4.66699 28.667 -10 42 -16s26 -13 38 -21c12 -7.33301 23.333 -16 34 -26c10.667 -9.33301 20.667 -19.666 30 -30.999c8.66699 -12 16.334 -24.333 23.001 -37s12.334 -25.334 17.001 -38.001c4 -13.333 7.33301 -27 10 -41s4.33398 -28.333 5.00098 -43
c-0.666992 -7.33301 -1 -13.333 -1 -18c-0.666992 -5.33301 -1.33398 -10 -2.00098 -14c-0.666992 -4.66699 -1.33398 -9 -2.00098 -13c-1.33301 -4.66699 -2.33301 -9.66699 -3 -15l-18 12l-16 14c-6 4 -11.333 8.33301 -16 13c-5.33301 5.33301 -10.333 10.666 -15 15.999
c-5.33301 4.66699 -10.333 9.66699 -15 15s-9 11 -13 17c-4.66699 6 -9 12 -13 18s-7.66699 12.333 -11 19l-136 -229l22 -2c7.33301 -0.666992 14.666 -1.66699 21.999 -3c7.33301 -0.666992 14.333 -1.66699 21 -3c7.33301 -1.33301 14.666 -2.33301 21.999 -3
c6.66699 -2 13.334 -3.66699 20.001 -5s13.334 -3 20.001 -5c7.33301 -1.33301 14.333 -3 21 -5s13.334 -3.66699 20.001 -5c-6.66699 -6 -13.334 -11.333 -20.001 -16c-7.33301 -5.33301 -14.333 -10 -21 -14c-7.33301 -4.66699 -14.666 -8.66699 -21.999 -12
s-14.666 -6.33301 -21.999 -9c-8 -3.33301 -16 -6 -24 -8l-24 -6c-8.66699 -1.33301 -17.334 -2.33301 -26.001 -3c-8 -0.666992 -16.333 -1 -25 -1c-9.33301 0 -18.333 0.333008 -27 1s-17.334 1.66699 -26.001 3l-24 6c-8 2 -15.667 4.66699 -23 8
c-8 2.66699 -15.667 5.66699 -23 9c-8 3.33301 -15.333 7.33301 -22 12l-21 14c-7.33301 5.33301 -14 11 -20 17c5.33301 2.66699 11 5 17 7c6 2.66699 12.333 5 19 7c6 2 12.333 3.66699 19 5c6 1.33301 12.667 3 20 5c6.66699 1.33301 13.334 2.33301 20.001 3
c6.66699 1.33301 13.667 2.33301 21 3s15.666 1.33398 24.999 2.00098c8.66699 0 18.667 0.333008 30 1l-136 226c-4 -5.33301 -7.66699 -10.666 -11 -15.999c-4 -5.33301 -8 -10.333 -12 -15c-4 -5.33301 -8.33301 -10.333 -13 -15c-4 -5.33301 -8.33301 -10.333 -13 -15
c-5.33301 -5.33301 -10.666 -10.333 -15.999 -15c-5.33301 -5.33301 -11 -10.333 -17 -15c-5.33301 -5.33301 -11.333 -10.333 -18 -15l-18 -14c-2 5.33301 -3.33301 10.333 -4 15c-1.33301 4 -2 8 -2 12c-0.666992 4 -1 8 -1 12v16c-0.666992 14.667 0.333008 28.667 3 42
c2 14 5.33301 27.667 10 41c4 13.333 9.66699 26 17 38c6.66699 12.667 15 25 25 37c8.66699 10.667 18 21 28 31c10.667 10 22 19 34 27s25 15 39 21c14 6.66699 29 12.334 45 17.001v0zM360 837.998c-1.33301 -18.667 -2.99707 -36.9971 -4.99707 -54.9971l-6 -54
c-2 -18 -4.33301 -36 -7 -54c-2 -17.333 -4.33301 -34.666 -7 -51.999l-10 -54l-10 -52c-4 -17.333 -8.33301 -34.333 -13 -51c-4 -17.333 -8.33301 -34.333 -13 -51c-18 -5.33301 -35 -11.333 -51 -18s-31 -14.334 -45 -23.001s-27.333 -18.334 -40 -29.001
c-12 -10.667 -23 -22 -33 -34c-10 -12.667 -19 -26 -27 -40c-7.33301 -14 -13.333 -28.333 -18 -43c-5.33301 -15.333 -9.33301 -31 -12 -47c-2 -16.667 -3 -33.334 -3 -50.001c0 -8 0.333008 -14.667 1 -20c0 -4.66699 0.333008 -9.33398 1 -14.001s1.66699 -9.66699 3 -15
l5 -17l-17 -19c-5.33301 -6.66699 -10 -13.334 -14 -20.001c-4.66699 -6.66699 -8.66699 -13.667 -12 -21c-3.33301 -6.66699 -6.33301 -13.334 -9 -20.001c-3.33301 -7.33301 -6 -15 -8 -23c-2.66699 -7.33301 -4.66699 -15 -6 -23
c-1.33301 -7.33301 -2.33301 -15.333 -3 -24c-0.666992 -8 -1 -16 -1 -24v-13c0.666992 -4.66699 1 -8.66699 1 -12c0.666992 -4 1.33398 -7.66699 2.00098 -11c0.666992 -4 1.66699 -7.33301 3 -10c0.666992 -4 2 -7.66699 4 -11
c1.33301 -3.33301 2.66602 -6.33301 3.99902 -9c2 -3.33301 3.66699 -6.33301 5 -9c2 -3.33301 4 -6 6 -8c2.66699 6.66699 5.66699 13 9 19s7 12 11 18s8.66699 11.667 14 17c4.66699 5.33301 9.66699 10.666 15 15.999c4.66699 4.66699 9.66699 9.33398 15 14.001
c6 5.33301 12 10 18 14l20 14c6.66699 4 14 8 22 12c6.66699 -6.66699 14 -13 22 -19l23 -16l25 -14c8.66699 -4 17.667 -7.66699 27 -11c8.66699 -3.33301 17.334 -6.33301 26.001 -9c9.33301 -2 19 -3.66699 29 -5c9.33301 -2 19 -3.33301 29 -4
c9.33301 -0.666992 19.333 -1 30 -1c9.33301 0 19 0.333008 29 1c9.33301 0.666992 19 2 29 4l27 6c9.33301 2.66699 18.666 5.66699 27.999 9c8.66699 3.33301 17 7.33301 25 12c8.66699 4.66699 17 9.66699 25 15c8.66699 5.33301 16.667 11 24 17c8 6 16 12.667 24 20
c5.33301 -1.33301 10 -2.66602 14 -3.99902c4.66699 -0.666992 9 -1 13 -1c3.33301 -0.666992 7.33301 -1 12 -1c5.33301 -0.666992 11.333 -0.666992 18 0c10.667 0 21 0.333008 31 1c10 1.33301 20 3 30 5c9.33301 2 18.666 4.66699 27.999 8
c8.66699 3.33301 17.667 7.33301 27 12c8.66699 4 16.667 8.66699 24 14c7.33301 4.66699 14.333 10 21 16s12.667 12 18 18c5.33301 6.66699 10.333 14 15 22c-10 -1.33301 -19 -2 -27 -2s-15.333 0.666992 -22 2c-7.33301 0.666992 -14.666 1.66699 -21.999 3
s-15.333 3.33301 -24 6c-6.66699 1.33301 -13.334 3 -20.001 5s-13.334 4.33301 -20.001 7s-13 5.66699 -19 9c-6.66699 2.66699 -13 6 -19 10c1.33301 6.66699 2.66602 12.667 3.99902 18c1.33301 4.66699 2.33301 9.66699 3 15c0.666992 4.66699 1.33398 10 2.00098 16
c0 6 0.333008 13.333 1 22c0 16 -1.33301 31.667 -4 47s-6.66699 30.333 -12 45s-12 29 -20 43c-8 13.333 -17 26.666 -27 39.999c-10.667 12 -22.334 23.333 -35.001 34c-12 10.667 -25 20.334 -39 29.001s-28.667 16 -44 22c-16 6.66699 -32.333 12.334 -49 17.001
c-4.66699 16 -9 32.667 -13 50c-4.66699 16.667 -8.66699 33.667 -12 51c-4 16.667 -7.66699 33.667 -11 51l-8 53c-3.33301 17.333 -6.33301 35 -9 53c-2.66699 17.333 -5 35.333 -7 54c-2 18 -3.66699 36.333 -5 55c-2 18 -3.33301 36.667 -4 56v0z" />
    <glyph glyph-name="glyph319" 
 />
    <glyph glyph-name="glyph320" 
 />
    <glyph glyph-name="glyph321" 
 />
    <glyph glyph-name="glyph322" 
 />
    <glyph glyph-name="glyph323" 
 />
    <glyph glyph-name="glyph324" 
 />
    <glyph glyph-name="glyph325" 
 />
    <glyph glyph-name="glyph326" 
 />
    <glyph glyph-name="glyph327" 
 />
    <glyph glyph-name="glyph328" 
 />
    <glyph glyph-name="glyph329" 
 />
    <glyph glyph-name="glyph330" 
 />
    <glyph glyph-name="glyph331" 
 />
    <glyph glyph-name="glyph332" 
 />
    <glyph glyph-name="glyph333" 
 />
    <glyph glyph-name="glyph334" 
 />
    <glyph glyph-name="glyph335" 
 />
    <glyph glyph-name="glyph336" 
 />
    <glyph glyph-name="glyph337" 
 />
    <glyph glyph-name="glyph338" 
 />
    <glyph glyph-name="glyph339" 
 />
    <glyph glyph-name="glyph340" 
 />
    <glyph glyph-name="glyph341" 
 />
    <glyph glyph-name="glyph342" 
 />
    <glyph glyph-name="glyph343" 
 />
    <glyph glyph-name="glyph344" 
 />
    <glyph glyph-name="glyph345" 
 />
    <glyph glyph-name="glyph346" 
 />
    <glyph glyph-name="glyph347" 
 />
    <glyph glyph-name="glyph348" 
 />
    <glyph glyph-name="glyph349" 
 />
    <glyph glyph-name="glyph350" 
 />
    <glyph glyph-name="glyph351" 
 />
    <glyph glyph-name="glyph352" 
 />
    <glyph glyph-name="glyph353" horiz-adv-x="1000" 
d="M0 10l-0.000976562 -30.002c174.667 -1.33301 317.667 -1.66602 429 -0.999023c110.667 0.666992 199 -3 265 -11c66 -7.33301 119.667 -24 161 -50c40.667 -26 79 -65.333 115 -118h30c-14 105.333 -48 184.333 -102 237c-53.333 52 -112.666 88.333 -177.999 109
s-122.333 35.667 -171 45c-48 9.33301 -73 23.666 -75 42.999c0.666992 9.33301 14.667 16.333 42 21c28 4.66699 62.667 8.33398 104 11.001l127 6c42.667 2 80.334 4.66699 113.001 8v30c-112 28.667 -186.333 64 -223 106s-43.334 85.667 -20.001 131
c22.667 45.333 67 87.666 133 126.999s146 71.333 240 96v30h-93h-88h-90h-99c-25.333 -15.333 -62 -59.333 -110 -132l-161 -248c-60 -93.333 -120.333 -178.666 -181 -255.999c-61.333 -77.333 -117.333 -128.666 -168 -153.999v0z" />
    <glyph glyph-name="glyph354" horiz-adv-x="980" 
d="M5 561c10 -15.333 22.334 -31.0029 37.001 -47.0029c14 -15.333 27.667 -31.333 41 -48c13.333 -17.333 23.666 -35.666 30.999 -54.999c7.33301 -20 9.66602 -41.333 6.99902 -64c34 -6 59.333 -2 76 12c16 14 28.667 30.667 38 50c9.33301 20 21 36 35 48
s35.667 13.667 65 5l98 -192c32 -61.333 66.667 -120 104 -176c36.667 -55.333 80 -107.666 130 -156.999s110 -95 180 -137v30c-34 38.667 -67.333 79 -100 121c-33.333 42.667 -63.333 88 -90 136c-27.333 48 -49.333 100 -66 156c-16.667 56.667 -25 118.667 -25 186
c0.666992 37.333 15.334 74.666 44.001 111.999c28.667 38 65 73 109 105c44 32.667 89.333 60 136 82s88.334 36 125.001 42v30c-30.667 0.666992 -65 -0.333008 -103 -3c-37.333 -2.66699 -73.333 -6 -108 -10c-34.667 -4.66699 -63.334 -8.66699 -86.001 -12
s-34.334 -5 -35.001 -5c-18 -17.333 -37.333 -34.666 -58 -51.999c-21.333 -16.667 -42.666 -31.667 -63.999 -45s-41.333 -22.666 -60 -27.999c-19.333 -6 -35.333 -6.33301 -48 -1c-18.667 8 -32 22 -40 42l-25 62c-8.66699 22 -23 41 -43 57
c-19.333 15.333 -50 23.666 -92 24.999c-9.33301 -27.333 -21.333 -54.333 -36 -81s-31.667 -52 -51 -76c-18.667 -24.667 -39 -46.667 -61 -66c-21.333 -19.333 -43 -34.666 -65 -45.999v0z" />
    <glyph glyph-name="glyph355" horiz-adv-x="1100" 
d="M0 130v-29.9971c78.667 45.333 149 90.666 211 135.999c61.333 45.333 113.333 79.666 156 102.999c42.667 22.667 75 22.667 97 0s32.333 -79 31 -169c1.33301 -5.33301 19.333 -7.33301 54 -6c34.667 0.666992 75 2.33398 121 5.00098s86.667 4.33398 122 5.00098
s54.666 -1.33301 57.999 -6c15.333 -68 19.333 -119.333 12 -154c-8 -35.333 -31.667 -58.333 -71 -69s-98.666 -12.667 -177.999 -6c-79.333 6 -183 17 -311 33l-22 -22c54 -36.667 103 -65.334 147 -86.001c43.333 -20.667 82.333 -35.667 117 -45
c34 -9.33301 64.333 -15 91 -17c26 -2 49.333 -2.66699 70 -2c128 -0.666992 214 19 258 59c44.667 39.333 68 99.666 70 180.999c1.33301 82 2.33301 186 3 312c1.33301 126 22.666 275.333 63.999 448h-30l-70 -139c-26.667 -54.667 -56 -109 -88 -163
c-32 -54.667 -65.333 -100.334 -100 -137.001c-34.667 -36 -69.667 -54.667 -105 -56c-28.667 2 -58 26 -88 72s-60.667 100 -92 162c-32 62 -64.333 118 -97 168c-32.667 50.667 -66 81.667 -100 93c-14 -61.333 -31.333 -122.333 -52 -183
c-21.333 -60.667 -45.666 -120 -72.999 -178c-28 -58 -59 -113 -93 -165c-34.667 -52.667 -72 -100.667 -112 -144v0z" />
    <glyph glyph-name="glyph356" horiz-adv-x="825" 
d="M465 241c40 -32 70.0059 -65.668 90.0059 -101.001c20 -34.667 27 -68.334 21 -101.001c-6.66699 -32.667 -29.334 -60.667 -68.001 -84c-38.667 -24 -96.334 -40.667 -173.001 -50v-80c42.667 -6 96.334 -3 161.001 9c65.333 12.667 127.666 32.334 186.999 59.001
c59.333 26 101.666 56.667 126.999 92s20.333 73.333 -15 114c-28 26.667 -68.333 63 -121 109c-52.667 46.667 -108.334 101.334 -167.001 164.001c-58.667 62 -110.667 131 -156 207c-46 76 -75.667 157 -89 243l-17 -22c-28.667 -51.333 -40.334 -104.333 -35.001 -159
c6 -54 22.667 -106.667 50 -158c27.333 -50.667 59.666 -97 96.999 -139s73.333 -76.333 108 -103v0zM245.006 -200.001l-0.00195312 134.999c-66 -1.33301 -102 6.66699 -108 24c-5.33301 18 4.66699 44 30 78c24.667 34 50.334 74.333 77.001 121
s39.334 98.334 38.001 155.001l-22 27c-6 -45.333 -34 -95.666 -84 -150.999c-49.333 -55.333 -94.333 -110 -135 -164c-41.333 -54 -51.333 -101.333 -30 -142c20.667 -40.667 98.667 -68.334 234 -83.001v0z" />
    <glyph glyph-name="glyph357" horiz-adv-x="669" 
d="M229 -30c-27.333 42.667 -45.001 85.335 -53.001 128.002c-8 43.333 -9.33301 89 -4 137c5.33301 48.667 14.666 102.667 27.999 162c14 59.333 29 127 45 203c32 5.33301 64.333 9.33301 97 12c32.667 3.33301 66 5.33301 100 6c34 1.33301 68 2 102 2h105
c2 22.667 4.66699 40 8 52c3.33301 11.333 6 21 8 29c2.66699 8 4 18.333 4 31c0 13.333 -1.66699 32.666 -5 57.999c-29.333 6.66699 -59.666 10.667 -90.999 12c-30.667 0.666992 -68.667 0 -114 -2c-44.667 -2 -102 -4 -172 -6c-69.333 -2.66699 -157 -4 -263 -4
c-15.333 -128.667 -23.666 -230.334 -24.999 -305.001c-0.666992 -75.333 3 -141 11 -197c8.66699 -56 20 -119.333 34 -190c14 -71.333 29 -167.333 45 -288h30z" />
    <glyph glyph-name="glyph358" horiz-adv-x="1075" 
d="M0 768l125.001 -82.998c37.333 -24 69.333 -45.333 96 -64s47.334 -35.667 62.001 -51c14 -14.667 21.333 -28 22 -40c-1.33301 -30.667 -11.333 -56.334 -30 -77.001s-40.334 -39.667 -65.001 -57c-25.333 -16.667 -47.333 -35.667 -66 -57
s-28.334 -47.666 -29.001 -78.999c0 -17.333 20 -50 60 -98c40 -47.333 95.333 -99 166 -155c71.333 -56 154 -104 248 -144c94 -40.667 196 -61.667 306 -63v30c-129.333 64.667 -233.333 131 -312 199c-79.333 68 -129.666 131 -150.999 189s-9.66602 105 35.001 141
c44 36 125 54.667 243 56c-34 78 -41 134.667 -21 170c20 36 51.333 52.333 94 49c42 -4 80 -25.667 114 -65c33.333 -39.333 47 -95 41 -167l22 -22c28.667 65.333 52.667 122.666 72 171.999c20 48.667 33.333 89.667 40 123s4.66699 59.666 -6 78.999
c-10 19.333 -30.333 33 -61 41c-82 -10 -165 -15.667 -249 -17c-84.667 -2 -169.334 -1.33301 -254.001 2c-85.333 2.66699 -170 5.66699 -254 9c-84.667 3.33301 -167.334 5.33301 -248.001 6v-27z" />
    <glyph glyph-name="glyph359" horiz-adv-x="1140" 
d="M598 607c-2 -28.667 -7.32812 -65.666 -15.9951 -110.999s-19.334 -93.333 -32.001 -144l-35 -143c-12 -44 -21 -79 -27 -105c-57.333 -18.667 -112.333 -39 -165 -61c-53.333 -22 -102 -45.667 -146 -71c-44 -26 -81.333 -53.333 -112 -82
c-31.333 -28.667 -53 -58.667 -65 -90h30c36 25.333 94 52.666 174 81.999c79.333 29.333 170.666 55 273.999 77c102.667 21.333 208 32.666 316 33.999c107.333 1.33301 207.666 -13 300.999 -43l22 22c-45.333 35.333 -86 62.333 -122 81
c-36.667 19.333 -70.334 33.333 -101.001 42s-60 14.667 -88 18c-28.667 3.33301 -57 7.33301 -85 12c3.33301 38 9 79.667 17 125c7.33301 46 15.666 92 24.999 138c9.33301 46.667 18.666 90 27.999 130s18 73.667 26 101l102 14c30 4.66699 57 8 81 10s47 2 69 0
c22.667 -1.33301 46.334 -5.66602 71.001 -12.999v30c-14 13.333 -27.333 27.666 -40 42.999c-12 16 -24.333 31.333 -37 46c-12.667 14 -26.667 25.333 -42 34c-14.667 8.66699 -31.667 12.667 -51 12c-58 -0.666992 -122 -1 -192 -1h-203h-160
c-42 0 -63.667 0.333008 -65 1c26.667 -46 46.667 -77 60 -93c14 -16.667 27 -26.667 39 -30s29 -8.66602 51 -15.999c22 -6.66699 54.667 -23 98 -49v0z" />
    <glyph glyph-name="glyph360" horiz-adv-x="510" 
d="M0 525c2 -50 10.999 -107.332 26.999 -171.999c16.667 -64 40.334 -129.333 71.001 -196c31.333 -66.667 70.333 -129.334 117 -188.001c46.667 -58 102 -106 166 -144l21 22c-58 83.333 -96 152 -114 206c-18 54.667 -20 103.667 -6 147c14.667 43.333 42 91.333 82 144
l146 201c-0.666992 0 -7 8.33301 -19 25l-48 64l-66 83l-72 83h-30c-26.667 -19.333 -50.667 -39.666 -72 -60.999l-63 -68l-64 -72c-22 -24.667 -47.333 -49.334 -76 -74.001v0zM368.999 561.001c-12.667 -26 -24.332 -52.333 -34.999 -79s-22 -51.334 -34 -74.001
c-12.667 -23.333 -28.334 -42 -47.001 -56c-18.667 -14.667 -42 -22 -70 -22c-20.667 0.666992 -35.667 11.334 -45 32.001c-8.66699 20 -13.667 43.667 -15 71c-2 26.667 -2 50 0 70c1.33301 20.667 2.33301 31.667 3 33c16.667 7.33301 38.667 14 66 20
c28 6 56 10.333 84 13s51 3.66699 69 3c18 -1.33301 26 -5 24 -11v0z" />
    <glyph glyph-name="glyph361" horiz-adv-x="801" 
d="M0 491l281.996 -356.998c66 -84.667 118.333 -146.334 157 -185.001c38.667 -38 78.334 -64.667 119.001 -80s97.334 -30 170.001 -44l2 22c-69.333 46 -122.666 90.333 -159.999 133c-38 43.333 -63.333 83.333 -76 120c-13.333 36.667 -18 68.334 -14 95.001
s13.333 46.667 28 60l47 43l46 41l69 62l118 105c6.66699 18.667 10.667 38.334 12 59.001c1.33301 20 1 41 -1 63c-2 21.333 -4.33301 44 -7 68c-2.66699 23.333 -4 48 -4 74c-18.667 3.33301 -38 6 -58 8s-40.667 3.33301 -62 4c-20.667 0.666992 -41.667 1 -63 1h-60
c20 -48.667 33 -93.334 39 -134.001c6.66699 -40.667 6.66699 -77 0 -109c-7.33301 -32 -20.333 -58.667 -39 -80c-18.667 -20.667 -42.667 -35.667 -72 -45c-22.667 -6.66699 -48.334 -6.33398 -77.001 0.999023c-28 7.33301 -55.667 18.666 -83 33.999
s-50.666 32 -69.999 50s-31 34.667 -35 50c-3.33301 14 1 31.333 13 52c11.333 21.333 27 43.333 47 66c20 23.333 41.333 45 64 65c22 20.667 42.667 37.334 62 50.001l-241 17l-49 -65c-17.333 -24.667 -33.666 -50.334 -48.999 -77.001c-16 -27.333 -29 -55 -39 -83
c-10 -28.667 -15.333 -56.667 -16 -84v0z" />
    <glyph glyph-name="glyph362" horiz-adv-x="955" 
d="M110 646c70 -7.33301 121.334 -31.002 154.001 -71.002s45.667 -93.667 39 -161c-7.33301 -66.667 -36 -143.667 -86 -231c-50 -88 -122.333 -182.333 -217 -283h30c103.333 36.667 183.666 90 240.999 160c58 69.333 103.667 141 137 215c32.667 74 64.667 137 96 189
c30.667 52 71 79.333 121 82c32 -1.33301 55.333 -17.666 70 -48.999c14 -32 19.333 -75.333 16 -130c-3.33301 -54 -14.333 -115 -33 -183c-18.667 -67.333 -44.667 -137 -78 -209h30c46 34 87.667 80 125 138c38 58 71 122 99 192s50.667 140.333 68 211
c16.667 70 27.667 134.667 33 194l-22 22c-56.667 -2.66699 -113.334 -4 -170.001 -4c-56 -0.666992 -111.333 1.33301 -166 6s-107.667 12 -159 22c-51.333 10.667 -100.666 25.334 -147.999 44.001l-45 -41l-46 -40l-45 -39c-15.333 -12.667 -30 -24 -44 -34v0z" />
    <glyph glyph-name="glyph363" horiz-adv-x="435" 
d="M0 430l140.999 -133c35.333 -32 61.333 -64.667 78 -98c17.333 -33.333 28.333 -80.333 33 -141c5.33301 -60 8 -146 8 -258h30c47.333 102.667 79 187.667 95 255s20.667 123 14 167c-6.66699 43.333 -19.667 81 -39 113s-40.333 64.333 -63 97
c16.667 22.667 31.334 40.667 44.001 54c13.333 12.667 25.666 23.334 36.999 32.001c10.667 8 20.667 17 30 27c8.66699 9.33301 17.667 22.666 27 39.999c0 0.666992 -2 8 -6 22c-4 14.667 -11.333 31.667 -22 51c-10 20 -24.667 38.667 -44 56
c-18.667 17.333 -43 29.333 -73 36c-13.333 -34 -32.666 -66 -57.999 -96s-53 -58 -83 -84l-86 -75c-26.667 -23.333 -47.667 -45 -63 -65v0z" />
    <glyph glyph-name="glyph364" horiz-adv-x="712" 
d="M0 2l19.9971 -22.002c124.667 9.33301 226.667 10 306 2c79.333 -8.66699 142 -23 188 -43c46.667 -19.333 83 -41.666 109 -66.999c26 -24.667 48.333 -48.667 67 -72l22 22l-49 120c-14.667 32.667 -29.667 60 -45 82s-33.333 41 -54 57
c-21.333 15.333 -47.666 30 -78.999 44c-29.333 11.333 -57 17.333 -83 18c-26 1.33301 -45.333 6 -58 14c-13.333 8 -15 28 -5 60s37 84.667 81 158c24.667 48 43 82 55 102c12.667 20.667 25.334 33.667 38.001 39c13.333 4.66699 33 7.33398 59 8.00098
c26 1.33301 65.333 6.66602 118 15.999v30c-24 30.667 -42.333 57 -55 79c-13.333 22.667 -25.666 42.667 -36.999 60c-11.333 16.667 -25.333 32.334 -42 47.001c-17.333 14 -41 28.667 -71 44l-241 -399l-137 -221l-70 -111c-14.667 -24 -27 -46.333 -37 -67v0z" />
    <glyph glyph-name="glyph365" horiz-adv-x="685" 
d="M502 -178c-82 104 -141.001 198.998 -177.001 284.998s-54.333 160 -55 222c0 62.667 13 111.334 39 146.001c26.667 34 62 52.333 106 55c39.333 0 68 -15 86 -45c17.333 -30 26.333 -68.667 27 -116s-3.66602 -96.666 -12.999 -147.999c-9.33301 -52 -21 -99 -35 -141
h30c34.667 43.333 63.334 84.333 86.001 123c23.333 39.333 41.333 76.333 54 111c12 35.333 20.667 69.333 26 102c5.33301 32 8.33301 63.333 9 94l-81 115c-25.333 33.333 -49.333 62 -72 86c-23.333 24 -46.333 43.333 -69 58c-23.333 14.667 -47.666 25 -72.999 31
c-26 -2.66699 -46 -11.667 -60 -27l-50 -62c-19.333 -25.333 -50.333 -54.333 -93 -87c-42 -32.667 -104.333 -67.334 -187 -104.001c0 -62 10.333 -126.667 31 -194c21.333 -67.333 52.333 -133.666 93 -198.999c41.333 -66 91.666 -127 150.999 -183
c59.333 -56.667 127.666 -104.667 204.999 -144z" />
    <glyph glyph-name="glyph366" horiz-adv-x="845" 
d="M3 430c15.333 -42.667 41.999 -84.6641 79.999 -125.997c38 -42 83 -86 135 -132c52 -46.667 106.333 -98.667 163 -156c56.667 -56.667 112 -122 166 -196c20.667 -6.66699 44.667 -11.334 72 -14.001c27.333 -3.33301 55.666 -5.33301 84.999 -6
c28.667 -0.666992 55.334 -1 80.001 -1c25.333 0 45.666 0.333008 60.999 1v30c-59.333 22 -113.666 52.667 -162.999 92c-49.333 38.667 -92.333 79.334 -129 122.001c-36.667 42 -65 79.333 -85 112c-20 32 -30 53 -30 63c0.666992 35.333 11.667 58.333 33 69
c21.333 11.333 47.333 16.333 78 15c31.333 -0.666992 61.666 -0.666992 90.999 0c30 1.33301 54.333 10.333 73 27c-6.66699 18 -13.667 34.333 -21 49c-8 14 -16.667 26.333 -26 37c-9.33301 10 -19.333 18.667 -30 26s-21.667 13.333 -33 18
c-39.333 -3.33301 -81.333 -6.33301 -126 -9c-45.333 -3.33301 -88 -5.33301 -128 -6c-40.667 -1.33301 -72.667 -1 -96 1c-24 2 -34 6.66699 -30 14c40.667 57.333 76.667 90.666 108 99.999c32 10 62 10 90 0c28.667 -10.667 58.334 -16 89.001 -16
c31.333 -0.666992 67.333 18 108 56c-14 25.333 -30.667 48.666 -50 69.999c-19.333 22 -40.666 42 -63.999 60c-23.333 17.333 -48 32 -74 44c-25.333 11.333 -51 20 -77 26l-154 -119c-46 -36.667 -84.667 -70.334 -116 -101.001c-32 -30.667 -55 -58.334 -69 -83.001
c-14 -25.333 -17.667 -47.666 -11 -66.999v0z" />
    <glyph glyph-name="glyph367" horiz-adv-x="940" 
d="M0 778c88.667 -60 169.996 -103.336 243.996 -130.003c74 -26 138.333 -45.333 193 -58c54.667 -12 97 -27.333 127 -46s45.333 -50 46 -94c-1.33301 -34.667 -9.66602 -61.334 -24.999 -80.001c-16 -18.667 -34.333 -35.667 -55 -51
c-21.333 -15.333 -39.666 -35.666 -54.999 -60.999c-16 -25.333 -24.333 -61.333 -25 -108c-0.666992 -32.667 4.66602 -64.667 15.999 -96c12 -30.667 32 -60.667 60 -90c28 -30 66.333 -58.667 115 -86s110 -53.333 184 -78l22 22
c-96 102.667 -153.667 182.334 -173 239.001c-19.333 57.333 -15.666 100.333 11.001 129s61.334 52.667 104.001 72s78 43.666 106 72.999c-32 68.667 -54.333 120.334 -67 155.001c-12 34.667 -16 56.334 -12 65.001c4.66699 9.33301 15.667 10.333 33 3
c17.333 -6.66699 40.333 -16.667 69 -30l22 22c-25.333 40.667 -43.666 72.334 -54.999 95.001c-11.333 23.333 -18.333 41.666 -21 54.999c-2.66699 12.667 -4 24.334 -4 35.001c0.666992 10.667 0.666992 24 0 40c-82.667 -4.66699 -159.667 -8.66699 -231 -12
c-71.333 -2.66699 -140 -3.66699 -206 -3c-65.333 0 -131 3.33301 -197 10c-65.333 6 -133.333 16 -204 30z" />
    <glyph glyph-name="glyph368" horiz-adv-x="678" 
d="M25 350l22.0029 -22.0029c42 17.333 80.333 37 115 59s66.667 40 96 54c30 13.333 59 16.333 87 9c27.333 -7.33301 55.666 -31.666 84.999 -72.999c22 -34.667 27 -75 15 -121s-38 -94 -78 -144c-40.667 -49.333 -92.334 -96.666 -155.001 -141.999
c-62.667 -44.667 -133.334 -83 -212.001 -115v-30c190 34.667 339.667 92.334 449 173.001c110 81.333 180.667 166.333 212 255c30.667 89.333 23 163.666 -23 222.999c-46.667 60 -131 86.333 -253 79c-24.667 0.666992 -40 13.334 -46 38.001c-5.33301 24 -7 52 -5 84
s3 60 3 84c-0.666992 24.667 -8 37.667 -22 39l-22 -22c-10 -33.333 -22 -69 -36 -107c-13.333 -38 -30.333 -76.333 -51 -115c-20.667 -38 -45.667 -75 -75 -111c-30 -35.333 -65.333 -67 -106 -95v0z" />
    <glyph glyph-name="glyph369" horiz-adv-x="700" 
d="M0 330l0.000976562 -30.0029c77.333 -14.667 131.666 -42 162.999 -82c30.667 -39.333 42.334 -84.333 35.001 -135c-6.66699 -50 -27.667 -98.667 -63 -146c-36 -47.333 -81 -85.666 -135 -114.999l22 -22c64.667 22.667 125 54.334 181 95.001
c55.333 41.333 99.666 88 132.999 140c33.333 51.333 49.333 105 48 161s-26 110.667 -74 164c1.33301 0.666992 20.666 14.667 57.999 42c38 27.333 81.667 63 131 107c50 44.667 94.667 92.334 134 143.001c38.667 50.667 61 100 67 148h-20c-18 -14.667 -41 -28 -69 -40
c-27.333 -12.667 -57 -23.667 -89 -33c-31.333 -9.33301 -62.333 -16.333 -93 -21c-30 -4.66699 -56.333 -6.66699 -79 -6c-20 -31.333 -42.667 -64 -68 -98s-52.666 -68 -81.999 -102c-30 -34 -62 -65.667 -96 -95c-33.333 -29.333 -68 -54.333 -104 -75v0z" />
    <glyph glyph-name="glyph370" horiz-adv-x="860" 
d="M0 800l-0.00195312 -30.002c46 -20 93.333 -42 142 -66c48 -24 92.667 -48.667 134 -74c40.667 -25.333 73.667 -50.333 99 -75c25.333 -24 38.666 -45.667 39.999 -65c-1.33301 -33.333 -13.666 -74.333 -36.999 -123c-23.333 -49.333 -52.666 -104.333 -87.999 -165
l-112 -193c-38 -68 -72.333 -137.667 -103 -209h50l162 180c54.667 62.667 111.667 124.334 171 185.001s121.333 117 186 169c64.667 51.333 133.334 95 206.001 131l-22 23c-23.333 -0.666992 -46.333 -3.66699 -69 -9c-22 -4.66699 -42 -7.66699 -60 -9s-32.333 3 -43 13
c-10.667 9.33301 -16 28.333 -16 57c0 36.667 8 62.334 24 77.001s36 22.667 60 24s48.333 0 73 -4c24 -4 45 -6.33301 63 -7c-4.66699 17.333 -9.66699 33.333 -15 48s-11 28 -17 40c-6.66699 12 -13.667 23 -21 33c-6.66699 10 -14 19.667 -22 29
c-72 -5.33301 -142 -7.33301 -210 -6s-134.333 4 -199 8c-65.333 4 -129.333 7.66699 -192 11c-62 4 -123.333 6.33301 -184 7v0z" />
    <glyph glyph-name="glyph371" horiz-adv-x="1030" 
d="M315 315c-36 -116 -72.3359 -203.665 -109.003 -262.998c-37.333 -59.333 -71.666 -102 -102.999 -128l-75 -61c-19.333 -15.333 -28.666 -36.333 -27.999 -63h30l187 74c62.667 24 130.667 41.333 204 52c73.333 11.333 157.333 10.666 252 -2.00098
c95.333 -13.333 207 -43.666 335 -90.999l22 22c-3.33301 31.333 -30.666 59 -81.999 83c-51.333 23.333 -110.666 48.666 -177.999 75.999c-68 27.333 -127.667 63 -179 107c-51.333 43.333 -78.333 101.333 -81 174c1.33301 64 17 118.667 47 164
c30 44.667 65.333 82.667 106 114l111 83c32.667 23.333 53 46.333 61 69c-5.33301 6 -11.666 10 -18.999 12c-6.66699 2 -14 3 -22 3l-23 -2c-8 0 -15 0.666992 -21 2c-50.667 -25.333 -100.334 -40.666 -149.001 -45.999c-48 -5.33301 -94 -3 -138 7
c-43.333 9.33301 -83.333 22.666 -120 39.999c-36 18 -67 37.667 -93 59h-30c0.666992 -20.667 8.66699 -46.334 24 -77.001c15.333 -31.333 31.666 -67.333 48.999 -108c17.333 -41.333 29.333 -87 36 -137s2 -104.333 -14 -163v0z" />
    <glyph glyph-name="glyph372" horiz-adv-x="940" 
d="M330 175c-36.667 0.666992 -61.6631 13 -74.9961 37c-12.667 23.333 -18 52.666 -16 87.999c1.33301 34.667 5.66602 69.334 12.999 104.001c8 34.667 14 63.334 18 86.001h-30c-32.667 -48.667 -64.334 -104.334 -95.001 -167.001s-57.667 -125.667 -81 -189
s-41 -120.333 -53 -171s-15.667 -88.334 -11 -113.001h30l236 142c73.333 42.667 143.666 78.667 210.999 108c68 30 137 52 207 66c70.667 14 146 18.667 226 14v30c-24 44 -39.333 92.667 -46 146s-7 107 -1 161c5.33301 54.667 15 106.334 29 155.001
s30 91.334 48 128.001c-46.667 3.33301 -93.334 -25.334 -140.001 -86.001s-94.667 -132.667 -144 -216c-49.333 -84 -101 -158 -155 -222s-111 -97.667 -171 -101v0z" />
    <glyph glyph-name="glyph373" horiz-adv-x="1010" 
d="M0 -178l22.001 -21.999c76.667 58.667 154 112.667 232 162c78.667 48.667 158.667 90 240 124c81.333 34.667 164.666 60.334 249.999 77.001c86 16 174.667 21.667 266 17c-9.33301 18.667 -19.333 30.667 -30 36l-35 17c-13.333 6 -28.333 19.333 -45 40
c-16 20.667 -34.333 56.334 -55 107.001c-2 2 -4 4.33301 -6 7l-6 8l-5 5c-2 2 -3.66699 2.66699 -5 2c-20.667 -30.667 -52 -60.334 -94 -89.001c-42.667 -28 -87.667 -51.333 -135 -70c-46.667 -18.667 -86.667 -29.334 -120 -32.001
c-33.333 -2 -50.666 7.66699 -51.999 29c0.666992 8.66699 12 31 34 67c22.667 36 51.667 74 87 114c36 39.333 74.333 68.666 115 87.999c41.333 18.667 81 15.667 119 -9h30c-18.667 53.333 -28 97.333 -28 132c0.666992 35.333 4.66699 64 12 86
c7.33301 21.333 12.666 38.333 15.999 51c2.66699 12.667 -2.33301 23 -15 31c-99.333 -40 -186 -97 -260 -171c-73.333 -74 -139 -157.667 -197 -251c-58.667 -93.333 -114.667 -188.333 -168 -285s-109 -187 -167 -271v0z" />
    <glyph glyph-name="glyph374" horiz-adv-x="1172" 
d="M675 220c-70.667 -12.667 -136.999 -22.332 -198.999 -28.999c-61.333 -6.66699 -116 -5 -164 5c-47.333 10 -84.333 33 -111 69c-27.333 36.667 -41 91.667 -41 165h-30c-39.333 -37.333 -65.666 -84 -78.999 -140c-14 -55.333 -21.667 -113.333 -23 -174
s-2.66602 -117.334 -3.99902 -170.001c-2 -52 -10 -93.333 -24 -124l22 -22c59.333 43.333 96 79.333 110 108c13.333 29.333 28.666 52.666 45.999 69.999c16.667 16.667 60 28.667 130 36s191.333 11 364 11c35.333 -22.667 66.333 -46.334 93 -71.001l76 -70
c24 -21.333 50.333 -39 79 -53c29.333 -14 64.333 -21 105 -21l22 22c-16.667 40.667 -34.667 93 -54 157c-20 64.667 -31.667 138.334 -35 221.001c-4 83.333 9.33301 173 40 269c30.667 95.333 88.667 195 174 299l-22 22c-59.333 -21.333 -113 -53.666 -161 -96.999
c-48.667 -43.333 -92.334 -93 -131.001 -149s-73 -113 -103 -171c-30.667 -58 -57.334 -112.333 -80.001 -163v0z" />
    <glyph glyph-name="glyph375" horiz-adv-x="880" 
d="M325 -200l29.999 0.000976562c-30.667 98 -57.334 190.667 -80.001 278c-22 88 -39.333 167.333 -52 238c-12.667 71.333 -20 130.333 -22 177c-2.66699 46.667 1 78 11 94c16.667 24 51.334 41.667 104.001 53c52 10.667 112.667 20 182 28
c68.667 7.33301 137 18.333 205 33c68.667 14 127.667 37 177 69v30h-880c0 -133.333 8.33301 -252 25 -356c16 -104 38.667 -196 68 -276c30 -80 64.667 -150 104 -210c38.667 -60.667 81.334 -113.334 128.001 -158.001v0z" />
    <glyph glyph-name="glyph376" horiz-adv-x="920" 
d="M656 681c-1.33301 -15.333 -12.334 -39 -33.001 -71c-20 -32.667 -45.667 -65.667 -77 -99c-32 -34 -64.333 -60.667 -97 -80c-33.333 -19.333 -62.666 -23 -87.999 -11c-2.66699 32.667 -4.33398 66.334 -5.00098 101.001c-0.666992 34 1 67 5 99
c4.66699 32 13.667 60.667 27 86c13.333 26 32.666 47.333 57.999 64c-52 24.667 -96.667 33 -134 25s-71.666 -24.667 -102.999 -50l-97 -74c-32.667 -24.667 -70 -41 -112 -49c8 -28.667 19.333 -43.667 34 -45c14 -2 30.333 2 49 12s38.667 18 60 24
c20.667 6.66699 42.334 4.66699 65.001 -6c26 -61.333 34.333 -109.666 25 -144.999c-8.66699 -36 -25 -65.667 -49 -89s-45.333 -47 -64 -71c-18.667 -24.667 -24.667 -55.667 -18 -93c7.33301 -37.333 20.333 -71.333 39 -102c18 -30.667 40.333 -60.667 67 -90l90 -97
c33.333 -34.667 69.333 -74.667 108 -120h365v30l-54 25c-16.667 7.33301 -34.334 17.666 -53.001 30.999c-19.333 13.333 -42.666 33.666 -69.999 60.999s-61.666 66 -102.999 116c-44 56 -48 113.333 -12 172c35.333 58.667 88 118 158 178s134.333 121 193 183
c58 62 88 125 90 189c-26 4.66699 -57 8 -93 10c-36.667 2 -72.334 3.33301 -107.001 4c-35.333 0.666992 -65 1 -89 1h-36c-12 -18 -16 -32.333 -12 -43c4.66699 -10.667 12.667 -19.667 24 -27l32 -23c10 -7.33301 15.667 -16 17 -26v0z" />
    <glyph glyph-name="glyph377" horiz-adv-x="905" 
d="M0 415c2 -23.333 32.6719 -63.6641 92.0049 -120.997c60 -56.667 135 -119.334 225 -188.001c90 -68 181.333 -130.333 274 -187c93.333 -57.333 174.666 -97 243.999 -119l22 22c-94.667 127.333 -149.334 235.666 -164.001 324.999c-14 88.667 -6 166 24 232
c30.667 66.667 66 130 106 190s67.333 125.333 82 196c-20.667 12 -45.334 20.667 -74.001 26s-64 8.33301 -106 9c-42 1.33301 -92.667 1.66602 -152 0.999023c-60 -0.666992 -131 -1 -213 -1c-44 -12 -87 -30 -129 -54c-42.667 -24 -81.334 -53 -116.001 -87
s-62.334 -71.667 -83.001 -113c-21.333 -41.333 -32 -85 -32 -131v0zM551.005 642.002c2 -6 1.33105 -13.6719 -2.00195 -23.0049c-3.33301 -8.66699 -8 -19.334 -14 -32.001c-6.66699 -12.667 -13 -27 -19 -43c-6.66699 -16.667 -12 -34.667 -16 -54
c-4 -20.667 -5.33301 -41.667 -4 -63s3 -41.666 5 -60.999s1.66699 -36.666 -1 -51.999c-2 -15.333 -8.66699 -26.666 -20 -33.999c-10 -6 -24.333 -3.66699 -43 7c-18.667 10 -38 25.667 -58 47c-20 20.667 -36.667 44.334 -50 71.001
c-13.333 26 -19.666 52.667 -18.999 80c0.666992 30 10.334 58 29.001 84c18.667 25.333 41.667 46.333 69 63c26.667 16.667 53 26.334 79 29.001s47.333 -3.66602 64 -18.999v0z" />
    <glyph glyph-name="glyph378" horiz-adv-x="274" 
d="M50 462c-0.666992 -12 1.33203 -28.666 5.99902 -49.999c4 -21.333 11 -43.666 21 -66.999c10 -24 24 -45 42 -63c18 -17.333 40.667 -28 68 -32c30 6.66699 47.667 15.334 53 26.001c5.33301 11.333 3.33301 23.666 -6 36.999c-8.66699 12.667 -18.667 26 -30 40
s-17.666 27.667 -18.999 41c-0.666992 28 9 58 29 90c20 31.333 37 64 51 98s12 69.333 -6 106c-17.333 36 -64 73.333 -140 112l-22 -22c34.667 -40 52.667 -75.667 54 -107c0.666992 -30.667 -7 -58.334 -23 -83.001c-16.667 -24.667 -33.667 -47.334 -51 -68.001
c-16.667 -20.667 -25.667 -40 -27 -58v0z" />
    <glyph glyph-name="glyph379" 
 />
    <glyph glyph-name="glyph380" 
 />
    <glyph glyph-name="glyph381" 
 />
    <glyph glyph-name="glyph382" 
 />
    <glyph glyph-name="glyph383" 
 />
    <glyph glyph-name="glyph384" 
 />
    <glyph glyph-name="glyph385" 
 />
    <glyph glyph-name="glyph386" 
 />
    <glyph glyph-name="glyph387" 
 />
    <glyph glyph-name="glyph388" 
 />
    <glyph glyph-name="glyph389" 
 />
    <glyph glyph-name="glyph390" 
 />
    <glyph glyph-name="glyph391" 
 />
    <glyph glyph-name="glyph392" 
 />
    <glyph glyph-name="glyph393" 
 />
    <glyph glyph-name="glyph394" 
 />
    <glyph glyph-name="glyph395" 
 />
    <glyph glyph-name="glyph396" 
 />
    <glyph glyph-name="glyph397" 
 />
    <glyph glyph-name="glyph398" 
 />
    <glyph glyph-name="glyph399" 
 />
    <glyph glyph-name="glyph400" 
 />
    <glyph glyph-name="glyph401" 
 />
    <glyph glyph-name="glyph402" 
 />
    <glyph glyph-name="glyph403" 
 />
    <glyph glyph-name="glyph404" 
 />
    <glyph glyph-name="glyph405" 
 />
    <glyph glyph-name="glyph406" 
 />
    <glyph glyph-name="glyph407" 
 />
    <glyph glyph-name="glyph408" 
 />
    <glyph glyph-name="glyph409" 
 />
    <glyph glyph-name="glyph410" 
 />
    <glyph glyph-name="glyph411" 
 />
    <glyph glyph-name="glyph412" 
 />
    <glyph glyph-name="glyph413" 
 />
    <glyph glyph-name="glyph414" 
 />
    <glyph glyph-name="glyph415" 
 />
    <glyph glyph-name="glyph416" 
 />
    <glyph glyph-name="glyph417" 
 />
    <glyph glyph-name="glyph418" 
 />
    <glyph glyph-name="glyph419" 
 />
    <glyph glyph-name="glyph420" 
 />
    <glyph glyph-name="glyph421" 
 />
    <glyph glyph-name="glyph422" 
 />
    <glyph glyph-name="glyph423" 
 />
    <glyph glyph-name="glyph424" 
 />
    <glyph glyph-name="glyph425" 
 />
    <glyph glyph-name="glyph426" 
 />
    <glyph glyph-name="glyph427" 
 />
    <glyph glyph-name="glyph428" 
 />
    <glyph glyph-name="glyph429" 
 />
    <glyph glyph-name="glyph430" 
 />
    <glyph glyph-name="glyph431" 
 />
    <glyph glyph-name="glyph432" 
 />
    <glyph glyph-name="glyph433" 
 />
    <glyph glyph-name="glyph434" 
 />
    <glyph glyph-name="glyph435" 
 />
    <glyph glyph-name="glyph436" 
 />
    <glyph glyph-name="glyph437" 
 />
    <glyph glyph-name="glyph438" 
 />
    <glyph glyph-name="glyph439" 
 />
    <glyph glyph-name="glyph440" 
 />
    <glyph glyph-name="glyph441" 
 />
    <glyph glyph-name="glyph442" 
 />
    <glyph glyph-name="glyph443" 
 />
    <glyph glyph-name="glyph444" 
 />
    <glyph glyph-name="glyph445" 
 />
    <glyph glyph-name="glyph446" 
 />
    <glyph glyph-name="glyph447" 
 />
    <glyph glyph-name="glyph448" 
 />
    <glyph glyph-name="glyph449" 
 />
    <glyph glyph-name="glyph450" 
 />
    <glyph glyph-name="glyph451" 
 />
    <glyph glyph-name="glyph452" 
 />
    <glyph glyph-name="glyph453" 
 />
    <glyph glyph-name="glyph454" 
 />
    <glyph glyph-name="glyph455" 
 />
    <glyph glyph-name="glyph456" 
 />
    <glyph glyph-name="glyph457" 
 />
    <glyph glyph-name="glyph458" 
 />
    <glyph glyph-name="glyph459" 
 />
    <glyph glyph-name="glyph460" 
 />
    <glyph glyph-name="glyph461" 
 />
    <glyph glyph-name="glyph462" 
 />
    <glyph glyph-name="glyph463" 
 />
    <glyph glyph-name="glyph464" 
 />
    <glyph glyph-name="glyph465" 
 />
    <glyph glyph-name="glyph466" 
 />
    <glyph glyph-name="glyph467" 
 />
    <glyph glyph-name="glyph468" 
 />
    <glyph glyph-name="glyph469" 
 />
    <glyph glyph-name="glyph470" 
 />
    <glyph glyph-name="glyph471" 
 />
    <glyph glyph-name="glyph472" 
 />
    <glyph glyph-name="glyph473" 
 />
    <glyph glyph-name="glyph474" 
 />
    <glyph glyph-name="glyph475" 
 />
    <glyph glyph-name="glyph476" 
 />
    <glyph glyph-name="glyph477" 
 />
    <glyph glyph-name="glyph478" 
 />
    <glyph glyph-name="glyph479" 
 />
    <glyph glyph-name="glyph480" 
 />
    <glyph glyph-name="glyph481" 
 />
    <glyph glyph-name="glyph482" 
 />
    <glyph glyph-name="glyph483" 
 />
    <glyph glyph-name="glyph484" 
 />
    <glyph glyph-name="glyph485" 
 />
    <glyph glyph-name="glyph486" 
 />
    <glyph glyph-name="glyph487" 
 />
    <glyph glyph-name="glyph488" 
 />
    <glyph glyph-name="glyph489" 
 />
    <glyph glyph-name="glyph490" 
 />
    <glyph glyph-name="glyph491" 
 />
    <glyph glyph-name="glyph492" 
 />
    <glyph glyph-name="glyph493" 
 />
    <glyph glyph-name="glyph494" 
 />
    <glyph glyph-name="glyph495" 
 />
    <glyph glyph-name="glyph496" 
 />
    <glyph glyph-name="glyph497" 
 />
    <glyph glyph-name="glyph498" 
 />
    <glyph glyph-name="glyph499" 
 />
    <glyph glyph-name="glyph500" 
 />
    <glyph glyph-name="glyph501" 
 />
    <glyph glyph-name="glyph502" 
 />
    <glyph glyph-name="glyph503" 
 />
    <glyph glyph-name="glyph504" 
 />
    <glyph glyph-name="glyph505" 
 />
    <glyph glyph-name="glyph506" 
 />
    <glyph glyph-name="glyph507" 
 />
    <glyph glyph-name="glyph508" 
 />
    <glyph glyph-name="glyph509" 
 />
    <glyph glyph-name="glyph510" 
 />
    <glyph glyph-name="glyph511" 
 />
    </font>
</defs>
</svg>
