<?xml version="1.0" standalone="no"?>
<!DOCTYPE svg PUBLIC "-//W3C//DTD SVG 1.1//EN" "http://www.w3.org/Graphics/SVG/1.1/DTD/svg11.dtd" >
<svg>
<metadata>
Created by FontForge 20110222 at Wed May 21 14:44:58 2014
 By deploy user
Copyright (c) 2005 by Mike Neff and Michael Everson. All rights reserved.
</metadata>
<defs>
<font id="Klingonpiqadhasta" horiz-adv-x="500" >
  <font-face 
    font-family="Klingon pIqaD HaSta"
    font-weight="400"
    font-stretch="squinchy"
    units-per-em="1000"
    panose-1="2 0 0 0 0 0 0 0 0 0"
    ascent="800"
    descent="-200"
    x-height="450"
    cap-height="662"
    bbox="-168 -221 1000 924"
    underline-thickness="50"
    underline-position="-75"
    unicode-range="U+0020-FB02"
  />
<missing-glyph horiz-adv-x="432" 
d="M33 0v666h333v-666h-333zM66 33h267v600h-267v-600z" />
    <glyph glyph-name=".notdef" horiz-adv-x="432" 
d="M33 0v666h333v-666h-333zM66 33h267v600h-267v-600z" />
    <glyph glyph-name="NULL" horiz-adv-x="0" 
 />
    <glyph glyph-name="nonmarkingreturn" horiz-adv-x="333" 
 />
    <glyph glyph-name="space" unicode=" " horiz-adv-x="802" 
 />
    <glyph glyph-name="uniF8D0" unicode="&#xf8d0;" horiz-adv-x="755" 
d="M52 221l461 481h189q-74 -27 -129 -73q-70 -58 -71 -125q4 -25 50 -55q64 -44 66 -46q13 -13 14 -24q-7 -16 -41 -13l-129 9h-20q-4 -1 -10 -9t-6 -13q0 -6 4 -9.5t10 -4.5l73 -39q37 -19 69 -69q50 -78 111 -322q-2 -9 -7 -9q-6 0 -12 11q-106 198 -230 263
q-45 23 -104 37q-155 3 -288 10z" />
    <glyph glyph-name="uniF8D1" unicode="&#xf8d1;" horiz-adv-x="697" 
d="M655 674q0 -11 -13 -19l-84 -50q-130 -78 -152 -164q-8 -27 -6 -49l3 -48q5 -71 71 -259q44 -126 44 -154q0 -16 -9 -21l-99 144q-82 119 -158 272q-4 9 -15 50q-8 26 -23 36q-33 -15 -56 -15q-22 -1 -34 19q-6 10 -14 40q-10 39 -29 47q-4 9 -17 33l-18 34l-4 17
q0 8 5 11l10 6q34 17 71 52q25 24 42 24q34 0 123 -69q30 14 63 25q135 47 246 47q44 0 53 -9z" />
    <glyph glyph-name="uniF8D2" unicode="&#xf8d2;" horiz-adv-x="911" 
d="M78 182q35 101 48 124q11 14 47 63q105 147 198 240q51 50 67 52l11 -2q24 -9 78 -78l67 -85q18 -24 28 -24l12 3q26 12 123 109q65 66 77 71v-629q-13 -56 -67 -82q-23 -11 -40 -11h-238q-92 0 -100 12q-57 51 -108 116q-23 29 -22 37l3 1q13 3 78 3l313 -3q23 5 21 71
v47q-2 76 -34 79l-54 1l-51 -1q-22 3 -22 15v4l-1 79q0 21 -10 22q-11 7 -27 7q-56 0 -196 -100l-163 -116q-17 -12 -38 -25z" />
    <glyph glyph-name="uniF8D3" unicode="&#xf8d3;" horiz-adv-x="683" 
d="M381 287l-7 1l-11 -8q-32 -29 -68 -104q-26 -54 -26 -80q0 -14 10 -19q40 -17 78 -17q32 0 60 13q54 44 56 85l1 14q-1 19 -43 72q-34 43 -50 43zM141 682l295 -305q202 -218 202 -270q-5 -53 -84 -110q-71 -51 -130 -61l-25 -2h-4h-255q-37 0 -47 6q-48 43 -48 101
q-1 54 46 128q94 119 101 206l-1 38q-1 36 -39 145q-28 78 -39 120q4 19 9 19l8 -3q5 -4 11 -12z" />
    <glyph glyph-name="uniF8D4" unicode="&#xf8d4;" horiz-adv-x="754" 
d="M690 691h6q10 0 14 -4l2 -4q-1 -8 -15 -15q-18 -1 -53 -4q-221 -19 -275 -41l-77 -32q-28 -16 -49 -59q-54 -109 -54 -329q0 -136 23 -272q5 -11 5 -17q0 -7 -5 -7l-10 2l-18 10q-60 84 -99 298q-42 235 -43 474q0 12 79 12h143z" />
    <glyph glyph-name="uniF8D5" unicode="&#xf8d5;" horiz-adv-x="952" 
d="M28 -78q10 9 192 164q179 152 191 189v7l1 224q0 50 -51 84l-37 21l-121 58q-17 8 -17 18l2 8q4 7 9 7h459q18 -9 37 -38l24 -37q22 -33 80 -67l3 -6l-4 -4q-8 -4 -50 -4l-98 -1q-68 -1 -69 -28q-1 -3 0 -5l5 -150q1 -37 84 -36h81q15 -1 21 -5q3 -18 66 -86
q48 -53 76 -70q16 -15 16 -24l-2 -6l-9 -4h-21q-42 0 -103 5t-81 5q-144 0 -280 -48q-123 -44 -390 -183q-8 -4 -13 -4l-5 2v6q1 4 4 8z" />
    <glyph glyph-name="uniF8D6" unicode="&#xf8d6;" horiz-adv-x="607" 
d="M335 339q51 28 68 103l11 44q-8 26 -46 55q-20 15 -38 22q-41 0 -83 -33q-27 -21 -30 -42q5 -30 48 -91q18 -25 25 -32q12 -12 34 -21q4 -1 11 -5zM462 -76l-264 325q-137 168 -137 210q5 47 138 154q90 73 131 91q5 3 7 3q21 -8 102 -94q100 -108 107 -142v-4
q0 -12 -52 -120t-53 -137l2 -7l64 -245q9 -22 9 -35l-1 -13q-4 -7 -12 -7q-16 0 -41 21z" />
    <glyph glyph-name="uniF8D7" unicode="&#xf8d7;" horiz-adv-x="696" 
d="M364 704q76 -58 87 -72l37 -47q161 -208 161 -241v-3q-5 -24 -162 -88q-87 -35 -107 -44q-6 -3 -12 -32l1 -14l10 -32q15 -35 54 -110q50 -96 50 -112l-2 -5v-1l-7 -1l-20 9q-50 22 -198 148q-57 48 -77 70q-43 48 -98 138q-35 58 -35 77v3l61 156q22 57 34 58
q68 26 132 36h20h1v-8q-4 -13 -76 -191q-12 -30 -21 -54l2 -7q13 -19 58 -33q20 -7 34 -7q17 0 22 10q3 7 20 55q9 23 19 23q3 0 7 -2l66 -25l14 -1q2 0 3 2q17 8 17 38q0 44 -51 181q-35 94 -44 126z" />
    <glyph glyph-name="uniF8D8" unicode="&#xf8d8;" horiz-adv-x="786" 
d="M56 687l572 2q52 -20 61 -62q22 -106 36 -280q5 -59 5 -96q0 -29 -5 -30l-4 4q-8 12 -65 186q-46 139 -60 153q-11 7 -33 7l-38 -4l-109 -23q-15 -3 -15 -31q0 -22 10 -42q26 -92 26 -117l2 -47q5 -131 -158 -391l-8 -3q-6 1 -6 9q0 4 2 9q39 125 39 242q0 171 -70 281
q-50 79 -122 164q-28 32 -60 69z" />
    <glyph glyph-name="uniF8D9" unicode="&#xf8d9;" horiz-adv-x="811" 
d="M50 221l454 465q27 12 48 12q24 0 38 -12l171 -139l-169 27l-21 2q-33 -6 -112 -118l-56 -79q-5 -7 -5 -15q0 -16 29 -26l78 -41q53 -28 94 -108q47 -90 92 -280q-1 -9 -6 -9q-7 0 -13 11q-106 197 -230 262q-44 24 -104 38q-155 2 -288 10z" />
    <glyph glyph-name="uniF8DA" unicode="&#xf8da;" horiz-adv-x="688" 
d="M486 -90q-103 65 -163 131q-13 15 -47 54q-118 131 -191 247q-36 58 -36 76q90 42 196 140q87 80 101 92q35 27 62 39q26 -13 163 -55q47 -15 68 -24q-7 -143 -53 -299q-48 -47 -120 -90q-29 -18 -41 -17q58 120 58 216q0 20 -5 48q-4 23 -10 50q-2 4 -6 7l-11 2l-23 -5
l-23 -8q-60 -32 -105 -106q-12 -10 -12 -34l3 -30q17 -76 90 -216q85 -160 105 -218z" />
    <glyph glyph-name="uniF8DB" unicode="&#xf8db;" horiz-adv-x="766" 
d="M638 -96l-11 1l-36 13q-72 27 -184 103q-19 13 -36 27q-124 104 -228 218q-80 88 -80 114q0 4 1 6q5 41 226 227q33 27 84 68q59 13 91 13q30 0 82 -10l104 -89q52 -44 52 -63v-4q-2 -6 -70 -5l-215 2l-13 -2q-22 -22 -22 -31q0 -11 22 -26q96 -25 207 -107
q69 -50 74 -72v-4q-1 -3 -14 -2l-157 8l-56 -2l-32 -6q-20 -6 -24 -17l2 -18q13 -43 104 -159l101 -129q29 -37 29 -51q-1 -2 -1 -3z" />
    <glyph glyph-name="uniF8DC" unicode="&#xf8dc;" horiz-adv-x="737" 
d="M613 -96q-115 39 -194 94q-14 10 -53 38q-146 100 -243 196q-50 50 -53 66l2 12q10 26 98 94q73 57 84 72q4 6 4 9l-3 10q-12 26 -111 123q-66 64 -71 76l497 2q56 -12 82 -65q11 -21 11 -41l4 -196q1 -59 -11 -68l-94 -110q-27 -31 -38 -31l-2 3q-4 14 -4 106l1 256
q-4 19 -33 26l-20 2q-31 -1 -31 -28v-69l-1 -67l-4 -24q-4 -13 -14 -13l-87 -3l-11 -4l-3 -4v-1q-6 -9 -6 -22q0 -52 115 -195l141 -176q24 -31 48 -68z" />
    <glyph glyph-name="uniF8DD" unicode="&#xf8dd;" horiz-adv-x="798" 
d="M129 221l-1 6q5 23 112 165q99 133 98 151q-2 1 -10 1l-51 -2l-21 3q-7 2 -11 6q-26 17 -155 100q-40 25 -40 36l2 7q2 2 4 5l551 2q84 -65 125 -115q17 -21 17 -31q-2 -13 -26 -13l-185 1q-39 -44 -55 -67.5t-64 -99.5q-5 -7 -5 -13q0 -18 29 -28l75 -39q49 -26 87 -102
q44 -88 91 -285q-2 -9 -6 -9q-7 0 -13 11q-106 198 -230 263q-45 23 -104 37q-49 4 -92 3h-104q-17 1 -18 7z" />
    <glyph glyph-name="uniF8DE" unicode="&#xf8de;" horiz-adv-x="661" 
d="M187 -77q20 57 105 218q74 139 90 216l4 29q0 24 -12 35l-1 4l-7 16q-22 35 -53 40q-26 -22 -62 -46q-134 -91 -196 -92q-12 0 -18 3q50 49 104 107q137 147 205 244l172 9q16 -1 20 -12l1 -3q-1 -7 -35 -35q-54 -45 -58 -63v-9q3 -11 94 -72q83 -57 84 -81
q1 -18 -36 -76q-73 -117 -190 -247q-19 -22 -48 -55q-60 -66 -163 -130z" />
    <glyph glyph-name="uniF8DF" unicode="&#xf8df;" horiz-adv-x="498" 
d="M287 -82q4 38 4 74q0 252 -188 400l-52 41q-5 5 -6 8l188 221q24 28 30 31l33 1q95 2 151 -12q6 -2 6 -4q0 -3 -89 -115.5t-89 -128.5q66 -86 80 -155q7 -31 7 -65q-1 -78 -48 -272q-11 -44 -22 -44q-6 0 -6 11q0 4 1 9z" />
    <glyph glyph-name="uniF8E0" unicode="&#xf8e0;" horiz-adv-x="738" 
d="M46 221l461 481l185 2q-121 -87 -145 -114l-29 -34q-22 -25 -119 -176q-5 -8 -5 -14q0 -18 29 -27l78 -41q53 -28 94 -108q47 -91 92 -281q-1 -9 -6 -9q-7 0 -13 12q-106 197 -230 262q-44 24 -104 38q-155 2 -288 9z" />
    <glyph glyph-name="uniF8E1" unicode="&#xf8e1;" horiz-adv-x="700" 
d="M292 -74l1 473q8 30 43 34q11 1 25 6q2 3 2 6q-7 32 -156 134q-123 83 -138 96q-21 16 -21 22l458 -2q15 -9 85 -76q60 -58 60 -71l-3 -2l-21 -2l-144 7h-9q-11 -4 -11 -16l3 -15q10 -28 36 -53l149 -89q-146 -61 -229 -200q-47 -78 -106 -249q-12 -16 -17 -17l-3 2z" />
    <glyph glyph-name="uniF8E2" unicode="&#xf8e2;" horiz-adv-x="691" 
d="M72 120q-6 17 -6 25q1 31 28 56l50 46q2 4 7 13q28 56 28 140q0 39 -9 70q-13 25 -63 87q-42 51 -42 71q0 13 12 20q124 -30 235 -31q178 0 314 79q-23 -38 -41 -63q-75 -107 -206 -201q-41 -43 -41 -86q0 -27 17 -60q4 -7 34 -54q158 -136 172 -331q-37 59 -76 96
q-67 62 -177 87q-43 10 -236 36z" />
    <glyph glyph-name="uniF8E3" unicode="&#xf8e3;" horiz-adv-x="727" 
d="M158 535q80 -147 83 -264l1 -67l204 105l154 389l65 -439l-603 -336q80 319 96 612z" />
    <glyph glyph-name="uniF8E4" unicode="&#xf8e4;" horiz-adv-x="741" 
d="M118 219l-2 7q1 14 51 74q44 52 44 64q1 2 -1 4q-17 105 -64 142q-19 14 -47 25q-14 5 -43 13q56 35 107 35q78 0 145 -80l34 21q35 23 35 52q0 35 -68 71l-78 40h437q-84 -93 -240 -288q-25 -31 -25 -38q0 -18 29 -27l75 -39q49 -27 87 -102q44 -89 91 -286q-2 -8 -6 -8
q-7 0 -13 11q-106 197 -230 262q-45 24 -104 38q-49 3 -92 3l-104 -1q-17 2 -18 7z" />
    <glyph glyph-name="uniF8E5" unicode="&#xf8e5;" horiz-adv-x="800" 
d="M50 -90q1 2 1 5q54 294 106 441q100 283 267 322q-55 -93 -82 -174q-11 -34 -47 -184q67 20 135 17l86 -3q53 -2 110 -6q50 -4 56 -4q37 0 69 4l-104 -28q-210 -57 -324 -116q-194 -99 -273 -274z" />
    <glyph glyph-name="uniF8E6" unicode="&#xf8e6;" horiz-adv-x="840" 
d="M765 -94q-43 47 -142 203q-81 129 -106 150l-12 7l-4 1l-251 6q-47 2 -82 -44q-11 -15 -55 -91q-13 -24 -20.5 -36.5t-16.5 -12.5l-9 1q-5 3 -6 8l20 383q9 14 85 77q44 37 51 38q12 -2 11 -35l-4 -100q-2 -48 24 -48h188q33 0 37 72l3 66q0 11 5 16q14 18 107 86
q31 23 42 29q14 13 22 14l6 -3l3 -8l-1 -17l-11 -162l1 -78q2 -179 127 -510l2 -13q0 -3 -3 -3l-9 3q-1 1 -2 1z" />
    <glyph glyph-name="uniF8E7" unicode="&#xf8e7;" horiz-adv-x="767" 
d="M642 650q52 -35 56 -56q-3 -8 -15 -9l-62 1q-6 0 -20.5 1.5t-22.5 1.5h-72q-120 0 -210 -43q14 -92 138 -260q41 -56 175 -221q102 -125 108 -158v-11q-11 1 -54 29q-138 90 -283 229q-274 263 -330 494q15 47 250 47q77 0 163 -5q147 -10 152 -21z" />
    <glyph glyph-name="uniF8E8" unicode="&#xf8e8;" horiz-adv-x="761" 
d="M384 368h4q16 9 66 108q42 84 42 105q0 5 -2 6q-25 10 -50 10q-34 -1 -82 -25q-88 -27 -88 -87q0 -24 18 -45q2 -17 42 -49q29 -24 44 -24q4 -1 6 1zM624 -76q-102 101 -341 308q-171 147 -209 193q-22 25 -22 37q0 47 104 128q88 69 150 93q28 12 45 12h6l255 4
q34 1 48 -4q48 -44 48 -80l-3 -20q-4 -16 -19 -39q-19 -30 -22 -37q-96 -126 -96 -250q0 -77 42 -209l42 -131q-4 -19 -10 -19l-8 3q-5 4 -10 11z" />
    <glyph glyph-name="uniF8E9" unicode="&#xf8e9;" horiz-adv-x="370" 
d="M158 291q0 -1 1 -1l-1 -8l-4 -1q-8 1 -15 24q-32 106 -34 152l3 32q8 45 58 98q1 7 -10 19l-46 48l-69 73q0 8 83 8h51q5 -1 16 -12l138 -132q-2 -4 -36 -25q-148 -95 -138 -230z" />
    <glyph glyph-name="uniF8FE" unicode="&#xf8fe;" horiz-adv-x="491" 
d="M51 263l191 311l198 -311h-389z" />
    <glyph glyph-name="uniF8FD" unicode="&#xf8fd;" horiz-adv-x="467" 
d="M428 536l-198 -311l-191 311h389z" />
    <glyph glyph-name="uniF8EA" unicode="&#xf8ea;" horiz-adv-x="859" 
d="M63 305l252 135l37 -58l221 111l-42 64l265 142v-285h-84v-226h84v-287l-249 137l35 70l-235 122l-32 -64z" />
    <glyph glyph-name="uniF8EB" unicode="&#xf8eb;" horiz-adv-x="784" 
d="M507 166l-33 64l-234 -122l35 -70l-250 -137v287h84v226h-84v285l266 -142l-43 -64l221 -111l38 58l252 -135z" />
    <glyph glyph-name="uniF8F0" unicode="&#xf8f0;" horiz-adv-x="692" 
d="M38 341q353 83 614 103l2 -148q-248 44 -616 45z" />
    <glyph glyph-name="uniF8F1" unicode="&#xf8f1;" horiz-adv-x="692" 
d="M633 665q-247 -168 -379 -340q-21 -18 -40 -43q-71 -92 -148 -350q-8 69 -7 99l3 73q4 129 90 312q238 165 481 249z" />
    <glyph glyph-name="uniF8F2" unicode="&#xf8f2;" horiz-adv-x="692" 
d="M480 561q-175 -161 -198 -245q21 -63 185 -232q128 -133 153 -160q-93 40 -164 79q-213 115 -384 297q41 59 90 109q155 159 439 264z" />
    <glyph glyph-name="uniF8F3" unicode="&#xf8f3;" horiz-adv-x="692" 
d="M319 311q77 43 197 66q52 9 92 9q-165 -99 -187 -196zM601 673q-36 -51 -147 -155q-92 -86 -126 -126q-37 -45 -46 -76q21 -55 135 -172l125 -128q51 -54 78 -92l-240 136q-176 99 -308 240q135 184 393 312q69 34 136 61z" />
    <glyph glyph-name="uniF8F4" unicode="&#xf8f4;" horiz-adv-x="692" 
d="M420 435l-89 139q93 48 204 48q37 0 111 -7q-113 -35 -167 -89q-36 -37 -59 -91zM97 639l127 -31l21 -7q109 -148 142 -196q154 -227 203 -402q-61 9 -126 9q-203 0 -370 -71q-16 -6 -48 -22q91 136 224 185q48 18 95 21q-47 206 -118 326q-54 92 -150 188z" />
    <glyph glyph-name="uniF8F5" unicode="&#xf8f5;" horiz-adv-x="692" 
d="M468 -104l-384 753q156 44 406 44h70l-159 -45q-85 -24 -94 -69l-1 -18q2 -22 18 -48q39 8 72 8q77 0 153 -55q10 -7 18 -13h-35q-98 3 -176 -128q36 32 106 32q85 0 146 -41q-82 -16 -111 -30q-45 -22 -69 -69z" />
    <glyph glyph-name="uniF8F6" unicode="&#xf8f6;" horiz-adv-x="692" 
d="M326 239q78 55 212 94l112 33q41 -100 41 -236q0 -24 -5 -147q-2 -36 -2 -71q-15 31 -38 124q-25 104 -57 146q-28 36 -73 53q-15 8 -62 7zM10 666q17 -21 44 -52l112 -128q108 -131 135 -251q-53 -95 -146 -179l-154 -139q13 24 77 130q72 116 92 200q-21 96 -56 177z
" />
    <glyph glyph-name="uniF8F7" unicode="&#xf8f7;" horiz-adv-x="692" 
d="M488 -97q-20 40 -96 163q-82 132 -118 243q-28 86 -42 187q-8 3 -14 3l-12 -2q-23 -11 -49 -82q-8 40 -8 74q0 58 25 108q-41 -19 -86 -85q-3 -5 -15 -23l-1 57q-3 89 52 142l164 2q132 1 332 -16q-258 -37 -258 -264q0 -111 66 -319z" />
    <glyph glyph-name="uniF8F8" unicode="&#xf8f8;" horiz-adv-x="692" 
d="M191 1q73 137 163 225q22 -89 51 -132q38 -56 113 -93h-327zM328 337q-1 157 -122 262l264 2l-1 -27q-7 -50 -71 -138q-53 -72 -70 -99zM659 667q-93 -160 -120 -220q-43 -97 -43 -172q79 -109 143 -277q16 -40 30 -80q-21 26 -104 139q-91 124 -161 178q-18 15 -38 27
q38 167 214 334q32 31 79 71zM33 667q83 -158 108 -218q34 -85 49 -175q-76 -69 -114 -164q-22 -54 -53 -192q72 121 129 189q72 86 169 154q-36 158 -193 316q-39 39 -95 90z" />
    <glyph glyph-name="uniF8F9" unicode="&#xf8f9;" horiz-adv-x="692" 
d="M248 -87q54 235 54 491q0 47 -2 95q-42 45 -93 45q-72 0 -185 -93q38 86 144 134l150 69q22 11 47 30q21 -22 94 -58q96 -47 140 -88q49 -45 73 -99q-68 71 -154 94q-26 6 -44 6q-56 0 -66 -40q2 -206 42 -470l18 -116h-218z" />
    <glyph glyph-name="uniF8FF" unicode="&#xf8ff;" horiz-adv-x="820" 
d="M436 27l120 163q45 -79 145 -118q23 -9 102 -33q-55 -49 -174 -46l-63 1q-91 2 -130 33zM18 -83l-1 30q7 80 99 170l72 71l116 -154l-48 1q-67 1 -130 -46l-62 -48q-18 -13 -46 -24zM373 689l35 -212q28 -144 83 -240l-125 -179l-115 174q82 187 117 422q2 10 5 35z" />
    <glyph glyph-name="exclam" unicode="!" horiz-adv-x="333" 
d="M176 176l-9 108q-2 19 -6 56t-11 82q-4 27 -7.5 55l-6.5 52t-4.5 42.5t-1.5 27.5q0 35 14 56t39 21q53 0 53 -80q0 -11 -0.5 -19.5t-1.5 -17.5l-45 -383h-13zM183 98q23 0 38.5 -16t15.5 -39t-15.5 -37.5t-39.5 -14.5q-23 0 -37.5 14.5t-14.5 37.5t15 39t38 16z" />
    <glyph glyph-name="quotedbl" unicode="&#x22;" horiz-adv-x="408" 
d="M278 431q-6 34 -12 67.5t-10.5 62t-7 48.5t-2.5 26q0 17 12.5 29t30.5 12q17 0 29.5 -11.5t12.5 -28.5q0 -22 -6.5 -65t-18.5 -100l-7 -40h-21zM109 431q-6 34 -12 67.5t-10.5 62t-7 48.5t-2.5 26q0 17 12.5 29t30.5 12q17 0 29.5 -11.5t12.5 -28.5q0 -22 -6.5 -65
t-18.5 -100l-7 -40h-21z" />
    <glyph glyph-name="numbersign" unicode="#" 
d="M471 216h-109l-31 -216h-58l31 216h-134l-33 -216h-58l33 216h-107v55h116l21 134h-110v55h118l31 202h58l-31 -202h133l30 202h58l-30 -202h97v-55h-105l-20 -134h100v-55zM200 405l-21 -134h134l20 134h-133z" />
    <glyph glyph-name="dollar" unicode="$" 
d="M410 500q-13 64 -48 96.5t-98 40.5v-246q45 -26 74.5 -44t48 -32.5t30 -27t20.5 -27.5t14.5 -39.5t5.5 -50.5q0 -36 -13.5 -66t-38.5 -51q-14 -11 -27 -19t-29 -14t-36.5 -11t-48.5 -9v-87h-34v87q-32 1 -56.5 4t-45.5 9t-41.5 15t-42.5 23v130h15q18 -79 59 -115.5
t112 -37.5v282q-27 15 -45 26t-31.5 20t-24 17.5t-21.5 19.5q-30 28 -43 56t-13 63q0 32 14 61t40 49q12 10 24 16.5t26.5 11.5t32 8t41.5 6v63h34v-63q63 -8 99 -20t62 -33v-111h-15zM229 637q-103 -21 -103 -103q0 -17 4.5 -31.5t16 -28.5t31.5 -30t51 -37v230zM264 28
q59 11 86.5 39.5t27.5 78.5q0 23 -4.5 41t-17.5 34t-35 33t-57 39v-265z" />
    <glyph glyph-name="percent" unicode="%" horiz-adv-x="833" 
d="M669 371q49 0 76 -28t27 -79q0 -59 -23 -115.5t-63 -97.5q-51 -51 -117 -51q-54 0 -87 35t-33 94q0 47 18.5 90.5t49 77.5t70.5 54t82 20zM676 339q-47 0 -86 -58q-14 -20 -26 -44t-20.5 -49t-13.5 -49.5t-5 -44.5q0 -29 17 -46.5t44 -17.5t50 13.5t47 43.5q29 35 46 82
t17 90q0 33 -20.5 56.5t-49.5 23.5zM249 -13h-48l351 626q-30 -17 -53.5 -23.5t-56.5 -6.5q-22 0 -36.5 2.5t-28.5 7.5q7 -25 7 -44q0 -55 -22.5 -110t-61.5 -95q-25 -26 -57 -40.5t-64 -14.5q-24 0 -45.5 10t-37.5 27t-25.5 40.5t-9.5 49.5q0 48 18.5 92t49 78.5t70.5 55
t83 20.5q23 0 36.5 -5.5t33.5 -21.5q18 -15 37.5 -21t49.5 -6q23 0 43 3.5t38 11.5t36.5 21t38.5 32h39zM350 600q-22 6 -33 11t-22 15q-7 6 -13 6q-23 0 -49.5 -23.5t-48.5 -64.5q-20 -38 -33.5 -83t-13.5 -77q0 -27 16.5 -44t42.5 -17q30 0 59.5 19.5t52.5 52t37 73.5
t14 83q0 19 -9 49z" />
    <glyph glyph-name="ampersand" unicode="&#x26;" horiz-adv-x="778" 
d="M711 405q-19 -2 -32.5 -6t-24 -10.5t-19.5 -17t-18 -25.5l-26 -46q-12 -20 -22.5 -38t-22.5 -35.5t-25.5 -36t-29.5 -40.5q69 -92 154 -92q27 0 46.5 11.5t43.5 41.5l15 -11q-23 -54 -63 -83.5t-88 -29.5q-44 0 -83 21t-87 70q-28 -25 -54 -42t-52 -28t-53 -16t-57 -5
q-80 0 -125.5 40t-45.5 112q0 126 157 216l38 22q-10 28 -17 49t-11 37.5t-5.5 30.5t-1.5 28q0 32 12 60t33 49t49 33t60 12q60 0 97.5 -33.5t37.5 -87.5q0 -25 -9 -49.5t-25 -41.5q-11 -12 -21.5 -21.5t-24 -18.5t-32 -18.5t-43.5 -21.5q16 -32 31 -58.5t30.5 -50.5
t32.5 -47.5t38 -49.5q48 64 69.5 107t21.5 75q0 23 -13 32t-51 13v21h216v-21zM321 416q62 33 89.5 67t27.5 76q0 37 -22.5 61t-57.5 24t-56 -23t-21 -59q0 -34 8.5 -66.5t31.5 -79.5zM252 343q-65 -42 -91.5 -78.5t-26.5 -84.5q0 -29 10.5 -54.5t28 -45t41 -30.5t49.5 -11
q32 0 64 15t77 50q-21 26 -39 50.5t-35.5 52.5t-36.5 60.5t-41 75.5z" />
    <glyph glyph-name="quotesingle" unicode="'" horiz-adv-x="180" 
d="M80 431q-6 34 -12 67.5t-10.5 62t-7 48.5t-2.5 26q0 17 12.5 29t30.5 12q17 0 29.5 -11.5t12.5 -28.5q0 -22 -6.5 -65t-18.5 -100l-7 -40h-21z" />
    <glyph glyph-name="parenleft" unicode="(" horiz-adv-x="333" 
d="M304 660q-27 -22 -47 -40.5t-35 -36.5t-26.5 -37t-21.5 -42q-40 -92 -40 -249q0 -75 8.5 -133.5t26.5 -109.5q10 -28 21 -50t26.5 -41.5t36.5 -38.5t51 -43l-12 -16q-20 12 -35 22.5t-28.5 22.5t-27 25.5t-28.5 31.5q-66 76 -95.5 154t-29.5 173q0 174 106 304
q14 17 27.5 31.5t29.5 28t36 28t48 32.5z" />
    <glyph glyph-name="parenright" unicode=")" horiz-adv-x="333" 
d="M29 -161q27 22 46.5 40.5t34.5 36.5t26.5 37t22.5 43q40 90 40 248q0 75 -8.5 133.5t-26.5 109.5q-11 28 -22 49.5t-26 41t-36 39t-51 43.5l12 16q19 -12 34.5 -22.5t29 -22.5t27 -25.5t28.5 -31.5q33 -38 56.5 -76t39 -78t22.5 -82.5t7 -90.5q0 -174 -106 -304
q-14 -17 -27.5 -31.5t-29.5 -28t-36 -28t-48 -32.5z" />
    <glyph glyph-name="asterisk" unicode="*" 
d="M241 456q-26 -17 -35.5 -23t-16.5 -13q-3 -3 -6 -5.5t-7.5 -7t-11 -12.5t-17.5 -20q-13 -14 -21.5 -19t-20.5 -5q-17 0 -26.5 9t-9.5 26q0 19 14 29t48 16q17 3 29.5 6.5t24 7.5t23 10.5t26.5 15.5l-11 7q-28 19 -86 30q-36 7 -52 18t-16 29q0 15 10 25.5t24 10.5
q12 0 22.5 -7t25.5 -25q12 -14 22.5 -24t20.5 -18t21.5 -15.5t25.5 -15.5v13q0 41 -15 91q-5 16 -7.5 29t-2.5 22q0 15 10 25t25 10t25.5 -10.5t10.5 -26.5q0 -8 -2.5 -20t-7.5 -26q-17 -48 -17 -83v-26l7 4q34 19 72 64q35 41 56 41q16 0 26 -11t10 -28q0 -19 -11 -28
t-40 -14q-17 -3 -29.5 -6t-24.5 -7.5t-26 -11.5t-32 -17l8 -5q41 -25 97 -34q33 -5 46 -14.5t13 -29.5q0 -17 -9.5 -27t-25.5 -10q-14 0 -27.5 10t-32.5 33q-20 25 -36.5 39t-33.5 21l-7 3v-7q0 -58 20 -112q8 -21 8 -32q0 -16 -11.5 -28t-27.5 -12q-14 0 -24.5 11t-10.5 26
q0 18 11 46q20 52 17 84l-1 17v7z" />
    <glyph glyph-name="plus" unicode="+" horiz-adv-x="564" 
d="M249 506h66v-220h219v-66h-219v-220h-66v220h-219v66h219v220z" />
    <glyph glyph-name="comma" unicode="," horiz-adv-x="250" 
d="M74 -122q82 56 82 106q0 14 -14 14h-2t-6 -2q-5 -1 -9.5 -1.5t-9.5 -0.5q-27 0 -43 13.5t-16 37.5q0 26 16.5 41.5t42.5 15.5q34 0 57 -25.5t23 -63.5q0 -45 -30.5 -87t-81.5 -67z" />
    <glyph glyph-name="hyphen" unicode="-" horiz-adv-x="333" 
d="M285 257v-63h-246v63h246z" />
    <glyph glyph-name="period" unicode="." horiz-adv-x="250" 
d="M125 100q23 0 39.5 -17t16.5 -40q0 -22 -17 -38t-40 -16q-22 0 -38 16t-16 38q0 23 16 40t39 17z" />
    <glyph glyph-name="slash" unicode="/" horiz-adv-x="278" 
d="M59 -14h-68l229 690h67z" />
    <glyph glyph-name="zero" unicode="0" 
d="M254 676q49 0 90 -25t70 -71t45.5 -109.5t16.5 -140.5q0 -45 -7 -89t-19.5 -82t-30 -69t-39.5 -52q-53 -52 -130 -52q-89 0 -146 68q-18 21 -32.5 52.5t-25 69t-16.5 78.5t-6 82q0 44 7 86.5t19.5 80.5t30 69t39.5 52q28 26 60 39t74 13zM251 650q-65 0 -98 -81.5
t-33 -241.5q0 -157 32.5 -236t97.5 -79q130 0 130 316q0 158 -33 240t-96 82z" />
    <glyph glyph-name="one" unicode="1" 
d="M299 674v-600q0 -18 3.5 -29.5t14 -18t29 -9t48.5 -2.5v-15h-276v15q32 1 46 3.5t25 9.5q24 13 24 65v453q0 47 -30 47q-17 0 -45 -11q-3 -2 -10.5 -4.5t-16.5 -6.5v14l180 91z" />
    <glyph glyph-name="two" unicode="2" 
d="M420 0h-390v12l178 189q63 67 96.5 134t33.5 126q0 63 -39 102t-102 39q-26 0 -46 -6.5t-37 -21.5t-32 -40t-30 -62l-21 5q6 27 12.5 47t14 35.5t16.5 28.5t21 26q28 30 65 46t79 16q39 0 73 -13.5t58.5 -37.5t39 -56.5t14.5 -69.5q0 -59 -30.5 -118t-97.5 -129
l-168 -176h239q17 0 28.5 2.5t22 9.5t20.5 20t24 34l13 -5z" />
    <glyph glyph-name="three" unicode="3" 
d="M153 343q25 9 44 16.5t33.5 15.5t26 17t22.5 20q19 19 29.5 44.5t10.5 52.5q0 48 -30.5 77.5t-79.5 29.5q-48 0 -83 -25.5t-66 -80.5l-15 4q8 22 15.5 39t15 30t16.5 23.5t20 20.5q55 49 130 49q34 0 63 -10t49.5 -28t32 -43.5t11.5 -55.5q0 -41 -21 -72t-73 -66
q33 -14 50.5 -25t32.5 -28q22 -23 33.5 -57t11.5 -72q0 -51 -19 -93t-54 -73t-90 -49t-113 -18q-53 0 -83 15.5t-30 41.5q0 16 10.5 25.5t27.5 9.5q13 0 27 -5.5t37 -19.5q28 -18 46 -24.5t38 -6.5q28 0 52 11.5t41.5 31.5t27.5 47t10 59q0 52 -27 91.5t-74 56.5
q-18 7 -40 9t-66 2v13z" />
    <glyph glyph-name="four" unicode="4" 
d="M472 167h-102v-167h-77v167h-281v64l314 445h44v-445h102v-64zM292 574l-240 -343h240v343z" />
    <glyph glyph-name="five" unicode="5" 
d="M139 498q44 -8 77.5 -16.5t59.5 -19t45.5 -23.5t36.5 -29q37 -38 53 -76t16 -92q0 -112 -67 -178q-38 -38 -90.5 -58t-115.5 -20q-57 0 -89.5 16.5t-32.5 45.5q0 37 43 37q30 0 76 -33q23 -17 37.5 -23t29.5 -6q29 0 54.5 13t44 36.5t29.5 54.5t11 67q0 75 -40.5 122.5
t-127.5 75.5q-63 20 -113 20q-12 0 -12 8q0 3 1 5l109 237h209q16 0 25.5 5t20.5 21l9 -7l-38 -89q-2 -5 -6.5 -7t-16.5 -2h-196z" />
    <glyph glyph-name="six" unicode="6" 
d="M448 668q-59 -10 -109 -34.5t-88 -61t-63.5 -84.5t-35.5 -105q24 14 40.5 23t30.5 14t27 6.5t30 1.5q87 0 137.5 -56t50.5 -153q0 -52 -15.5 -95t-43 -73.5t-66.5 -47.5t-85 -17q-95 0 -154 68q-32 38 -51 98.5t-19 126.5q0 101 43 184t124 141q27 19 53 32.5t54.5 23
t61.5 15t76 9.5zM242 382q-54 0 -87 -25q-15 -11 -21.5 -33.5t-6.5 -60.5q0 -117 38 -183t104 -66q53 0 81 44t28 127q0 94 -35.5 145.5t-100.5 51.5z" />
    <glyph glyph-name="seven" unicode="7" 
d="M449 646l-212 -654h-65l198 596h-217q-21 0 -35.5 -3t-27 -12t-25 -25t-28.5 -41l-17 8l59 147h370v-16z" />
    <glyph glyph-name="eight" unicode="8" 
d="M290 371q45 -34 75 -61t48 -52t25 -49.5t7 -53.5q0 -78 -53 -123.5t-144 -45.5q-42 0 -77.5 12t-61 34t-39.5 52.5t-14 66.5q0 25 5 45t19.5 40t39.5 42.5t66 53.5q-39 34 -63.5 58.5t-38 44.5t-18 39.5t-4.5 43.5q0 34 14.5 63t40 50t60 33t75.5 12q37 0 69 -10.5
t54.5 -29.5t35.5 -45t13 -57q0 -26 -7 -47t-23 -40t-41.5 -37.5t-62.5 -38.5zM212 312q-44 -35 -62 -70t-18 -83q0 -66 35 -105.5t92 -39.5q49 0 79.5 30.5t30.5 79.5q0 21 -5 39t-16 34.5t-30 33.5t-46 37zM261 389q3 2 4 3t5 3q85 57 85 140q0 52 -30 82.5t-81 30.5
q-48 0 -78 -27.5t-30 -71.5q0 -42 29 -79t96 -81z" />
    <glyph glyph-name="nine" unicode="9" 
d="M56 -2q115 20 194 96.5t110 199.5q-40 -31 -74 -44t-76 -13q-41 0 -74 14.5t-56.5 41t-36.5 64t-13 83.5q0 51 16 94t43.5 74.5t65.5 49.5t83 18q48 0 89 -21t70 -58.5t45.5 -89t16.5 -113.5q0 -51 -11 -99t-32.5 -91t-52 -80t-69.5 -65q-26 -18 -50 -31.5t-51 -22.5
t-59.5 -15.5t-74.5 -11.5zM362 394q0 254 -132 254q-45 0 -71 -31q-16 -20 -26.5 -60t-10.5 -83q0 -90 33.5 -142t90.5 -52q27 0 53.5 9.5t47.5 27.5q8 7 11.5 15t3.5 23v39z" />
    <glyph glyph-name="colon" unicode=":" horiz-adv-x="278" 
d="M136 459q23 0 39.5 -17t16.5 -40q0 -22 -17 -38t-40 -16q-22 0 -38 16t-16 38q0 23 16 40t39 17zM136 100q23 0 39.5 -17t16.5 -40q0 -22 -17 -38t-40 -16q-22 0 -38 16t-16 38q0 23 16 40t39 17z" />
    <glyph glyph-name="semicolon" unicode=";" horiz-adv-x="278" 
d="M98 -122q82 56 82 106q0 14 -14 14h-2t-6 -2q-5 -1 -9.5 -1.5t-9.5 -0.5q-28 0 -43.5 13.5t-15.5 38.5q0 26 16.5 41t42.5 15q34 0 57 -25.5t23 -63.5q0 -45 -30 -86.5t-82 -67.5zM136 459q23 0 39.5 -17t16.5 -40q0 -22 -17 -38t-40 -16q-22 0 -38 16t-16 38q0 23 16 40
t39 17z" />
    <glyph glyph-name="less" unicode="&#x3c;" horiz-adv-x="564" 
d="M28 220v66l508 230v-72l-420 -191l420 -191v-72z" />
    <glyph glyph-name="equal" unicode="=" horiz-adv-x="564" 
d="M534 320h-504v66h504v-66zM534 120h-504v66h504v-66z" />
    <glyph glyph-name="greater" unicode="&#x3e;" horiz-adv-x="564" 
d="M28 62l420 191l-420 191v72l508 -230v-66l-508 -230v72z" />
    <glyph glyph-name="question" unicode="?" horiz-adv-x="444" 
d="M227 164q1 33 8.5 69t21.5 73l28 64q37 85 37 156q0 25 -8.5 47t-23 38t-34.5 25.5t-42 9.5q-18 0 -35.5 -5t-30.5 -14t-21 -20t-8 -23q0 -11 17 -31q21 -24 21 -43q0 -18 -11.5 -29.5t-29.5 -11.5q-48 0 -48 62q0 31 12.5 57.5t34 46t51 30.5t64.5 11q41 0 81.5 -16
t66.5 -42q17 -17 26.5 -42.5t9.5 -54.5q0 -31 -10.5 -60t-34.5 -66q-5 -8 -8.5 -13t-9.5 -12.5t-15.5 -19t-26.5 -32.5q-28 -35 -42.5 -69.5t-22.5 -84.5h-17zM237 99q22 0 38 -16t16 -39t-15.5 -37.5t-39.5 -14.5q-23 0 -37.5 14.5t-14.5 36.5q0 24 15 40t38 16z" />
    <glyph glyph-name="at" unicode="@" horiz-adv-x="921" 
d="M700 43q-36 -17 -65 -27.5t-54 -17.5t-48.5 -9.5t-49.5 -2.5q-78 0 -145 26t-116.5 72t-77.5 108t-28 134q0 73 28.5 137t78 111t116 74.5t142.5 27.5q69 0 129 -22.5t104.5 -62t69.5 -93t25 -115.5q0 -48 -15 -91.5t-40 -76.5t-58.5 -52.5t-70.5 -19.5q-36 0 -61 20
t-30 53q-26 -34 -59 -53t-66 -19q-18 0 -34 8.5t-28 23.5t-19 35.5t-7 44.5q0 55 22 108.5t62 93.5q50 50 112 50q13 0 23 -2.5t18 -8.5t15.5 -16t15.5 -25l10 38h69l-65 -254q-1 -5 -1.5 -9t-0.5 -9q0 -46 39 -46q25 0 48 16.5t41 44.5t29 63t11 73q0 56 -23 105.5
t-62 86.5t-91 58.5t-111 21.5q-55 0 -103.5 -19.5t-85.5 -56.5q-43 -45 -68 -110.5t-25 -135.5q0 -65 21.5 -120t60.5 -94.5t92.5 -61.5t117.5 -22q25 0 48 2.5t46 8.5t48 15t54 22zM531 464q-18 2 -42 -12t-45 -38q-26 -29 -39 -65t-13 -77q0 -39 16 -62t44 -23
q20 0 40.5 15.5t34.5 42.5q20 35 31.5 76.5t13.5 77.5q2 29 -9 46t-32 19z" />
    <glyph glyph-name="A" unicode="A" horiz-adv-x="722" 
d="M706 0h-255v19q40 1 55 8t15 26q0 11 -5 29t-14 38l-41 96h-262l-46 -117q-8 -21 -8 -39q0 -21 16 -31t52 -10v-19h-198v19q18 1 30.5 6t25.5 22t28.5 49t39.5 87l208 491h20l249 -568q13 -28 22.5 -44.5t19 -25.5t20.5 -12.5t28 -4.5v-19zM447 257l-116 275l-115 -275
h231z" />
    <glyph glyph-name="B" unicode="B" horiz-adv-x="667" 
d="M297 662q262 0 262 -170q0 -31 -10.5 -57t-29.5 -43q-18 -16 -38 -25t-59 -19q24 -6 42 -11.5t32 -12t25.5 -14t22.5 -17.5q23 -22 36 -51t13 -62q0 -36 -14.5 -68.5t-41.5 -56.5q-28 -26 -77.5 -40.5t-108.5 -14.5h-334v19q31 1 50 5t29 13.5t13.5 26.5t3.5 45v444
q0 28 -3 44.5t-13.5 26t-29.5 13.5t-50 6v19h280zM215 78q0 -24 13 -32.5t50 -8.5q50 0 82.5 6t56.5 20q61 35 61 116q0 92 -84 127q-14 6 -30 9.5t-37 6t-48.5 3.5t-63.5 1v-248zM310 366q71 0 109 31.5t38 90.5q0 67 -44.5 102t-131.5 35h-44q-22 0 -22 -30v-229h95z" />
    <glyph glyph-name="C" unicode="C" horiz-adv-x="667" 
d="M597 450q-7 24 -14 42.5t-14.5 32.5t-16.5 26t-21 24q-61 61 -149 61q-54 0 -98 -21t-75 -60t-48 -94t-17 -123q0 -84 22 -148.5t64 -101.5q66 -58 162 -58q63 0 115 23.5t108 77.5l18 -18q-46 -61 -117 -94t-156 -33q-75 0 -140.5 27t-110.5 76q-38 43 -59.5 104.5
t-21.5 131.5q0 83 27.5 150.5t80.5 114.5q47 42 106 64t121 22q72 0 146 -24q11 -5 21.5 -7t17.5 -2q15 0 26 8.5t16 24.5h21l9 -226h-23z" />
    <glyph glyph-name="D" unicode="D" horiz-adv-x="722" 
d="M104 553q0 28 -2.5 44.5t-11.5 25.5t-26.5 13t-47.5 7v19h270q103 0 183 -26.5t131 -78.5q42 -42 63.5 -98.5t21.5 -124.5q0 -73 -26.5 -136.5t-75.5 -108.5q-47 -42 -121 -65.5t-162 -23.5h-284v19q28 2 45.5 6t27 14t12.5 26.5t3 43.5v444zM206 78q0 -24 11 -32.5
t41 -8.5q66 0 112 9.5t84 31.5q122 71 122 249q0 81 -30 144t-89 104q-71 50 -199 50q-31 0 -41.5 -8t-10.5 -31v-508z" />
    <glyph glyph-name="E" unicode="E" horiz-adv-x="611" 
d="M552 0h-540v19q27 2 44 6.5t26.5 14t13 26.5t3.5 43v444q0 26 -3 42.5t-12.5 26.5t-26.5 14.5t-45 6.5v19h531l3 -143h-25q-6 34 -15 54.5t-25 31.5t-43 15t-69 4h-135q-20 0 -26.5 -6.5t-6.5 -27.5v-222h154q69 0 88 25q8 11 12.5 25t9.5 45h23v-232h-23q-5 31 -11 50
t-18 29t-31 13.5t-50 3.5h-154v-247q0 -27 7 -31q5 -5 33 -8.5t65 -3.5h27q54 0 90.5 5.5t62.5 20t45 40t38 66.5h28z" />
    <glyph glyph-name="F" unicode="F" horiz-adv-x="556" 
d="M456 231q-5 30 -11 49t-18 29.5t-31.5 14t-49.5 3.5h-145v-218q0 -27 3.5 -44t13 -26.5t27.5 -14t47 -5.5v-19h-280v19q28 2 45.5 6.5t26.5 15t12 29.5t3 50v433q0 26 -3 42.5t-12.5 26.5t-26.5 14.5t-45 6.5v19h531l3 -143h-25q-6 34 -15 54.5t-25 31.5t-43 15t-69 4
h-136q-20 0 -26 -6.5t-6 -27.5v-222h145q30 0 49 3.5t31 14t18.5 29t11.5 48.5h23v-232h-23z" />
    <glyph glyph-name="G" unicode="G" horiz-adv-x="722" 
d="M709 336q-22 -2 -35.5 -6t-21 -12.5t-10.5 -22.5t-3 -36v-203q-15 -13 -44 -25.5t-64.5 -22.5t-73 -16t-69.5 -6q-83 0 -152.5 27.5t-120.5 79.5q-83 87 -83 232q0 76 25.5 140.5t71 111.5t108.5 73t138 26q67 0 136 -23q14 -5 25 -7.5t19 -2.5q16 0 28 9.5t17 23.5h22
l8 -211h-23q-9 23 -17 40t-16.5 30.5t-17.5 24t-20 21.5q-60 55 -144 55q-51 0 -96 -19.5t-78 -56.5t-52.5 -100t-19.5 -134q0 -70 18 -125.5t52 -94.5t83 -59.5t110 -20.5q27 0 51 4.5t42.5 13t29 19t10.5 22.5v162q0 62 -21 75q-9 6 -22 9t-45 5v18h255v-18z" />
    <glyph glyph-name="H" unicode="H" horiz-adv-x="722" 
d="M512 359v194q0 27 -3 43.5t-12 26t-26.5 13.5t-46.5 7v19h278v-19q-29 -3 -46.5 -7t-26.5 -13.5t-12 -26t-3 -43.5v-444q0 -27 3 -43.5t12.5 -26t27 -14t45.5 -6.5v-19h-278v19q29 2 46.5 6t26.5 14.5t12 29.5t3 51v195h-303v-206q0 -27 3 -43.5t12.5 -26t27 -14
t45.5 -6.5v-19h-278v19q29 2 46.5 6t26.5 14.5t12 29.5t3 51v433q0 27 -3 43.5t-12 26t-26.5 13.5t-46.5 7v19h278v-19q-29 -3 -46.5 -7t-26.5 -13.5t-12 -26t-3 -43.5v-194h303z" />
    <glyph glyph-name="I" unicode="I" horiz-adv-x="333" 
d="M115 553q0 28 -3 44.5t-13.5 26t-29.5 13.5t-51 6v19h297v-19q-32 -2 -51 -5.5t-29.5 -13.5t-14 -27t-3.5 -44v-444q0 -27 4 -44.5t14.5 -27t29.5 -13.5t50 -5v-19h-297v19q31 1 50.5 4.5t29.5 13.5t13.5 27t3.5 45v444z" />
    <glyph glyph-name="J" unicode="J" horiz-adv-x="389" 
d="M278 183q0 -94 -44 -145.5t-125 -51.5q-44 0 -71.5 20t-27.5 52q0 20 14.5 35t34.5 15q37 0 52 -51q5 -19 10.5 -26t16.5 -7q38 0 38 66v463q0 27 -3 44t-13 26.5t-28 13.5t-49 6v19h287v-19q-30 -2 -48.5 -6t-28 -13.5t-12.5 -26.5t-3 -44v-370z" />
    <glyph glyph-name="K" unicode="K" horiz-adv-x="722" 
d="M413 662h262v-19q-26 -2 -43 -5t-33 -11.5t-33.5 -23t-42.5 -38.5l-190 -188l233 -250q34 -36 55.5 -57.5t37.5 -32.5t30 -14.5t34 -3.5v-19h-305v19q9 1 16.5 1h11.5q42 1 42 22q0 9 -9.5 26t-27 39.5t-41.5 49.5t-52 55l-106 105l-26 -21v-187q0 -27 3 -44t12.5 -26.5
t27.5 -13.5t47 -6v-19h-282v19q30 2 47.5 6.5t27 15t12.5 29.5t3 50v433q0 27 -3 43.5t-12.5 26t-27.5 14t-47 6.5v19h284v-19q-30 -2 -48.5 -6t-28 -13.5t-12.5 -26.5t-3 -44v-205l177 161q42 38 60 62t18 41q0 15 -9.5 21.5t-32.5 8.5h-10t-16 1v19z" />
    <glyph glyph-name="L" unicode="L" horiz-adv-x="611" 
d="M598 174l-48 -174h-538v19q27 2 44 6.5t26.5 14t13 26.5t3.5 43v444q0 26 -3 42.5t-12.5 26.5t-26.5 14.5t-45 6.5v19h282v-19q-30 -2 -48 -6.5t-28 -14t-13.5 -26t-3.5 -43.5v-473q0 -13 3 -21t12.5 -12.5t26.5 -6t44 -1.5h67q122 0 173 57q11 13 22 31t24 47h25z" />
    <glyph glyph-name="M" unicode="M" horiz-adv-x="889" 
d="M418 0h-14l-251 550v-403q0 -38 4 -62t14.5 -38.5t28.5 -20.5t47 -7v-19h-235v19q31 2 50 8t29.5 19.5t14 37.5t3.5 63v406q0 27 -3.5 44t-13.5 26.5t-28.5 13.5t-49.5 6v19h198l231 -505l221 505h199v-19q-28 -2 -45 -6.5t-26.5 -14t-12.5 -26t-3 -43.5v-444
q0 -27 3.5 -43.5t13 -26.5t26.5 -14t44 -6v-19h-280v19q30 2 47.5 6.5t27.5 15t13 29.5t3 50v453z" />
    <glyph glyph-name="N" unicode="N" horiz-adv-x="722" 
d="M595 -11l-442 550v-392q0 -38 4 -62t14.5 -38.5t28.5 -20.5t47 -7v-19h-235v19q31 2 50 8t29.5 19.5t14 37.5t3.5 63v441q-15 18 -26 28.5t-21.5 16.5t-22 8t-27.5 2v19h171l385 -484v337q0 92 -29 112q-11 7 -24.5 10.5t-42.5 5.5v19h235v-19q-29 -3 -42 -6.5t-24 -11.5
q-29 -20 -29 -110v-526h-17z" />
    <glyph glyph-name="O" unicode="O" horiz-adv-x="722" 
d="M361 676q72 0 133.5 -26.5t109.5 -78.5q42 -45 63 -107t21 -137t-24.5 -138t-68.5 -108t-105 -70t-135 -25q-66 0 -128.5 27t-106.5 75q-41 44 -63.5 108t-22.5 135q0 75 24 138.5t67.5 109.5t103.5 71.5t132 25.5zM361 640q-84 0 -143 -65q-16 -18 -29 -44t-22 -58.5
t-14 -69t-5 -74.5q0 -84 23 -153.5t62 -104.5q26 -23 58.5 -36t67.5 -13q80 0 133 53q35 35 49 73q15 39 24 87t9 93q0 90 -22 157.5t-63 104.5q-27 24 -60 37t-68 13z" />
    <glyph glyph-name="P" unicode="P" horiz-adv-x="556" 
d="M202 109q0 -27 3.5 -44.5t14 -27t28.5 -13.5t48 -5v-19h-280v19q28 3 45 7t25.5 14.5t11 29t2.5 50.5v433q0 27 -2.5 43.5t-11.5 25.5t-25.5 13.5t-44.5 7.5v19h264q35 0 68.5 -5t62.5 -14.5t52 -23t38 -29.5q41 -44 41 -109q0 -50 -25.5 -92.5t-70.5 -66.5
q-32 -18 -74 -26t-101 -8q-20 0 -34.5 0.5t-34.5 2.5v-182zM202 331q17 -2 29.5 -2.5t27.5 -0.5q174 0 174 147q0 78 -47.5 114t-149.5 36q-20 0 -27 -7t-7 -27v-260z" />
    <glyph glyph-name="Q" unicode="Q" horiz-adv-x="722" 
d="M701 -177h-6q-8 -1 -16 -1h-19q-120 0 -208.5 31t-139.5 91l-47 55q-27 9 -47 17.5t-36 18.5t-30 22t-29 28q-89 97 -89 244q0 76 24 140t67.5 110t103.5 71.5t132 25.5t132 -25.5t103.5 -71.5t67.5 -109.5t24 -138.5q0 -168 -112 -268q-17 -15 -33 -26t-33.5 -19
t-38 -14t-45.5 -11q30 -39 61 -67.5t64 -47t70 -27.5t80 -10v-18zM364 640q-85 0 -146 -65q-15 -17 -28 -43.5t-22.5 -58t-14.5 -67t-5 -71.5q0 -88 22.5 -158.5t62.5 -105.5q55 -49 128 -49q42 0 79 16.5t65 47.5q15 17 27.5 44t22 59.5t14.5 69.5t5 74q0 85 -22.5 153
t-63.5 104q-26 23 -59 36.5t-65 13.5z" />
    <glyph glyph-name="R" unicode="R" horiz-adv-x="667" 
d="M659 0h-161l-238 308l-56 -2v-197q0 -27 3 -43.5t13 -26.5t27.5 -14t46.5 -6v-19h-277v19q28 2 45 6.5t26 15t11.5 29.5t2.5 50v433q0 27 -2.5 43t-11.5 25.5t-26 14t-45 7.5v19h276q71 0 128.5 -18t86.5 -49q39 -44 39 -109q0 -35 -13.5 -65t-37.5 -50
q-12 -10 -24.5 -17.5t-27.5 -13.5t-34 -11t-44 -10l206 -253q22 -26 40 -35.5t47 -11.5v-19zM204 343q36 1 61.5 2.5t45.5 5.5t36.5 10t33.5 16q27 14 42 43.5t15 67.5q0 71 -44.5 104t-138.5 33q-30 0 -40.5 -7.5t-10.5 -28.5v-246z" />
    <glyph glyph-name="S" unicode="S" horiz-adv-x="556" 
d="M469 463h-25q-12 44 -25 68.5t-36 48.5q-53 55 -122 55q-47 0 -75.5 -25.5t-28.5 -67.5q0 -41 34 -76.5t113 -79.5q99 -53 143 -105t44 -113q0 -39 -15.5 -72t-43 -57.5t-65 -38.5t-80.5 -14q-60 0 -118 23q-30 11 -47 11q-11 0 -19 -9.5t-9 -23.5h-22l-30 212h23
q38 -92 86.5 -134.5t115.5 -42.5q55 0 89 31t34 82q0 38 -14 58q-39 59 -149 117q-84 44 -120 89.5t-36 105.5q0 78 53 125q25 22 56.5 34t63.5 12q48 0 106 -22q13 -6 24.5 -9t19.5 -3q26 0 32 34h21z" />
    <glyph glyph-name="T" unicode="T" horiz-adv-x="611" 
d="M200 620q-42 0 -68.5 -4.5t-44 -18.5t-27.5 -39t-19 -66h-24l6 170h564l6 -170h-24q-9 41 -18.5 66.5t-26.5 39t-44 18t-70 4.5h-54v-511q0 -27 3.5 -44t14 -27t29 -14t49.5 -5v-19h-292v19q31 2 49.5 6t28.5 14.5t13 29.5t3 51v500h-54z" />
    <glyph glyph-name="U" unicode="U" horiz-adv-x="722" 
d="M611 254q0 -58 -7.5 -95.5t-25.5 -69.5q-59 -103 -223 -103q-128 0 -189.5 62t-61.5 193v312q0 27 -3 44t-12.5 26.5t-27 13.5t-47.5 6v19h283v-19q-30 -3 -48 -7t-27.5 -13.5t-12.5 -26t-3 -43.5v-320q0 -48 5.5 -78t19.5 -54q41 -71 147 -71q57 0 101.5 21.5t64.5 57.5
q12 23 17.5 54t5.5 82v270q0 37 -3.5 61t-14 38t-29 20.5t-47.5 8.5v19h232v-19q-31 -4 -49.5 -10t-28.5 -19.5t-13 -37t-3 -61.5v-261z" />
    <glyph glyph-name="V" unicode="V" horiz-adv-x="722" 
d="M697 643q-18 -1 -30 -4.5t-21.5 -13.5t-19 -27.5t-21.5 -47.5l-222 -561h-15l-246 549q-16 33 -28 53.5t-23 31.5t-24 15t-31 5v19h266v-19q-11 -1 -18.5 -1.5t-10.5 -0.5q-46 -3 -46 -31q0 -6 2 -13.5t6.5 -20t12.5 -31.5t20 -46l151 -338l147 367q19 47 19 73
q0 21 -15.5 30.5t-57.5 11.5v19h205v-19z" />
    <glyph glyph-name="W" unicode="W" horiz-adv-x="944" 
d="M932 643q-20 -4 -32.5 -8t-21.5 -11.5t-15.5 -20t-13.5 -31.5q-27 -74 -47 -127.5t-35.5 -96.5t-28.5 -80t-26.5 -77t-29.5 -88.5t-37 -113.5h-15l-160 423l-154 -423h-15l-193 537q-14 35 -24.5 57t-21.5 35t-24.5 18t-32.5 7v19h245v-19q-38 -2 -51.5 -8.5t-13.5 -23.5
q0 -18 11 -46l144 -376l107 282l-33 82q-13 30 -22 47.5t-19.5 27t-24.5 12.5t-35 3v19h267v-19q-41 -1 -59 -9t-18 -26q0 -8 4 -21.5t11 -29.5q0 -1 2 -5t4 -9t3.5 -9.5t2.5 -6.5l132 -341l125 339q8 21 12 40t4 35q0 20 -15.5 29.5t-53.5 13.5v19h198v-19z" />
    <glyph glyph-name="X" unicode="X" horiz-adv-x="722" 
d="M696 643q-24 -2 -41 -5.5t-33 -13.5t-33.5 -28t-41.5 -47l-146 -182l192 -274q16 -22 28 -35.5t24 -21t25.5 -11.5t33.5 -6v-19h-297v19q9 1 16.5 1.5t10.5 0.5q50 1 50 29q0 11 -13 36t-38 62l-95 140l-119 -148q-28 -35 -40 -55t-12 -31q0 -17 16 -24.5t60 -10.5v-19
h-233v19q19 1 31.5 4.5t26.5 14.5t34 33t53 62l157 193l-109 160q-37 52 -60.5 82.5t-42.5 47t-36.5 21.5t-41.5 6v19h302v-19l-28 -1q-48 -1 -48 -29q0 -17 19.5 -51.5t65.5 -98.5l42 -59l113 138q22 27 31 42.5t9 26.5q0 17 -14.5 23.5t-55.5 8.5v19h238v-19z" />
    <glyph glyph-name="Y" unicode="Y" horiz-adv-x="722" 
d="M703 643q-19 -2 -34.5 -7.5t-31 -18t-32.5 -34t-40 -54.5l-148 -226v-194q0 -29 3.5 -46t14.5 -26.5t31.5 -13t53.5 -4.5v-19h-306v19q34 1 54 5t30.5 14.5t13.5 29.5t3 52v174l-131 192q-38 53 -61 84t-39.5 47t-30 20.5t-31.5 5.5v19h280v-19q-8 -1 -15 -1h-10
q-46 -3 -46 -29q0 -19 17 -44l148 -222l143 226q14 23 14 37q0 18 -15 25t-54 8v19h219v-19z" />
    <glyph glyph-name="Z" unicode="Z" horiz-adv-x="611" 
d="M597 176l-24 -176h-564v15l437 609h-221q-100 0 -134 -43q-13 -16 -20 -34.5t-14 -55.5h-26l20 171h526v-15l-432 -609h257q88 0 125 39q7 8 13 16.5t11.5 20t11 26.5t11.5 36h23z" />
    <glyph glyph-name="bracketleft" unicode="[" horiz-adv-x="333" 
d="M299 -156h-211v818h211v-25h-90q-24 0 -34.5 -10.5t-10.5 -33.5v-672q0 -52 49 -52h86v-25z" />
    <glyph glyph-name="backslash" unicode="\" horiz-adv-x="278" 
d="M58 676l229 -690h-68l-228 690h67z" />
    <glyph glyph-name="bracketright" unicode="]" horiz-adv-x="333" 
d="M124 -131q45 0 45 44v672q0 52 -49 52h-86v25h211v-818h-211v25h90z" />
    <glyph glyph-name="asciicircum" unicode="^" horiz-adv-x="469" 
d="M24 297l181 365h60l181 -365h-68l-143 289l-143 -289h-68z" />
    <glyph glyph-name="underscore" unicode="_" 
d="M0 -125v50h500v-50h-500z" />
    <glyph glyph-name="grave" unicode="`" horiz-adv-x="333" 
d="M202 507l-154 97q-29 19 -29 43q0 31 34 31q11 0 19.5 -4.5t22.5 -18.5l147 -148h-40z" />
    <glyph glyph-name="a" unicode="a" horiz-adv-x="444" 
d="M442 40q-26 -29 -45 -39.5t-45 -10.5q-31 0 -45.5 17t-18.5 56q-46 -39 -79.5 -56t-66.5 -17q-46 0 -75.5 29.5t-29.5 77.5q0 25 9.5 48.5t26.5 38.5q16 14 30 24t35.5 21t56 25.5t92.5 37.5v61q0 83 -76 83q-30 0 -51 -14.5t-21 -34.5q0 -11 3 -24q1 -5 1.5 -9t0.5 -7
q0 -17 -13.5 -29.5t-31.5 -12.5q-17 0 -30 13t-13 30q0 24 13 44.5t35.5 35.5t53.5 23.5t66 8.5q90 0 124 -55q11 -18 15.5 -42t4.5 -63v-195q0 -33 6.5 -45.5t23.5 -12.5q11 0 21 4t23 15v-26zM287 268q-45 -17 -76 -32t-50 -31.5t-27.5 -35t-8.5 -40.5v-4
q0 -32 18.5 -54.5t44.5 -22.5q16 0 35.5 6t37.5 17q16 9 21 19t5 33v145z" />
    <glyph glyph-name="b" unicode="b" 
d="M153 375q15 37 54 61t85 24q37 0 69.5 -16.5t56 -46t37 -69t13.5 -85.5q0 -54 -18 -100t-49.5 -80t-74.5 -53.5t-92 -19.5q-30 0 -59.5 5.5t-53 14.5t-38 20.5t-14.5 23.5v519q0 32 -9.5 41.5t-39.5 9.5h-8.5t-8.5 -1v16l29 8q18 5 32 9t27.5 8t27 8.5t29.5 10.5l5 -2
v-306zM153 70q0 -19 29 -33.5t68 -14.5q62 0 96 45.5t34 129.5q0 92 -34.5 146t-93.5 54q-20 0 -37.5 -6t-31.5 -16.5t-22 -24t-8 -28.5v-252z" />
    <glyph glyph-name="c" unicode="c" horiz-adv-x="444" 
d="M412 147q-23 -44 -39.5 -68t-36.5 -42q-55 -47 -121 -47q-42 0 -76.5 16.5t-60 46t-39.5 70.5t-14 90q0 60 20 109t58 82q31 27 67.5 41.5t73.5 14.5q31 0 59 -8t49 -22.5t33.5 -33t12.5 -39.5q0 -17 -14 -29.5t-34 -12.5q-16 0 -28.5 12.5t-18.5 33.5l-6 22
q-8 28 -20 38t-39 10q-30 0 -55 -12.5t-43 -35.5t-28 -55t-10 -71q0 -43 11.5 -79t32 -61.5t49 -40t62.5 -14.5q21 0 39 5t34.5 16t33 29t34.5 44z" />
    <glyph glyph-name="d" unicode="d" 
d="M340 -7v64q-26 -35 -56 -51t-72 -16q-41 0 -75 15.5t-58.5 44t-38 68t-13.5 87.5q0 53 16.5 99.5t44.5 81t66 54.5t81 20q30 0 53 -9.5t52 -33.5v156q0 31 -9 41t-37 10h-11t-11 -1v16q24 6 43 11.5t36.5 10.5t33.5 10.5t34 11.5l5 -2v-567q0 -35 8.5 -46t35.5 -11h5.5
t17.5 1v-16l-147 -52zM340 332q0 20 -8.5 38t-22.5 32t-32.5 22t-38.5 8q-57 0 -91 -51t-34 -136q0 -93 37.5 -148t100.5 -55q45 0 72 30q8 8 12.5 16.5t4.5 13.5v230z" />
    <glyph glyph-name="e" unicode="e" horiz-adv-x="444" 
d="M424 157q-32 -81 -86 -124t-126 -43q-87 0 -137 60t-50 164q0 62 19.5 112.5t54.5 81.5q58 52 135 52q39 0 72 -15t56 -42q9 -12 16 -24t12 -26.5t8.5 -33t6.5 -42.5h-308q2 -46 7.5 -74.5t19.5 -57.5q44 -86 129 -86q48 0 83.5 24t71.5 81zM303 309q-10 65 -31 90
t-67 25q-90 0 -106 -115h204z" />
    <glyph glyph-name="f" unicode="f" horiz-adv-x="333" 
d="M309 418h-122v-314q0 -28 3 -45t12.5 -26.5t28 -13t49.5 -4.5v-15h-260v15q27 1 43.5 5t25 13.5t11.5 26.5t3 44v314h-82v32h82q0 30 2 52.5t6 41t10.5 34t16.5 32.5q20 35 57 54t84 19q45 0 74.5 -17.5t29.5 -44.5q0 -17 -12.5 -29t-29.5 -12q-13 0 -23 8t-22 28
q-14 22 -25.5 30.5t-27.5 8.5q-57 0 -57 -89v-116h123v-32z" />
    <glyph glyph-name="g" unicode="g" 
d="M387 388q11 -24 15 -43t4 -41q0 -38 -11.5 -65t-36.5 -48q-23 -20 -51.5 -31t-56.5 -11q-10 0 -38 3q-2 0 -7 0.5t-12 1.5q-10 -3 -20.5 -10.5t-19.5 -16.5t-14.5 -19t-5.5 -17q0 -24 78 -27l129 -6q56 -2 88.5 -31t32.5 -76q0 -56 -55 -101q-39 -32 -93.5 -50
t-111.5 -18q-36 0 -67.5 7.5t-55 21t-37 31t-13.5 37.5q0 28 22 55.5t76 66.5q-31 15 -42 26t-11 27q0 15 10.5 31t35.5 38q5 4 17 15t26 25q-50 25 -71.5 55.5t-21.5 78.5q0 34 13 64t35.5 52t53 34.5t65.5 12.5q39 0 80 -15l22 -8q15 -5 27.5 -7.5t27.5 -2.5h77v-39h-83z
M147 -2q-16 -19 -25.5 -31.5t-15 -21.5t-7 -16.5t-1.5 -16.5q0 -33 40 -53t106 -20q85 0 137 26.5t52 70.5q0 27 -27.5 38t-96.5 11q-18 0 -41 1t-46 3t-43 4t-32 5zM152 335q0 -72 28.5 -116.5t73.5 -44.5q35 0 55 24.5t20 66.5q0 29 -8 61.5t-22 58.5q-25 47 -73 47
q-35 0 -54.5 -24.5t-19.5 -69.5v-3z" />
    <glyph glyph-name="h" unicode="h" 
d="M157 102q0 -26 2.5 -42t10 -25t20.5 -13.5t35 -6.5v-15h-216v15q22 3 34.5 7t19 13t8.5 25t2 42v471q0 32 -9.5 41.5t-41.5 9.5q-8 0 -12 -1v16l27 8q21 6 37 10.5t29 9t24.5 8t24.5 8.5l5 -3v-304q35 45 68.5 64.5t78.5 19.5q123 0 123 -159v-199q0 -26 2 -41.5t8 -24.5
t18 -13t32 -8v-15h-212v15q22 2 35 6.5t20.5 14t10 25t2.5 41.5v198q0 106 -75 106q-29 0 -54 -14t-57 -49v-241z" />
    <glyph glyph-name="i" unicode="i" horiz-adv-x="278" 
d="M179 457v-355q0 -27 2.5 -43.5t10 -25.5t22 -12.5t39.5 -5.5v-15h-237v15q26 1 41.5 5t24 13t11 25.5t2.5 43.5v232q0 33 -7.5 46.5t-25.5 13.5q-16 0 -34 -3l-8 -1v15l155 55zM128 683q22 0 37 -15t15 -36q0 -22 -15 -36.5t-37 -14.5q-21 0 -35.5 15t-14.5 36t15 36
t35 15z" />
    <glyph glyph-name="j" unicode="j" horiz-adv-x="278" 
d="M193 0q0 -107 -43 -162.5t-126 -55.5q-41 0 -67.5 15.5t-26.5 39.5q0 17 12 28t29 11q12 0 23 -7.5t25 -24.5q13 -16 22 -22t20 -6t20 5t14 13q4 7 7 16.5t4.5 23t2 33t0.5 48.5v379q0 32 -7.5 46t-24.5 14q-8 0 -18.5 -0.5t-21.5 -2.5l-5 -1v16q44 13 78 25t78 29l5 -3
v-457zM142 683q22 0 37 -15t15 -36q0 -22 -15 -36.5t-37 -14.5q-21 0 -35.5 15t-14.5 36t15 36t35 15z" />
    <glyph glyph-name="k" unicode="k" 
d="M7 639l30 8q22 6 39 10.5t31 9t27.5 8t27.5 8.5l4 -2v-420l137 122q23 20 23 34q0 11 -10.5 14.5t-39.5 4.5v14h204v-15h-8q-24 0 -46 -6t-65 -38t-97 -82l-29 -27l153 -194q32 -38 58 -54.5t59 -18.5v-15h-218v15h19q9 0 15 4t6 11t-11 21q-3 3 -7 9l-3 4l-140 187v-184
q0 -26 12.5 -37.5t42.5 -13.5l20 -1v-15h-234v15q27 4 42 8t22.5 10.5t9 17.5t1.5 31v482q0 36 -9 48.5t-34 12.5q-8 0 -15 -0.5t-17 -1.5v16z" />
    <glyph glyph-name="l" unicode="l" horiz-adv-x="278" 
d="M19 639q26 6 46.5 11.5t39 10.5t36 10.5t37.5 11.5l4 -2v-597q0 -21 3 -33.5t11 -20t22.5 -11t38.5 -4.5v-15h-236v15q24 2 39 6t23.5 12t11.5 21t3 33v477q0 35 -9 48t-33 13q-6 0 -14.5 -0.5t-16.5 -1.5h-6v16z" />
    <glyph glyph-name="m" unicode="m" horiz-adv-x="778" 
d="M19 415q41 11 71.5 21t68.5 24l7 -2v-75q31 24 53 39t39 23.5t31.5 11.5t31.5 3q79 0 106 -84q41 44 80 64t83 20q116 0 116 -178v-206q0 -56 43 -59l26 -2v-15h-219v15q22 3 35 6.5t20 11t9 20.5t2 34v211q0 62 -16 86t-59 24q-35 0 -60.5 -14.5t-48.5 -46.5v-252
q0 -23 3 -38.5t11.5 -24.5t22.5 -13t35 -4v-15h-224v15q21 1 34.5 4.5t21 11.5t10 21t2.5 34v217q0 105 -66 105q-26 0 -55 -11.5t-48 -28.5q-5 -5 -10 -11t-5 -8v-282q0 -29 14 -39.5t54 -12.5v-15h-222v15q42 1 56 15t14 55v253q0 36 -7.5 50t-27.5 14q-15 0 -32 -4v17z
" />
    <glyph glyph-name="n" unicode="n" 
d="M16 415q21 6 38 11t33 10.5t32.5 11t34.5 12.5l7 -2v-79q25 24 44.5 39.5t36 25t32 13t32.5 3.5q56 0 87 -39.5t31 -110.5v-229q0 -18 2.5 -30t9.5 -19.5t19 -11t30 -5.5v-15h-208v15q37 3 50 20t13 64v209q0 97 -73 97q-12 0 -23 -2.5t-23 -9t-25.5 -17.5t-31.5 -28
v-281q0 -27 14 -38t52 -14v-15h-212v15q19 1 31 5t19 12.5t9.5 22.5t2.5 35v248q0 37 -8 50.5t-29 13.5q-19 0 -27 -4v17z" />
    <glyph glyph-name="o" unicode="o" 
d="M250 460q48 0 88.5 -17t69.5 -47t45.5 -71.5t16.5 -90.5q0 -52 -17 -96.5t-47 -77.5t-70.5 -51.5t-87.5 -18.5t-87.5 18t-69.5 49.5t-45.5 74.5t-16.5 94q0 52 16 95t45.5 74t70 48t89.5 17zM237 432q-54 0 -86 -42.5t-32 -114.5q0 -54 11.5 -104t32.5 -89q16 -30 42 -47
t55 -17q57 0 88.5 48t31.5 133q0 51 -10.5 94t-29.5 74t-45.5 48t-57.5 17z" />
    <glyph glyph-name="p" unicode="p" 
d="M9 409q21 6 38.5 12t34 12t34 12.5t37.5 14.5l6 -2v-77q33 41 67.5 60t76.5 19q36 0 67 -16t53 -44t34.5 -67.5t12.5 -85.5q0 -54 -16 -101t-44.5 -81.5t-67 -54.5t-82.5 -20q-32 0 -53.5 9t-47.5 34v-157q0 -24 3 -38.5t12.5 -22.5t27 -11t45.5 -3v-18h-242v17
q22 2 36 6t21.5 11.5t10 19.5t2.5 32v468q0 35 -7.5 46t-33.5 11h-12.5t-12.5 -1v16zM159 88q0 -11 9.5 -23t24.5 -21.5t33.5 -15.5t36.5 -6q27 0 49.5 13.5t38 38t24.5 58.5t9 76q0 43 -9 78.5t-25 61t-38.5 39t-50.5 13.5q-17 0 -35 -6t-33 -15.5t-24.5 -21.5t-9.5 -23
v-246z" />
    <glyph glyph-name="q" unicode="q" 
d="M414 457h11v-598q0 -16 2 -26t9 -16.5t19 -11t33 -8.5v-14h-236v17q27 2 44 6t27 12.5t14 22.5t4 35v188q-33 -36 -73 -55t-84 -19q-35 0 -64.5 16t-50.5 44.5t-33 68t-12 86.5q0 54 17 100.5t46.5 81t70 54.5t87.5 20q29 0 54.5 -8t60.5 -28zM341 333q0 100 -93 100
q-64 0 -101 -51.5t-37 -140.5q0 -50 14.5 -94t38.5 -66q30 -30 78 -30q23 0 46 8.5t40 22.5q14 11 14 45v206z" />
    <glyph glyph-name="r" unicode="r" horiz-adv-x="333" 
d="M7 406q22 7 40.5 13.5t35.5 12.5t34.5 13l37.5 15l5 -2v-92q18 27 33.5 45t29.5 29t27.5 15.5t29.5 4.5q26 0 40.5 -14t14.5 -39q0 -21 -10.5 -33t-28.5 -12q-17 0 -40 20q-17 15 -26 15q-10 0 -22.5 -8.5t-23 -20.5t-17.5 -26.5t-7 -26.5v-225q0 -21 3.5 -35t13.5 -22.5
t26 -12.5t42 -5v-15h-240v15q24 4 38 8.5t21.5 11.5t9.5 18.5t2 30.5v250q0 33 -7.5 46.5t-26.5 13.5q-16 0 -35 -4v16z" />
    <glyph glyph-name="s" unicode="s" horiz-adv-x="389" 
d="M300 314q-17 67 -42 95t-68 28q-35 0 -56 -19t-21 -49q0 -43 43 -68l108 -64q45 -27 64.5 -54t19.5 -65q0 -26 -11 -49.5t-30.5 -41t-45 -27.5t-54.5 -10q-14 0 -33 2.5t-40 7.5q-17 5 -28 6.5t-18 1.5q-9 0 -13.5 -2t-9.5 -10h-13v156h16q10 -43 18.5 -64.5t24.5 -40.5
q14 -17 36 -26t48 -9q38 0 60.5 19.5t22.5 52.5q0 45 -52 75l-58 33q-64 36 -90.5 69t-26.5 75q0 27 10 49.5t28 39t43 25.5t55 9q37 0 70 -12q8 -4 15 -5.5t12 -1.5q3 0 5 1.5t9 6.5l2 2h11l4 -136h-15z" />
    <glyph glyph-name="t" unicode="t" horiz-adv-x="278" 
d="M255 418h-101v-286q0 -48 12 -69t40 -21q17 0 30.5 8t29.5 27l13 -11q-48 -76 -120 -76q-89 0 -89 127v301h-53q-4 3 -4 7q0 8 17 19q6 1 16.5 10.5t23.5 24t28 33t29 39.5q5 8 10 14.5t10 13.5q7 0 7 -13v-116h101v-32z" />
    <glyph glyph-name="u" unicode="u" 
d="M479 36q-38 -11 -68.5 -20.5t-68.5 -24.5l-4 2v83l-43 -43q-20 -20 -47.5 -31.5t-55.5 -11.5q-55 0 -88 35t-33 95v252q0 35 -13 48.5t-49 15.5v14h146v-326q0 -32 21 -54t50 -22q46 0 88 34q11 8 15 20t4 33v235q0 19 -3 30.5t-11 18.5t-22.5 10t-37.5 4v17h158v-343
q0 -35 11 -46t46 -11h5v-14z" />
    <glyph glyph-name="v" unicode="v" 
d="M477 435q-11 -1 -18.5 -4t-14.5 -11t-14 -23t-18 -40l-128 -321q-11 -28 -17 -39t-11 -11q-9 0 -18 26q-2 6 -4 11l-4 10l-120 287q-17 39 -28 61.5t-20.5 34t-19 15t-23.5 4.5v15h196v-15q-26 -2 -36 -8t-10 -20q0 -16 9 -37l102 -256l99 259q6 15 6 30q0 28 -47 32v15
h139v-15z" />
    <glyph glyph-name="w" unicode="w" horiz-adv-x="722" 
d="M694 450v-15q-8 -3 -12.5 -5.5t-8.5 -8t-8.5 -15t-11.5 -25.5l-138 -346q-12 -30 -17.5 -39.5t-10.5 -9.5t-9 7.5t-15 35.5l-91 236l-112 -240q-18 -39 -25 -39q-8 0 -26 44l-135 342q-8 19 -14 31t-12 19t-12 9.5t-15 3.5v15h180v-15q-26 -3 -36 -10t-10 -23
q0 -15 6 -30l99 -261l91 199l-10 28l-10 28q-8 20 -14.5 33t-14 20.5t-17 10.5t-23.5 5v15h203v-15q-35 -5 -46.5 -12t-11.5 -24q0 -5 0.5 -8.5t2 -9t5 -15t9.5 -26.5l84 -224l90 222q17 42 17 66q0 13 -9 19.5t-35 11.5v15h123z" />
    <glyph glyph-name="x" unicode="x" 
d="M278 15q25 2 32.5 6t7.5 18q0 9 -6 18l-91 140l-79 -123q-20 -31 -20 -41q0 -18 40 -18v-15h-145v15q12 1 21 3.5t16.5 8t16 15t19.5 24.5l114 165l-94 144q-23 35 -39 47.5t-38 12.5h-9v15h207v-15q-43 -1 -43 -22q0 -10 12.5 -33.5t33.5 -55.5l14 -20l18 27t12 17
q37 46 37 65q0 11 -8.5 15.5t-31.5 6.5v15h158v-15q-24 -1 -45.5 -12.5t-35.5 -31.5l-83 -120l128 -196q23 -33 41 -46.5t41 -13.5v-15h-201v15z" />
    <glyph glyph-name="y" unicode="y" 
d="M475 435q-18 -2 -28 -11.5t-20 -33.5l-154 -408q-20 -54 -39.5 -92t-40 -62t-42.5 -35t-47 -11q-32 0 -53 16.5t-21 41.5q0 18 13 31t30 13q23 0 53 -11q14 -7 25 -7t25 12.5t25 32.5q6 11 13 27.5t13 32.5t10 29t4 19q0 11 -11.5 37t-32.5 64l-15 30l-3 8l-114 246
q-12 26 -51 32v14h206v-15q-32 -2 -45 -7.5t-13 -19.5q0 -15 10 -38l115 -253l97 276q4 9 4 17q0 25 -48 25v15h135v-15z" />
    <glyph glyph-name="z" unicode="z" horiz-adv-x="444" 
d="M404 0h-377v15l266 405h-138q-23 0 -37.5 -3.5t-23.5 -13t-14.5 -27t-8.5 -44.5h-18l3 118h347v-15l-269 -405h138q78 0 99 26q5 6 8.5 13t7 16t6.5 22t7 32l18 -4z" />
    <glyph glyph-name="braceleft" unicode="{" horiz-adv-x="480" 
d="M350 -181q-25 0 -43 1.5t-32 4.5t-25 7.5t-21 11.5q-21 14 -32.5 43.5t-11.5 71.5v177q0 26 -4 44t-13.5 31t-26 22t-41.5 17q25 7 41.5 16t26 21.5t13.5 31t4 44.5v178q0 87 44 114q11 7 22 11.5t24.5 7.5t31.5 4.5t43 1.5v-11q-26 -7 -43.5 -16.5t-28 -23.5t-15 -34.5
t-4.5 -48.5v-168q0 -31 -4 -52.5t-14.5 -36t-29 -24t-46.5 -16.5q28 -7 46.5 -16.5t29 -23.5t14.5 -35.5t4 -52.5v-168q0 -56 19.5 -83t71.5 -40v-11z" />
    <glyph glyph-name="bar" unicode="|" horiz-adv-x="200" 
d="M67 676h66v-690h-66v690z" />
    <glyph glyph-name="braceright" unicode="}" horiz-adv-x="480" 
d="M130 680q25 0 43 -1.5t32 -4.5t24.5 -7.5t21.5 -11.5q21 -14 32.5 -43.5t11.5 -71.5v-177q0 -26 4 -44.5t13.5 -31t26 -21.5t41.5 -16q-25 -8 -41.5 -17t-26 -21.5t-13.5 -31t-4 -44.5v-178q0 -87 -44 -114q-11 -7 -22 -11.5t-24.5 -7.5t-31.5 -4.5t-43 -1.5v11
q52 13 71.5 40t19.5 83v168q0 31 4 52.5t14.5 36t29 23.5t46.5 17q-28 7 -46.5 16t-29 23.5t-14.5 35.5t-4 53v168q0 28 -4.5 48.5t-15 34.5t-28 23.5t-43.5 16.5v11z" />
    <glyph glyph-name="asciitilde" unicode="~" horiz-adv-x="541" 
d="M502 271q-35 -48 -61.5 -66.5t-61.5 -18.5q-17 0 -30.5 2t-29 7.5t-37.5 16t-55 28.5q-26 14 -59 14q-23 0 -38.5 -11t-35.5 -40l-54 32q35 48 61.5 66.5t61.5 18.5q17 0 30.5 -2t29 -7.5t37.5 -16t55 -28.5q26 -14 59 -14q23 0 38.5 11t35.5 40z" />
    <glyph glyph-name="Adieresis" unicode="&#xc4;" horiz-adv-x="722" 
d="M706 0h-255v19q40 1 55 8t15 26q0 11 -5 29t-14 38l-41 96h-262l-46 -117q-8 -21 -8 -39q0 -21 16 -31t52 -10v-19h-198v19q18 1 30.5 6t25.5 22t28.5 49t39.5 87l208 491h20l249 -568q13 -28 22.5 -44.5t19 -25.5t20.5 -12.5t28 -4.5v-19zM447 257l-116 275l-115 -275
h231zM254 834q21 0 36 -15t15 -35t-15 -34.5t-36 -14.5q-20 0 -34 14.5t-14 35.5q0 20 14.5 34.5t33.5 14.5zM453 834q21 0 36 -15t15 -35t-15 -34.5t-36 -14.5q-20 0 -34 14.5t-14 35.5q0 20 14.5 34.5t33.5 14.5z" />
    <glyph glyph-name="Aring" unicode="&#xc5;" horiz-adv-x="722" 
d="M706 0h-255v19q40 1 55 8t15 26q0 11 -5 29t-14 38l-41 96h-262l-46 -117q-8 -21 -8 -39q0 -21 16 -31t52 -10v-19h-198v19q18 1 30.5 6t25.5 22t28.5 49t39.5 87l208 491h20l249 -568q13 -28 22.5 -44.5t19 -25.5t20.5 -12.5t28 -4.5v-19zM447 257l-116 275l-115 -275
h231zM351 915q42 0 71 -29t29 -71t-29 -70.5t-71 -28.5t-70.5 29t-28.5 71q0 20 8 38t21.5 31.5t31.5 21.5t38 8zM352 881q-27 0 -46.5 -19t-19.5 -46t19 -46.5t45 -19.5q28 0 47.5 19t19.5 46t-19.5 46.5t-45.5 19.5z" />
    <glyph glyph-name="Ccedilla" unicode="&#xc7;" horiz-adv-x="667" 
d="M316 -65q8 2 13 2.5t13 0.5q41 0 63.5 -18.5t22.5 -50.5q0 -39 -33.5 -61.5t-91.5 -22.5q-24 0 -43 3.5t-41 12.5l14 31q21 -7 35 -9.5t30 -2.5q26 0 40.5 12t14.5 32t-12 28t-41 8q-17 0 -28 -4l-7 5l37 89q-63 9 -113.5 37t-86 71.5t-55 101t-19.5 125.5
q0 83 27.5 150.5t80.5 114.5q47 42 106 64t121 22q72 0 146 -24q11 -5 21.5 -7t17.5 -2q15 0 26 8.5t16 24.5h21l9 -226h-23q-7 24 -14 42.5t-14.5 32.5t-16.5 26t-21 24q-61 61 -149 61q-54 0 -98 -21t-75 -60t-48 -94t-17 -123q0 -84 22 -148.5t64 -101.5q66 -58 162 -58
q63 0 115 23.5t108 77.5l18 -18q-45 -61 -116.5 -94t-156.5 -33h-11.5t-12.5 1z" />
    <glyph glyph-name="Eacute" unicode="&#xc9;" horiz-adv-x="611" 
d="M552 0h-540v19q27 2 44 6.5t26.5 14t13 26.5t3.5 43v444q0 26 -3 42.5t-12.5 26.5t-26.5 14.5t-45 6.5v19h531l3 -143h-25q-6 34 -15 54.5t-25 31.5t-43 15t-69 4h-135q-20 0 -26.5 -6.5t-6.5 -27.5v-222h154q69 0 88 25q8 11 12.5 25t9.5 45h23v-232h-23q-5 31 -11 50
t-18 29t-31 13.5t-50 3.5h-154v-247q0 -27 7 -31q5 -5 33 -8.5t65 -3.5h27q54 0 90.5 5.5t62.5 20t45 40t38 66.5h28zM233 719l147 148q14 14 22.5 18.5t19.5 4.5q35 0 35 -32q0 -23 -30 -42l-154 -97h-40z" />
    <glyph glyph-name="Ntilde" unicode="&#xd1;" horiz-adv-x="722" 
d="M595 -11l-442 550v-392q0 -38 4 -62t14.5 -38.5t28.5 -20.5t47 -7v-19h-235v19q31 2 50 8t29.5 19.5t14 37.5t3.5 63v441q-15 18 -26 28.5t-21.5 16.5t-22 8t-27.5 2v19h171l385 -484v337q0 92 -29 112q-11 7 -24.5 10.5t-42.5 5.5v19h235v-19q-29 -3 -42 -6.5t-24 -11.5
q-29 -20 -29 -110v-526h-17zM526 850q-16 -57 -39.5 -81.5t-65.5 -24.5q-19 0 -34.5 4.5t-46.5 19.5l-23 11q-24 11 -41 11q-35 0 -51 -46h-29q11 49 37 75t64 26q35 0 70 -18l24 -12q14 -7 28 -11t25 -4q17 0 28.5 10.5t24.5 39.5h29z" />
    <glyph glyph-name="Odieresis" unicode="&#xd6;" horiz-adv-x="722" 
d="M361 676q72 0 133.5 -26.5t109.5 -78.5q42 -45 63 -107t21 -137t-24.5 -138t-68.5 -108t-105 -70t-135 -25q-66 0 -128.5 27t-106.5 75q-41 44 -63.5 108t-22.5 135q0 75 24 138.5t67.5 109.5t103.5 71.5t132 25.5zM361 640q-84 0 -143 -65q-16 -18 -29 -44t-22 -58.5
t-14 -69t-5 -74.5q0 -84 23 -153.5t62 -104.5q26 -23 58.5 -36t67.5 -13q80 0 133 53q35 35 49 73q15 39 24 87t9 93q0 90 -22 157.5t-63 104.5q-27 24 -60 37t-68 13zM261 834q21 0 36 -15t15 -35t-15 -34.5t-36 -14.5q-20 0 -34 14.5t-14 35.5q0 20 14.5 34.5t33.5 14.5z
M460 834q21 0 36 -15t15 -35t-15 -34.5t-36 -14.5q-20 0 -34 14.5t-14 35.5q0 20 14.5 34.5t33.5 14.5z" />
    <glyph glyph-name="Udieresis" unicode="&#xdc;" horiz-adv-x="722" 
d="M611 254q0 -58 -7.5 -95.5t-25.5 -69.5q-59 -103 -223 -103q-128 0 -189.5 62t-61.5 193v312q0 27 -3 44t-12.5 26.5t-27 13.5t-47.5 6v19h283v-19q-30 -3 -48 -7t-27.5 -13.5t-12.5 -26t-3 -43.5v-320q0 -48 5.5 -78t19.5 -54q41 -71 147 -71q57 0 101.5 21.5t64.5 57.5
q12 23 17.5 54t5.5 82v270q0 37 -3.5 61t-14 38t-29 20.5t-47.5 8.5v19h232v-19q-31 -4 -49.5 -10t-28.5 -19.5t-13 -37t-3 -61.5v-261zM278 834q21 0 36 -15t15 -35t-15 -34.5t-36 -14.5q-20 0 -34 14.5t-14 35.5q0 20 14.5 34.5t33.5 14.5zM477 834q21 0 36 -15t15 -35
t-15 -34.5t-36 -14.5q-20 0 -34 14.5t-14 35.5q0 20 14.5 34.5t33.5 14.5z" />
    <glyph glyph-name="aacute" unicode="&#xe1;" horiz-adv-x="444" 
d="M442 40q-26 -29 -45 -39.5t-45 -10.5q-31 0 -45.5 17t-18.5 56q-46 -39 -79.5 -56t-66.5 -17q-46 0 -75.5 29.5t-29.5 77.5q0 25 9.5 48.5t26.5 38.5q16 14 30 24t35.5 21t56 25.5t92.5 37.5v61q0 83 -76 83q-30 0 -51 -14.5t-21 -34.5q0 -11 3 -24q1 -5 1.5 -9t0.5 -7
q0 -17 -13.5 -29.5t-31.5 -12.5q-17 0 -30 13t-13 30q0 24 13 44.5t35.5 35.5t53.5 23.5t66 8.5q90 0 124 -55q11 -18 15.5 -42t4.5 -63v-195q0 -33 6.5 -45.5t23.5 -12.5q11 0 21 4t23 15v-26zM287 268q-45 -17 -76 -32t-50 -31.5t-27.5 -35t-8.5 -40.5v-4
q0 -32 18.5 -54.5t44.5 -22.5q16 0 35.5 6t37.5 17q16 9 21 19t5 33v145zM149 507l147 148q14 14 22.5 18.5t19.5 4.5q35 0 35 -32q0 -23 -30 -42l-154 -97h-40z" />
    <glyph glyph-name="agrave" unicode="&#xe0;" horiz-adv-x="444" 
d="M442 40q-26 -29 -45 -39.5t-45 -10.5q-31 0 -45.5 17t-18.5 56q-46 -39 -79.5 -56t-66.5 -17q-46 0 -75.5 29.5t-29.5 77.5q0 25 9.5 48.5t26.5 38.5q16 14 30 24t35.5 21t56 25.5t92.5 37.5v61q0 83 -76 83q-30 0 -51 -14.5t-21 -34.5q0 -11 3 -24q1 -5 1.5 -9t0.5 -7
q0 -17 -13.5 -29.5t-31.5 -12.5q-17 0 -30 13t-13 30q0 24 13 44.5t35.5 35.5t53.5 23.5t66 8.5q90 0 124 -55q11 -18 15.5 -42t4.5 -63v-195q0 -33 6.5 -45.5t23.5 -12.5q11 0 21 4t23 15v-26zM287 268q-45 -17 -76 -32t-50 -31.5t-27.5 -35t-8.5 -40.5v-4
q0 -32 18.5 -54.5t44.5 -22.5q16 0 35.5 6t37.5 17q16 9 21 19t5 33v145zM257 507l-154 97q-29 19 -29 43q0 31 34 31q11 0 19.5 -4.5t22.5 -18.5l147 -148h-40z" />
    <glyph glyph-name="acircumflex" unicode="&#xe2;" horiz-adv-x="444" 
d="M442 40q-26 -29 -45 -39.5t-45 -10.5q-31 0 -45.5 17t-18.5 56q-46 -39 -79.5 -56t-66.5 -17q-46 0 -75.5 29.5t-29.5 77.5q0 25 9.5 48.5t26.5 38.5q16 14 30 24t35.5 21t56 25.5t92.5 37.5v61q0 83 -76 83q-30 0 -51 -14.5t-21 -34.5q0 -11 3 -24q1 -5 1.5 -9t0.5 -7
q0 -17 -13.5 -29.5t-31.5 -12.5q-17 0 -30 13t-13 30q0 24 13 44.5t35.5 35.5t53.5 23.5t66 8.5q90 0 124 -55q11 -18 15.5 -42t4.5 -63v-195q0 -33 6.5 -45.5t23.5 -12.5q11 0 21 4t23 15v-26zM287 268q-45 -17 -76 -32t-50 -31.5t-27.5 -35t-8.5 -40.5v-4
q0 -32 18.5 -54.5t44.5 -22.5q16 0 35.5 6t37.5 17q16 9 21 19t5 33v145zM344 507l-122 103l-121 -103h-34l124 167h62l125 -167h-34z" />
    <glyph glyph-name="adieresis" unicode="&#xe4;" horiz-adv-x="444" 
d="M442 40q-26 -29 -45 -39.5t-45 -10.5q-31 0 -45.5 17t-18.5 56q-46 -39 -79.5 -56t-66.5 -17q-46 0 -75.5 29.5t-29.5 77.5q0 25 9.5 48.5t26.5 38.5q16 14 30 24t35.5 21t56 25.5t92.5 37.5v61q0 83 -76 83q-30 0 -51 -14.5t-21 -34.5q0 -11 3 -24q1 -5 1.5 -9t0.5 -7
q0 -17 -13.5 -29.5t-31.5 -12.5q-17 0 -30 13t-13 30q0 24 13 44.5t35.5 35.5t53.5 23.5t66 8.5q90 0 124 -55q11 -18 15.5 -42t4.5 -63v-195q0 -33 6.5 -45.5t23.5 -12.5q11 0 21 4t23 15v-26zM287 268q-45 -17 -76 -32t-50 -31.5t-27.5 -35t-8.5 -40.5v-4
q0 -32 18.5 -54.5t44.5 -22.5q16 0 35.5 6t37.5 17q16 9 21 19t5 33v145zM121 622q21 0 36 -15t15 -35t-15 -34.5t-36 -14.5q-20 0 -34 14.5t-14 35.5q0 20 14.5 34.5t33.5 14.5zM320 622q21 0 36 -15t15 -35t-15 -34.5t-36 -14.5q-20 0 -34 14.5t-14 35.5q0 20 14.5 34.5
t33.5 14.5z" />
    <glyph glyph-name="atilde" unicode="&#xe3;" horiz-adv-x="444" 
d="M442 40q-26 -29 -45 -39.5t-45 -10.5q-31 0 -45.5 17t-18.5 56q-46 -39 -79.5 -56t-66.5 -17q-46 0 -75.5 29.5t-29.5 77.5q0 25 9.5 48.5t26.5 38.5q16 14 30 24t35.5 21t56 25.5t92.5 37.5v61q0 83 -76 83q-30 0 -51 -14.5t-21 -34.5q0 -11 3 -24q1 -5 1.5 -9t0.5 -7
q0 -17 -13.5 -29.5t-31.5 -12.5q-17 0 -30 13t-13 30q0 24 13 44.5t35.5 35.5t53.5 23.5t66 8.5q90 0 124 -55q11 -18 15.5 -42t4.5 -63v-195q0 -33 6.5 -45.5t23.5 -12.5q11 0 21 4t23 15v-26zM287 268q-45 -17 -76 -32t-50 -31.5t-27.5 -35t-8.5 -40.5v-4
q0 -32 18.5 -54.5t44.5 -22.5q16 0 35.5 6t37.5 17q16 9 21 19t5 33v145zM387 638q-16 -57 -39.5 -81.5t-65.5 -24.5q-19 0 -34.5 4.5t-46.5 19.5l-23 11q-24 11 -41 11q-35 0 -51 -46h-29q11 49 37 75t64 26q35 0 70 -18l24 -12q14 -7 28 -11t25 -4q17 0 28.5 10.5
t24.5 39.5h29z" />
    <glyph glyph-name="aring" unicode="&#xe5;" horiz-adv-x="444" 
d="M442 40q-26 -29 -45 -39.5t-45 -10.5q-31 0 -45.5 17t-18.5 56q-46 -39 -79.5 -56t-66.5 -17q-46 0 -75.5 29.5t-29.5 77.5q0 25 9.5 48.5t26.5 38.5q16 14 30 24t35.5 21t56 25.5t92.5 37.5v61q0 83 -76 83q-30 0 -51 -14.5t-21 -34.5q0 -11 3 -24q1 -5 1.5 -9t0.5 -7
q0 -17 -13.5 -29.5t-31.5 -12.5q-17 0 -30 13t-13 30q0 24 13 44.5t35.5 35.5t53.5 23.5t66 8.5q90 0 124 -55q11 -18 15.5 -42t4.5 -63v-195q0 -33 6.5 -45.5t23.5 -12.5q11 0 21 4t23 15v-26zM287 268q-45 -17 -76 -32t-50 -31.5t-27.5 -35t-8.5 -40.5v-4
q0 -32 18.5 -54.5t44.5 -22.5q16 0 35.5 6t37.5 17q16 9 21 19t5 33v145zM221 721q42 0 71 -29t29 -71t-29 -70.5t-71 -28.5t-70.5 29t-28.5 71q0 20 8 38t21.5 31.5t31.5 21.5t38 8zM222 687q-27 0 -46.5 -19t-19.5 -46t19 -46.5t45 -19.5q28 0 47.5 19t19.5 46t-19.5 46.5
t-45.5 19.5z" />
    <glyph glyph-name="ccedilla" unicode="&#xe7;" horiz-adv-x="444" 
d="M205 -65q8 2 13 2.5t13 0.5q41 0 63.5 -18.5t22.5 -50.5q0 -39 -33.5 -61.5t-91.5 -22.5q-24 0 -43 3.5t-41 12.5l14 31q20 -7 34.5 -9.5t30.5 -2.5q26 0 40.5 12t14.5 32t-12 28t-41 8q-17 0 -28 -4l-7 5l38 91q-38 5 -69 23t-52.5 47t-33.5 67t-12 83q0 60 20 109.5
t58 82.5q31 27 67.5 41.5t73.5 14.5q31 0 59 -8t49 -22.5t33.5 -33t12.5 -39.5q0 -17 -14 -29.5t-33 -12.5q-35 0 -48 46l-6 22q-8 28 -20 38t-39 10q-30 0 -55 -12.5t-43 -35.5t-28 -55t-10 -71q0 -43 11.5 -79t32 -61.5t49 -40t62.5 -14.5q21 0 39 5t34.5 16t33 29
t34.5 44l14 -9q-39 -79 -82 -115.5t-104 -41.5z" />
    <glyph glyph-name="eacute" unicode="&#xe9;" horiz-adv-x="444" 
d="M424 157q-32 -81 -86 -124t-126 -43q-87 0 -137 60t-50 164q0 62 19.5 112.5t54.5 81.5q58 52 135 52q39 0 72 -15t56 -42q9 -12 16 -24t12 -26.5t8.5 -33t6.5 -42.5h-308q2 -46 7.5 -74.5t19.5 -57.5q44 -86 129 -86q48 0 83.5 24t71.5 81zM303 309q-10 65 -31 90
t-67 25q-90 0 -106 -115h204zM149 507l147 148q14 14 22.5 18.5t19.5 4.5q35 0 35 -32q0 -23 -30 -42l-154 -97h-40z" />
    <glyph glyph-name="egrave" unicode="&#xe8;" horiz-adv-x="444" 
d="M424 157q-32 -81 -86 -124t-126 -43q-87 0 -137 60t-50 164q0 62 19.5 112.5t54.5 81.5q58 52 135 52q39 0 72 -15t56 -42q9 -12 16 -24t12 -26.5t8.5 -33t6.5 -42.5h-308q2 -46 7.5 -74.5t19.5 -57.5q44 -86 129 -86q48 0 83.5 24t71.5 81zM303 309q-10 65 -31 90
t-67 25q-90 0 -106 -115h204zM257 507l-154 97q-29 19 -29 43q0 31 34 31q11 0 19.5 -4.5t22.5 -18.5l147 -148h-40z" />
    <glyph glyph-name="ecircumflex" unicode="&#xea;" horiz-adv-x="444" 
d="M424 157q-32 -81 -86 -124t-126 -43q-87 0 -137 60t-50 164q0 62 19.5 112.5t54.5 81.5q58 52 135 52q39 0 72 -15t56 -42q9 -12 16 -24t12 -26.5t8.5 -33t6.5 -42.5h-308q2 -46 7.5 -74.5t19.5 -57.5q44 -86 129 -86q48 0 83.5 24t71.5 81zM303 309q-10 65 -31 90
t-67 25q-90 0 -106 -115h204zM344 507l-122 103l-121 -103h-34l124 167h62l125 -167h-34z" />
    <glyph glyph-name="edieresis" unicode="&#xeb;" horiz-adv-x="444" 
d="M424 157q-32 -81 -86 -124t-126 -43q-87 0 -137 60t-50 164q0 62 19.5 112.5t54.5 81.5q58 52 135 52q39 0 72 -15t56 -42q9 -12 16 -24t12 -26.5t8.5 -33t6.5 -42.5h-308q2 -46 7.5 -74.5t19.5 -57.5q44 -86 129 -86q48 0 83.5 24t71.5 81zM303 309q-10 65 -31 90
t-67 25q-90 0 -106 -115h204zM121 622q21 0 36 -15t15 -35t-15 -34.5t-36 -14.5q-20 0 -34 14.5t-14 35.5q0 20 14.5 34.5t33.5 14.5zM320 622q21 0 36 -15t15 -35t-15 -34.5t-36 -14.5q-20 0 -34 14.5t-14 35.5q0 20 14.5 34.5t33.5 14.5z" />
    <glyph glyph-name="iacute" unicode="&#xed;" horiz-adv-x="278" 
d="M179 457v-355q0 -27 2.5 -43.5t10 -25.5t22 -12.5t39.5 -5.5v-15h-237v15q26 1 41.5 5t24 13t11 25.5t2.5 43.5v232q0 33 -7.5 46.5t-25.5 13.5q-16 0 -34 -3l-8 -1v15l155 55zM66 507l147 148q14 14 22.5 18.5t19.5 4.5q35 0 35 -32q0 -23 -30 -42l-154 -97h-40z" />
    <glyph glyph-name="igrave" unicode="&#xec;" horiz-adv-x="278" 
d="M179 457v-355q0 -27 2.5 -43.5t10 -25.5t22 -12.5t39.5 -5.5v-15h-237v15q26 1 41.5 5t24 13t11 25.5t2.5 43.5v232q0 33 -7.5 46.5t-25.5 13.5q-16 0 -34 -3l-8 -1v15l155 55zM175 507l-154 97q-29 19 -29 43q0 31 34 31q11 0 19.5 -4.5t22.5 -18.5l147 -148h-40z" />
    <glyph glyph-name="icircumflex" unicode="&#xee;" horiz-adv-x="278" 
d="M179 457v-355q0 -27 2.5 -43.5t10 -25.5t22 -12.5t39.5 -5.5v-15h-237v15q26 1 41.5 5t24 13t11 25.5t2.5 43.5v232q0 33 -7.5 46.5t-25.5 13.5q-16 0 -34 -3l-8 -1v15l155 55zM261 507l-122 103l-121 -103h-34l124 167h62l125 -167h-34z" />
    <glyph glyph-name="idieresis" unicode="&#xef;" horiz-adv-x="278" 
d="M59 622q21 0 36 -15t15 -35t-15 -34.5t-36 -14.5q-20 0 -34 14.5t-14 35.5q0 20 14.5 34.5t33.5 14.5zM218 622q21 0 36 -15t15 -35t-15 -34.5t-36 -14.5q-20 0 -34 14.5t-14 35.5q0 20 14.5 34.5t33.5 14.5zM179 457v-355q0 -27 2.5 -43.5t10 -25.5t22 -12.5t39.5 -5.5
v-15h-237v15q26 1 41.5 5t24 13t11 25.5t2.5 43.5v232q0 33 -7.5 46.5t-25.5 13.5q-16 0 -34 -3l-8 -1v15l155 55z" />
    <glyph glyph-name="ntilde" unicode="&#xf1;" 
d="M16 415q21 6 38 11t33 10.5t32.5 11t34.5 12.5l7 -2v-79q25 24 44.5 39.5t36 25t32 13t32.5 3.5q56 0 87 -39.5t31 -110.5v-229q0 -18 2.5 -30t9.5 -19.5t19 -11t30 -5.5v-15h-208v15q37 3 50 20t13 64v209q0 97 -73 97q-12 0 -23 -2.5t-23 -9t-25.5 -17.5t-31.5 -28
v-281q0 -27 14 -38t52 -14v-15h-212v15q19 1 31 5t19 12.5t9.5 22.5t2.5 35v248q0 37 -8 50.5t-29 13.5q-19 0 -27 -4v17zM415 638q-16 -57 -39.5 -81.5t-65.5 -24.5q-19 0 -34.5 4.5t-46.5 19.5l-23 11q-24 11 -41 11q-35 0 -51 -46h-29q11 49 37 75t64 26q35 0 70 -18
l24 -12q14 -7 28 -11t25 -4q17 0 28.5 10.5t24.5 39.5h29z" />
    <glyph glyph-name="oacute" unicode="&#xf3;" 
d="M250 460q48 0 88.5 -17t69.5 -47t45.5 -71.5t16.5 -90.5q0 -52 -17 -96.5t-47 -77.5t-70.5 -51.5t-87.5 -18.5t-87.5 18t-69.5 49.5t-45.5 74.5t-16.5 94q0 52 16 95t45.5 74t70 48t89.5 17zM237 432q-54 0 -86 -42.5t-32 -114.5q0 -54 11.5 -104t32.5 -89q16 -30 42 -47
t55 -17q57 0 88.5 48t31.5 133q0 51 -10.5 94t-29.5 74t-45.5 48t-57.5 17zM177 507l147 148q14 14 22.5 18.5t19.5 4.5q35 0 35 -32q0 -23 -30 -42l-154 -97h-40z" />
    <glyph glyph-name="ograve" unicode="&#xf2;" 
d="M250 460q48 0 88.5 -17t69.5 -47t45.5 -71.5t16.5 -90.5q0 -52 -17 -96.5t-47 -77.5t-70.5 -51.5t-87.5 -18.5t-87.5 18t-69.5 49.5t-45.5 74.5t-16.5 94q0 52 16 95t45.5 74t70 48t89.5 17zM237 432q-54 0 -86 -42.5t-32 -114.5q0 -54 11.5 -104t32.5 -89q16 -30 42 -47
t55 -17q57 0 88.5 48t31.5 133q0 51 -10.5 94t-29.5 74t-45.5 48t-57.5 17zM285 507l-154 97q-29 19 -29 43q0 31 34 31q11 0 19.5 -4.5t22.5 -18.5l147 -148h-40z" />
    <glyph glyph-name="ocircumflex" unicode="&#xf4;" 
d="M250 460q48 0 88.5 -17t69.5 -47t45.5 -71.5t16.5 -90.5q0 -52 -17 -96.5t-47 -77.5t-70.5 -51.5t-87.5 -18.5t-87.5 18t-69.5 49.5t-45.5 74.5t-16.5 94q0 52 16 95t45.5 74t70 48t89.5 17zM237 432q-54 0 -86 -42.5t-32 -114.5q0 -54 11.5 -104t32.5 -89q16 -30 42 -47
t55 -17q57 0 88.5 48t31.5 133q0 51 -10.5 94t-29.5 74t-45.5 48t-57.5 17zM372 507l-122 103l-121 -103h-34l124 167h62l125 -167h-34z" />
    <glyph glyph-name="odieresis" unicode="&#xf6;" 
d="M250 460q48 0 88.5 -17t69.5 -47t45.5 -71.5t16.5 -90.5q0 -52 -17 -96.5t-47 -77.5t-70.5 -51.5t-87.5 -18.5t-87.5 18t-69.5 49.5t-45.5 74.5t-16.5 94q0 52 16 95t45.5 74t70 48t89.5 17zM237 432q-54 0 -86 -42.5t-32 -114.5q0 -54 11.5 -104t32.5 -89q16 -30 42 -47
t55 -17q57 0 88.5 48t31.5 133q0 51 -10.5 94t-29.5 74t-45.5 48t-57.5 17zM149 622q21 0 36 -15t15 -35t-15 -34.5t-36 -14.5q-20 0 -34 14.5t-14 35.5q0 20 14.5 34.5t33.5 14.5zM348 622q21 0 36 -15t15 -35t-15 -34.5t-36 -14.5q-20 0 -34 14.5t-14 35.5q0 20 14.5 34.5
t33.5 14.5z" />
    <glyph glyph-name="otilde" unicode="&#xf5;" 
d="M250 460q48 0 88.5 -17t69.5 -47t45.5 -71.5t16.5 -90.5q0 -52 -17 -96.5t-47 -77.5t-70.5 -51.5t-87.5 -18.5t-87.5 18t-69.5 49.5t-45.5 74.5t-16.5 94q0 52 16 95t45.5 74t70 48t89.5 17zM237 432q-54 0 -86 -42.5t-32 -114.5q0 -54 11.5 -104t32.5 -89q16 -30 42 -47
t55 -17q57 0 88.5 48t31.5 133q0 51 -10.5 94t-29.5 74t-45.5 48t-57.5 17zM415 638q-16 -57 -39.5 -81.5t-65.5 -24.5q-19 0 -34.5 4.5t-46.5 19.5l-23 11q-24 11 -41 11q-35 0 -51 -46h-29q11 49 37 75t64 26q35 0 70 -18l24 -12q14 -7 28 -11t25 -4q17 0 28.5 10.5
t24.5 39.5h29z" />
    <glyph glyph-name="uacute" unicode="&#xfa;" 
d="M479 36q-38 -11 -68.5 -20.5t-68.5 -24.5l-4 2v83l-43 -43q-20 -20 -47.5 -31.5t-55.5 -11.5q-55 0 -88 35t-33 95v252q0 35 -13 48.5t-49 15.5v14h146v-326q0 -32 21 -54t50 -22q46 0 88 34q11 8 15 20t4 33v235q0 19 -3 30.5t-11 18.5t-22.5 10t-37.5 4v17h158v-343
q0 -35 11 -46t46 -11h5v-14zM177 507l147 148q14 14 22.5 18.5t19.5 4.5q35 0 35 -32q0 -23 -30 -42l-154 -97h-40z" />
    <glyph glyph-name="ugrave" unicode="&#xf9;" 
d="M479 36q-38 -11 -68.5 -20.5t-68.5 -24.5l-4 2v83l-43 -43q-20 -20 -47.5 -31.5t-55.5 -11.5q-55 0 -88 35t-33 95v252q0 35 -13 48.5t-49 15.5v14h146v-326q0 -32 21 -54t50 -22q46 0 88 34q11 8 15 20t4 33v235q0 19 -3 30.5t-11 18.5t-22.5 10t-37.5 4v17h158v-343
q0 -35 11 -46t46 -11h5v-14zM264 507l-154 97q-29 19 -29 43q0 31 34 31q11 0 19.5 -4.5t22.5 -18.5l147 -148h-40z" />
    <glyph glyph-name="ucircumflex" unicode="&#xfb;" 
d="M479 36q-38 -11 -68.5 -20.5t-68.5 -24.5l-4 2v83l-43 -43q-20 -20 -47.5 -31.5t-55.5 -11.5q-55 0 -88 35t-33 95v252q0 35 -13 48.5t-49 15.5v14h146v-326q0 -32 21 -54t50 -22q46 0 88 34q11 8 15 20t4 33v235q0 19 -3 30.5t-11 18.5t-22.5 10t-37.5 4v17h158v-343
q0 -35 11 -46t46 -11h5v-14zM359 507l-122 103l-121 -103h-34l124 167h62l125 -167h-34z" />
    <glyph glyph-name="udieresis" unicode="&#xfc;" 
d="M479 36q-38 -11 -68.5 -20.5t-68.5 -24.5l-4 2v83l-43 -43q-20 -20 -47.5 -31.5t-55.5 -11.5q-55 0 -88 35t-33 95v252q0 35 -13 48.5t-49 15.5v14h146v-326q0 -32 21 -54t50 -22q46 0 88 34q11 8 15 20t4 33v235q0 19 -3 30.5t-11 18.5t-22.5 10t-37.5 4v17h158v-343
q0 -35 11 -46t46 -11h5v-14zM130 622q21 0 36 -15t15 -35t-15 -34.5t-36 -14.5q-20 0 -34 14.5t-14 35.5q0 20 14.5 34.5t33.5 14.5zM329 622q21 0 36 -15t15 -35t-15 -34.5t-36 -14.5q-20 0 -34 14.5t-14 35.5q0 20 14.5 34.5t33.5 14.5z" />
    <glyph glyph-name="dagger" unicode="&#x2020;" 
d="M241 -149v123q0 34 -3 72.5t-9 76t-14 71t-17 59.5q23 23 33 66.5t9 118.5q-13 -1 -23 -2.5t-20 -4t-21.5 -6t-26.5 -9.5q-18 -7 -27.5 -9.5t-18.5 -2.5q-44 0 -44 43q0 20 11.5 32t28.5 12q8 0 21 -3.5t28 -9.5t26.5 -10.5t22 -6.5t20.5 -3.5t23 -1.5q0 20 -0.5 35
t-3.5 29.5t-8 29.5t-12 34q-5 14 -8.5 26t-3.5 20q0 18 14.5 32t32.5 14t32.5 -14t14.5 -32q0 -15 -13 -46q-7 -19 -11.5 -33.5t-7.5 -29t-4 -30t-1 -35.5q13 0 23.5 1.5t21 3.5t22 6.5t26.5 10.5q32 13 50 13q17 0 28 -12.5t11 -31.5t-10.5 -31t-27.5 -12q-10 0 -23.5 3.5
t-28.5 8.5q-16 6 -27.5 10t-21.5 6t-20 3.5t-23 2.5q0 -74 10 -118t32 -67q-20 -53 -30 -121t-10 -158v-123h-22z" />
    <glyph glyph-name="degree" unicode="&#xb0;" horiz-adv-x="400" 
d="M200 676q30 0 56 -11t45.5 -30.5t30.5 -46t11 -56.5t-11.5 -56t-31 -45t-46 -30t-56.5 -11q-29 0 -55 11t-45 30.5t-30 45.5t-11 56t11 56t30.5 45.5t45.5 30.5t56 11zM200 642q-21 0 -40 -8.5t-33.5 -23.5t-22.5 -35t-8 -42t8 -42t22.5 -35t33 -23.5t39.5 -8.5
q22 0 41 8.5t33 23.5t22.5 34.5t8.5 42.5q0 22 -8.5 42t-22.5 35t-33 23.5t-40 8.5z" />
    <glyph glyph-name="cent" unicode="&#xa2;" 
d="M356 444q36 -14 55.5 -36t19.5 -48q0 -20 -12 -32.5t-31 -12.5t-31.5 11.5t-26.5 40.5l-101 -291q18 -7 31 -9.5t28 -2.5q44 0 76 22t71 78l13 -8q-13 -26 -23.5 -45t-20.5 -33.5t-20.5 -26t-23.5 -22.5q-21 -18 -47.5 -28t-55.5 -10q-13 0 -25.5 2t-30.5 7l-49 -138h-34
l51 150q-28 16 -42 28t-28 31q-22 30 -34 68.5t-12 79.5q0 51 17 95t46.5 76.5t69.5 51t87 18.5q11 0 22 -1t29 -4l44 124h35zM313 421q-14 5 -24 7t-23 2q-62 0 -99 -46.5t-37 -123.5q0 -54 15.5 -91t52.5 -71z" />
    <glyph glyph-name="sterling" unicode="&#xa3;" 
d="M344 328h-121v-27l1 -28q0 -13 -0.5 -23t-3 -25.5t-7.5 -41.5t-14 -72q24 -10 43.5 -17t37 -11t34 -5.5t34.5 -1.5q67 0 113 49q15 16 23 16q6 0 6 -5q0 -6 -4 -17t-10 -23t-13.5 -24t-15.5 -21q-24 -28 -56.5 -43t-68.5 -15q-16 0 -31 3t-31.5 10t-36.5 18.5t-45 29.5
q-30 -35 -51 -48.5t-47 -13.5q-31 0 -49.5 16.5t-18.5 45.5q0 35 25 55.5t66 20.5q11 0 21.5 -1t24.5 -4q4 11 4 21q0 7 -0.5 15.5t-3 27t-7 51.5t-11.5 88h-108v45h107q-4 20 -5.5 35.5t-1.5 33.5q0 54 13.5 97t39 73.5t61.5 47t81 16.5q28 0 51.5 -7t41 -19.5t27.5 -29.5
t10 -37q0 -23 -14 -38t-36 -15q-23 0 -30.5 13.5t-8.5 53.5q-1 52 -56 52q-45 0 -70 -36.5t-25 -102.5q0 -27 2.5 -56.5t8.5 -80.5h125v-45zM89 94q-51 0 -51 -37q0 -17 11.5 -27t29.5 -10q15 0 25 5t21 18q17 20 17 33q0 6 -17.5 12t-35.5 6z" />
    <glyph glyph-name="section" unicode="&#xa7;" 
d="M292 125q28 -24 46.5 -43t29 -35.5t14.5 -32.5t4 -35q0 -57 -39 -92t-105 -35q-29 0 -54.5 7.5t-44 21t-29 32t-10.5 39.5q0 23 15.5 38.5t38.5 15.5q20 0 34 -12t14 -30q0 -21 -23 -41q-11 -9 -11 -15q0 -14 21.5 -24.5t49.5 -10.5q40 0 63.5 21t23.5 56
q0 29 -20.5 55.5t-68.5 59.5q-92 63 -131.5 114.5t-39.5 106.5q0 25 8.5 47t24 38t36.5 25t46 9h11t14 -1q-30 25 -49.5 44t-30.5 35.5t-15.5 33.5t-4.5 37q0 54 38 88t101 34q27 0 50.5 -7.5t41 -20.5t27 -31t9.5 -39q0 -25 -13.5 -39t-37.5 -14q-20 0 -33.5 12t-13.5 31
q0 12 7 23.5t19 20.5q8 8 8 11q0 14 -18 23t-44 9q-38 0 -61.5 -19.5t-23.5 -51.5q0 -19 9.5 -38.5t24.5 -32.5l137 -113q44 -36 66.5 -75.5t22.5 -79.5q0 -53 -32.5 -86.5t-83.5 -33.5h-18zM191 383q-29 0 -48.5 -19t-19.5 -48q0 -23 10 -42t36 -45q45 -45 76 -64t60 -19
q28 0 48.5 20t20.5 46q0 20 -13.5 43.5t-39.5 49.5q-35 35 -71 56.5t-59 21.5z" />
    <glyph glyph-name="bullet" unicode="&#x2022;" horiz-adv-x="350" 
d="M174 466q29 0 54 -10.5t43 -29t28.5 -43.5t10.5 -54q0 -27 -10.5 -51t-29 -42.5t-43 -29t-52.5 -10.5t-52.5 10.5t-43 29t-29 43t-10.5 53.5q0 28 10.5 52.5t28.5 42.5t42.5 28.5t52.5 10.5z" />
    <glyph glyph-name="paragraph" unicode="&#xb6;" horiz-adv-x="453" 
d="M238 -154h-154v22q29 2 46.5 6t26.5 14.5t12 29.5t3 51v304q-24 1 -41.5 3t-32 6t-26.5 10t-24 15q-70 48 -70 170q0 98 49 141.5t160 43.5h263v-19q-29 -3 -46.5 -7t-26.5 -13.5t-12 -26t-3 -43.5v-595q0 -27 3 -43.5t12.5 -26t26.5 -14t46 -6.5v-22h-154v794h-58v-794z
M172 640q-30 -2 -45.5 -7t-29.5 -15q-43 -31 -43 -137q0 -47 6.5 -81t20.5 -56t36.5 -34t54.5 -15v345z" />
    <glyph glyph-name="germandbls" unicode="&#xdf;" 
d="M73 454q0 53 7 88.5t23 63.5q44 77 148 77q78 0 124 -41.5t46 -110.5q0 -27 -6.5 -47.5t-22 -38t-42 -34t-66.5 -34.5q46 -9 72 -19.5t50 -31.5q30 -26 46 -62t16 -78q0 -41 -14 -76.5t-38 -62t-57 -41.5t-70 -15q-43 0 -70 20.5t-27 52.5q0 20 12.5 34t32.5 14
q17 0 28.5 -11.5t13.5 -28.5l2 -22q2 -17 8.5 -23.5t20.5 -6.5q64 0 64 130q0 202 -132 207q-32 1 -32 17q0 12 29 15q95 10 95 128q0 66 -24 102.5t-67 36.5q-39 0 -62.5 -29t-23.5 -78v-549h-145v15q19 1 30.5 5t18.5 11.5t9.5 20t2.5 32.5v370z" />
    <glyph glyph-name="registered" unicode="&#xae;" horiz-adv-x="760" 
d="M219 520h177q53 0 84 -25t31 -67q0 -72 -79 -104l57 -79q21 -29 39.5 -49.5t36.5 -35.5v-8h-64q-26 0 -69 79q-4 7 -7.5 13.5t-9 14.5t-13.5 21t-22 34h-48v-99q0 -16 1 -25t5.5 -13.5t14.5 -6t28 -3.5v-15h-162v15q18 2 28 3.5t14.5 6t5.5 13.5t1 25v241q0 16 -1 25.5
t-5.5 14t-14.5 6t-28 3.5v15zM332 333h43q33 0 51 23t18 66q0 79 -71 79h-41v-168zM381 676q72 0 134.5 -27t108 -74.5t72 -111.5t26.5 -138q0 -70 -27 -132t-73 -108t-108.5 -72.5t-132.5 -26.5q-72 0 -134.5 26.5t-109 73t-73 109.5t-26.5 135t26.5 135.5t73 110t109 73.5
t134.5 27zM381 634q-59 0 -111.5 -24t-91.5 -65.5t-62 -97t-23 -117.5t23 -116.5t62 -96t91.5 -65.5t111.5 -24q58 0 110 24t91 65t62 95t23 114q0 64 -22.5 120t-61.5 98t-91 66t-111 24z" />
    <glyph glyph-name="copyright" unicode="&#xa9;" horiz-adv-x="760" 
d="M547 247l-17 -76q-1 -5 -15 -10t-34 -9.5t-44 -7.5t-45 -3q-45 0 -82.5 13.5t-64 38.5t-41 60t-14.5 78q0 45 16 82t45 63.5t69.5 41t90.5 14.5q25 0 52.5 -5.5t53.5 -16.5q14 -5 14 -17v-70h-17q-14 89 -108 89q-67 0 -103 -45t-36 -130q0 -84 37 -130t103 -46
q45 0 73 19.5t51 66.5h16zM386 676q69 0 130.5 -27t107 -74t72 -110t26.5 -135t-26.5 -135t-72.5 -109.5t-108 -73t-134 -26.5t-134.5 26.5t-109 73t-73 109.5t-26.5 135q0 73 27 136.5t73.5 110t110 73t137.5 26.5zM385 634q-60 0 -113.5 -24t-93 -65t-62.5 -96.5
t-23 -118.5q0 -62 23 -116.5t62 -96t91.5 -65.5t111.5 -24q58 0 110 24t91 65.5t62 96.5t23 117q0 61 -22.5 116t-61.5 96.5t-90 66t-108 24.5z" />
    <glyph glyph-name="trademark" unicode="&#x2122;" horiz-adv-x="980" 
d="M238 332q0 -18 1 -28t5.5 -15t14.5 -7t29 -4v-20h-171v20q19 2 29 4t14.5 7t5.5 15t1 28v310h-49q-27 0 -42.5 -15.5t-25.5 -52.5h-20v88h345v-88h-20q-11 37 -26 52.5t-41 15.5h-50v-310zM514 566v-223q0 -36 10.5 -48.5t42.5 -16.5v-20h-131v20q31 4 41.5 16.5
t10.5 48.5v249q-10 23 -28 36t-41 14v20h121l154 -309l160 309h103v-20q-32 -2 -44 -14t-12 -41v-255q0 -18 1 -28t5.5 -15t14.5 -7t29 -4v-20h-170v20q23 3 30 4.5t12 4.5t6 12t1 33v236l-154 -312h-11z" />
    <glyph glyph-name="acute" unicode="&#xb4;" horiz-adv-x="333" 
d="M93 507l147 148q14 14 22.5 18.5t19.5 4.5q35 0 35 -32q0 -23 -30 -42l-154 -97h-40z" />
    <glyph glyph-name="dieresis" unicode="&#xa8;" horiz-adv-x="333" 
d="M66 622q21 0 36 -15t15 -35t-15 -34.5t-36 -14.5q-20 0 -34 14.5t-14 35.5q0 20 14.5 34.5t33.5 14.5zM265 622q21 0 36 -15t15 -35t-15 -34.5t-36 -14.5q-20 0 -34 14.5t-14 35.5q0 20 14.5 34.5t33.5 14.5z" />
    <glyph glyph-name="notequal" unicode="&#x2260;" horiz-adv-x="564" 
d="M285 186h249v-66h-282l-62 -123l-59 30l47 93h-148v66h181l68 134h-249v66h282l62 123l59 -30l-47 -93h148v-66h-181z" />
    <glyph glyph-name="AE" unicode="&#xc6;" horiz-adv-x="889" 
d="M793 521q-5 34 -13.5 54.5t-27.5 32t-52.5 15t-88.5 3.5h-87q-14 0 -20.5 -6.5t-6.5 -23.5v-230h111q48 0 75 7t39 23q8 11 11.5 25t6.5 42h21v-234h-21q-4 31 -8 45.5t-12 26.5q-20 28 -78 28h-145v-238q0 -19 1.5 -29.5t8.5 -16t21 -6.5t38 -1h76q40 0 68 5t49.5 19
t39.5 39.5t40 66.5h24l-44 -168h-510v19l17 2q22 3 36.5 7.5t22 14t10.5 25t3 40.5v152h-176l-28 -53q-30 -59 -47 -100t-17 -58q0 -11 18 -19t50 -11h1v-19h-199v19q16 2 27 6t20.5 12.5t19 22.5t21.5 37l245 484q5 8 7 15.5t2 12.5q0 17 -20.5 24t-69.5 9v20h564v-141h-23
zM398 299v319l-159 -319h159z" />
    <glyph glyph-name="Oslash" unicode="&#xd8;" horiz-adv-x="722" 
d="M570 604q15 -14 26.5 -25.5t20 -22t15.5 -21.5t14 -24q20 -38 31 -84.5t11 -95.5q0 -76 -24 -139.5t-67.5 -109t-104 -71t-133.5 -25.5q-50 0 -89.5 11t-85.5 39l-79 -116h-49l95 139q-16 14 -27 25.5t-20 22t-15.5 21.5t-13.5 24q-20 38 -30.5 84t-10.5 94
q0 76 24 139.5t67.5 109.5t104 71.5t132.5 25.5q49 0 88 -11t87 -38l72 107h49zM219 88q32 -35 65 -50.5t77 -15.5q49 0 88.5 21.5t67.5 61t42.5 96.5t14.5 129q0 33 -2.5 61t-8 53t-14.5 48.5t-22 47.5zM502 575q-33 35 -66 50t-75 15q-49 0 -88.5 -21.5t-67 -62
t-42.5 -97.5t-15 -129q0 -33 2.5 -60.5t8 -52t14 -47.5t21.5 -47z" />
    <glyph glyph-name="plusminus" unicode="&#xb1;" horiz-adv-x="564" 
d="M30 66h504v-66h-504v66zM249 568h66v-220h219v-66h-219v-160h-66v160h-219v66h219v220z" />
    <glyph glyph-name="lessequal" unicode="&#x2264;" horiz-adv-x="564" 
d="M28 332v66l508 230v-72l-420 -191l420 -191v-72zM28 0v66h508v-66h-508z" />
    <glyph glyph-name="greaterequal" unicode="&#x2265;" horiz-adv-x="564" 
d="M28 174l420 191l-420 191v72l508 -230v-66l-508 -230v72zM28 66h508v-66h-508v66z" />
    <glyph glyph-name="yen" unicode="&#xa5;" 
d="M16 182v40h174v76l-7 14h-167v40h144l-95 173q-21 37 -35.5 59.5t-27 35.5t-25.5 17.5t-30 5.5v19h243v-19q-35 -1 -50 -7.5t-15 -21.5q0 -19 13 -45l118 -221l112 220q7 13 10.5 24.5t3.5 19.5q0 14 -14 22.5t-37 8.5h-14v19h195v-19q-19 -4 -34.5 -11.5t-29.5 -20
t-27 -31t-27 -44.5l-92 -184h146v-40h-166l-7 -14v-76h173v-40h-173v-73q0 -26 3.5 -43t12.5 -27.5t24.5 -14.5t39.5 -5v-19h-244v19q25 1 40.5 5.5t24 15t11.5 30t3 50.5v62h-174z" />
    <glyph glyph-name="mu" unicode="&#xb5;" 
d="M430 92q0 -35 7.5 -50t24.5 -15q11 0 22 6t28 22v-8q-25 -32 -45 -44.5t-49 -12.5q-36 0 -53.5 21.5t-19.5 68.5q-30 -47 -62.5 -68.5t-74.5 -21.5q-38 0 -66 18t-51 56q1 -14 2.5 -24t3.5 -20t5 -22t8 -31q10 -39 14 -63t4 -45q0 -77 -46 -77q-22 0 -34 18.5t-12 51.5
q0 16 3.5 45.5t8.5 59.5q4 21 6 35.5t3.5 25.5t2 19.5t0.5 16.5v396h88v-306q0 -43 22.5 -67.5t61.5 -24.5q35 0 63.5 16.5t46.5 46.5v335h88v-358z" />
    <glyph glyph-name="partialdiff" unicode="&#x2202;" horiz-adv-x="494" 
d="M66 725q22 8 39 13.5t32.5 8.5t29.5 4.5t30 1.5q55 0 103.5 -26.5t84.5 -73t56.5 -108.5t20.5 -134q0 -84 -18 -164.5t-50 -143.5q-26 -53 -74 -83t-105 -30q-40 0 -74.5 15t-60 41t-40 62t-14.5 77q0 48 19.5 94t54.5 81q52 52 121 52q19 0 36 -3.5t34.5 -11t37 -20
t43.5 -31.5q4 36 5.5 59.5t1.5 47.5q0 117 -42 185t-114 68q-29 0 -55 -7t-61 -25zM366 312l-4 4t-5 4q-45 47 -96 47q-31 0 -58 -16.5t-47 -45.5t-31.5 -67.5t-11.5 -83.5q0 -62 23.5 -97.5t65.5 -35.5q26 0 50.5 14.5t41.5 38.5q15 21 25 42.5t18.5 48t15 62t13.5 85.5z
" />
    <glyph glyph-name="summation" unicode="&#x2211;" horiz-adv-x="713" 
d="M364 341l-201 -352h328q43 0 71.5 4t48 14.5t33 29.5t25.5 50h26l-54 -210h-627l242 408l-233 467h599l10 -165h-26q-7 37 -14 56t-18 33q-16 18 -47 26.5t-83 8.5h-268z" />
    <glyph glyph-name="ordfeminine" unicode="&#xaa;" horiz-adv-x="276" 
d="M270 424q-17 -17 -29.5 -23.5t-29.5 -6.5q-20 0 -30 10t-15 34q-48 -44 -91 -44q-31 0 -51 19t-20 49q0 15 6 29t16 22q10 9 19 15t22.5 12.5t34.5 15t55 20.5v30q0 42 -36 42q-17 0 -31 -7.5t-14 -15.5q0 -4 2 -14q1 -3 1 -8q0 -10 -9.5 -17.5t-21.5 -7.5q-14 0 -23 9
t-9 22q0 29 30.5 48t77.5 19q105 0 105 -96v-115q0 -22 2.5 -28.5t10.5 -6.5q13 0 28 12v-18zM158 551q-26 -9 -43.5 -17t-28 -15.5t-15 -15.5t-4.5 -18q0 -18 11 -31t27 -13q19 0 42 11q11 10 11 22v77z" />
    <glyph glyph-name="ordmasculine" unicode="&#xba;" horiz-adv-x="310" 
d="M159 676q32 0 58.5 -10t46 -27.5t30 -42t10.5 -54.5q0 -32 -11.5 -59t-32 -46.5t-48.5 -31t-61 -11.5q-32 0 -58.5 10.5t-45.5 29t-30 44t-11 55.5q0 32 11 58.5t31.5 45t48.5 29t62 10.5zM150 643q-32 0 -51.5 -20t-19.5 -54q0 -29 6.5 -57.5t18.5 -50.5q19 -34 56 -34
q35 0 53 22.5t18 64.5q0 57 -22.5 93t-58.5 36z" />
    <glyph glyph-name="ae" unicode="&#xe6;" horiz-adv-x="667" 
d="M632 149q-20 -44 -36.5 -68.5t-36.5 -42.5q-54 -48 -124 -48q-43 0 -73 17t-56 56q-26 -21 -45.5 -35t-37 -22.5t-34 -12t-35.5 -3.5q-51 0 -83.5 30.5t-32.5 79.5q0 45 34.5 78.5t114.5 66.5l86 36l2 63q1 17 -2.5 37.5t-9.5 31.5q-12 23 -50 23q-32 0 -52 -15t-16 -35
q0 -2 0.5 -2.5t0.5 -1.5v-2v-11l1 -17q1 -22 -10.5 -35t-32.5 -13q-20 0 -32 13t-12 35q0 23 12 43t33.5 34.5t51 22.5t63.5 8q37 0 62.5 -10t54.5 -35q17 13 31 21.5t28 13.5t28.5 7.5t31.5 2.5q76 0 114 -43t46 -140h-262q0 -37 1.5 -63t4.5 -44.5t8 -33t13 -29.5
q13 -23 38.5 -36.5t56.5 -13.5q43 0 75.5 22t68.5 75zM274 253q-45 -17 -74 -30.5t-45.5 -27.5t-23 -31t-6.5 -39q0 -36 19.5 -61.5t47.5 -25.5q14 0 31.5 5.5t33.5 13t26.5 16t10.5 15.5q0 2 -1 3q-19 54 -19 110v52zM521 307q-2 66 -20 95t-59 29q-43 0 -63 -29t-24 -95
h166z" />
    <glyph glyph-name="oslash" unicode="&#xf8;" 
d="M372 426q23 -17 35.5 -28.5t24.5 -29.5q18 -29 28 -63.5t10 -70.5q0 -52 -17 -96.5t-47 -77.5t-70.5 -51.5t-88.5 -18.5q-26 0 -46.5 4.5t-46.5 16.5l-65 -123h-37l73 140q-26 20 -38.5 34.5t-24.5 34.5q-16 29 -24.5 62t-8.5 68q0 51 16 94t45.5 73.5t70 48t88.5 17.5
q25 0 45.5 -4t46.5 -14l57 109h39zM179 60q19 -23 37.5 -32.5t44.5 -9.5q57 0 88 48.5t31 136.5q0 48 -9 85t-31 78zM317 396q-20 20 -38.5 28t-41.5 8q-54 0 -86 -42.5t-32 -113.5q0 -52 9.5 -96.5t29.5 -87.5z" />
    <glyph glyph-name="questiondown" unicode="&#xbf;" horiz-adv-x="444" 
d="M217 294q-1 -33 -8.5 -69.5t-21.5 -72.5l-28 -64q-37 -85 -37 -156q0 -25 8.5 -47t23 -38t34 -25.5t42.5 -9.5q18 0 35 5t30.5 14t21.5 20t8 23q0 11 -17 31q-21 24 -21 43q0 18 11 29.5t30 11.5q48 0 48 -62q0 -31 -12.5 -57.5t-34 -46t-51.5 -30.5t-64 -11
q-41 0 -81.5 16t-66.5 42q-17 17 -26.5 42.5t-9.5 54.5q0 76 75 167q24 28 39.5 49.5t26 42.5t17.5 44.5t12 53.5h17zM208 468q22 0 37.5 -15t15.5 -37q0 -23 -16 -39t-38 -16q-23 0 -38 16t-15 40q0 23 15 37t39 14z" />
    <glyph glyph-name="exclamdown" unicode="&#xa1;" horiz-adv-x="333" 
d="M157 282l9 -108q3 -35 7.5 -69.5t9.5 -68.5q9 -54 14.5 -102t5.5 -74q0 -36 -14 -57t-39 -21q-53 0 -53 80q0 9 0.5 18.5t1.5 18.5l45 383h13zM151 469q22 0 37.5 -15t15.5 -37q0 -23 -15.5 -39t-38.5 -16t-38 16t-15 40q0 23 15 37t39 14z" />
    <glyph glyph-name="logicalnot" unicode="&#xac;" horiz-adv-x="564" 
d="M468 320h-438v66h504v-278h-66v212z" />
    <glyph glyph-name="radical" unicode="&#x221a;" horiz-adv-x="549" 
d="M117 449l-95 -47l-24 51l163 79l186 -377l123 769l56 -9l-158 -980z" />
    <glyph glyph-name="florin" unicode="&#x192;" 
d="M422 376h-120q-3 -21 -5.5 -41t-5 -37t-4 -29.5t-1.5 -17.5q-9 -69 -17 -120.5t-16.5 -90.5t-17.5 -68.5t-21 -55.5q-25 -54 -55 -79.5t-72 -25.5q-35 0 -57.5 19.5t-22.5 49.5q0 20 13 32.5t33 12.5q17 0 26.5 -9.5t9.5 -26.5q0 -11 -9 -27q-6 -11 -6 -14q0 -5 6 -9
t15 -4q67 0 82 174l15 172q2 20 4 39.5t3.5 35.5t3 26t1.5 12l11 67l2 15h-111l10 31h107q6 39 12.5 68.5t14.5 53.5t19 44.5t25 41.5q20 29 49.5 45t61.5 16q35 0 60 -19.5t25 -48.5q0 -19 -13.5 -32t-32.5 -13q-15 0 -26.5 10t-11.5 24q0 10 8 24q5 10 5 14q0 12 -20 12
q-24 0 -41 -17q-7 -8 -14 -23t-13 -34.5t-10.5 -42.5t-6.5 -47q-1 -8 -3 -29t-5 -47h126z" />
    <glyph glyph-name="Delta" unicode="&#x2206;" horiz-adv-x="612" 
d="M327 688l281 -688h-602zM479 51l-189 458l-213 -458h402z" />
    <glyph glyph-name="guillemotleft" unicode="&#xab;" 
d="M107 281q5 3 8.5 6.5l7.5 7.5l3 2q6 5 11.5 10.5t12.5 10.5q22 20 39.5 37t20.5 22q13 16 26 27.5t18 11.5q10 0 10 -10t-16 -36t-38 -53q-14 -17 -24 -29t-18.5 -22.5t-16 -20t-16.5 -21.5q5 -7 6.5 -8.5t3.5 -4.5q58 -73 88 -116t30 -53q0 -9 -9 -9q-6 0 -11 6
q-21 21 -40.5 39.5t-39 36.5t-41.5 37.5t-49 42.5l-31 27zM299 281q5 3 8.5 6.5l7.5 7.5l3 2q6 5 11.5 10.5t12.5 10.5q22 20 39.5 37t20.5 22q13 16 26 27.5t18 11.5q10 0 10 -10t-16 -36t-38 -53q-14 -17 -24 -29t-18.5 -22.5t-16 -20t-16.5 -21.5q5 -7 6.5 -8.5t3.5 -4.5
q58 -73 88 -116t30 -53q0 -9 -9 -9q-6 0 -11 6q-21 21 -40.5 39.5t-39 36.5t-41.5 37.5t-49 42.5l-31 27z" />
    <glyph glyph-name="guillemotright" unicode="&#xbb;" 
d="M427 195q-27 -24 -49 -43.5t-42 -37.5t-39 -36t-40 -39q-5 -6 -10 -6q-10 0 -10 9t30.5 53t87.5 116l6 7l4 6q-8 10 -14.5 18.5t-14.5 18.5t-19 23t-27 33q-22 26 -38 52.5t-16 36.5t10 10q5 0 18 -11.5t26 -27.5q2 -4 20 -21.5t41 -37.5q7 -7 12.5 -12t10.5 -9l3 -2
l7.5 -7.5t8.5 -6.5l65 -59zM235 195q-27 -24 -49 -43.5t-42 -37.5t-39 -36t-40 -39q-5 -6 -10 -6q-10 0 -10 9t30.5 53t87.5 116l6 7l4 6q-8 10 -14.5 18.5t-14.5 18.5t-19 23t-27 33q-22 26 -38 52.5t-16 36.5t10 10q5 0 18 -11.5t26 -27.5q2 -4 20 -21.5t41 -37.5
q7 -7 12.5 -12t10.5 -9l3 -2l7.5 -7.5t8.5 -6.5l65 -59z" />
    <glyph glyph-name="ellipsis" unicode="&#x2026;" horiz-adv-x="1000" 
d="M166 100q23 0 39.5 -17t16.5 -40q0 -22 -17 -38t-40 -16q-22 0 -38 16t-16 38q0 23 16 40t39 17zM499 100q23 0 39.5 -17t16.5 -40q0 -22 -17 -38t-40 -16q-22 0 -38 16t-16 38q0 23 16 40t39 17zM832 100q23 0 39.5 -17t16.5 -40q0 -22 -17 -38t-40 -16q-22 0 -38 16
t-16 38q0 23 16 40t39 17z" />
    <glyph glyph-name="uni00A0" unicode="&#xa0;" horiz-adv-x="802" 
 />
    <glyph glyph-name="Agrave" unicode="&#xc0;" horiz-adv-x="722" 
d="M706 0h-255v19q40 1 55 8t15 26q0 11 -5 29t-14 38l-41 96h-262l-46 -117q-8 -21 -8 -39q0 -21 16 -31t52 -10v-19h-198v19q18 1 30.5 6t25.5 22t28.5 49t39.5 87l208 491h20l249 -568q13 -28 22.5 -44.5t19 -25.5t20.5 -12.5t28 -4.5v-19zM447 257l-116 275l-115 -275
h231zM397 719l-154 97q-29 19 -29 43q0 31 34 31q11 0 19.5 -4.5t22.5 -18.5l147 -148h-40z" />
    <glyph glyph-name="Atilde" unicode="&#xc3;" horiz-adv-x="722" 
d="M706 0h-255v19q40 1 55 8t15 26q0 11 -5 29t-14 38l-41 96h-262l-46 -117q-8 -21 -8 -39q0 -21 16 -31t52 -10v-19h-198v19q18 1 30.5 6t25.5 22t28.5 49t39.5 87l208 491h20l249 -568q13 -28 22.5 -44.5t19 -25.5t20.5 -12.5t28 -4.5v-19zM447 257l-116 275l-115 -275
h231zM526 850q-16 -57 -39.5 -81.5t-65.5 -24.5q-19 0 -34.5 4.5t-46.5 19.5l-23 11q-24 11 -41 11q-35 0 -51 -46h-29q11 49 37 75t64 26q35 0 70 -18l24 -12q14 -7 28 -11t25 -4q17 0 28.5 10.5t24.5 39.5h29z" />
    <glyph glyph-name="Otilde" unicode="&#xd5;" horiz-adv-x="722" 
d="M361 676q72 0 133.5 -26.5t109.5 -78.5q42 -45 63 -107t21 -137t-24.5 -138t-68.5 -108t-105 -70t-135 -25q-66 0 -128.5 27t-106.5 75q-41 44 -63.5 108t-22.5 135q0 75 24 138.5t67.5 109.5t103.5 71.5t132 25.5zM361 640q-84 0 -143 -65q-16 -18 -29 -44t-22 -58.5
t-14 -69t-5 -74.5q0 -84 23 -153.5t62 -104.5q26 -23 58.5 -36t67.5 -13q80 0 133 53q35 35 49 73q15 39 24 87t9 93q0 90 -22 157.5t-63 104.5q-27 24 -60 37t-68 13zM526 850q-16 -57 -39.5 -81.5t-65.5 -24.5q-19 0 -34.5 4.5t-46.5 19.5l-23 11q-24 11 -41 11
q-35 0 -51 -46h-29q11 49 37 75t64 26q35 0 70 -18l24 -12q14 -7 28 -11t25 -4q17 0 28.5 10.5t24.5 39.5h29z" />
    <glyph glyph-name="OE" unicode="&#x152;" horiz-adv-x="889" 
d="M815 521q-5 33 -13 54t-26 32t-49 15t-80 4h-51q-42 0 -53.5 -4t-11.5 -20v-236h104q91 0 113 31q8 11 12.5 25t6.5 42h21v-234h-21q-3 30 -9 49t-17.5 30t-28.5 15.5t-43 4.5h-138v-245q0 -28 11.5 -37.5t44.5 -8.5l124 2q24 1 43 7.5t36.5 21.5t34.5 39t36 60h24
l-44 -168h-350q-8 0 -22 -0.5t-31 -1t-35 -1t-33 -1.5q-17 -1 -32 -1.5t-26 -0.5q-56 0 -105 19.5t-87 57.5q-90 88 -90 251q0 87 26.5 158t74.5 113q84 75 211 75h9t10.5 -0.5t17 -1t28.5 -1.5q7 0 21 -0.5t30 -1t31 -1t23 -0.5h326v-141h-23zM431 527q0 55 -23.5 80
t-75.5 25q-91 0 -140.5 -79.5t-49.5 -227.5q0 -143 48.5 -218.5t140.5 -75.5q54 0 77 23t23 77v396z" />
    <glyph glyph-name="oe" unicode="&#x153;" horiz-adv-x="722" 
d="M690 139q-39 -81 -80 -115t-99 -34q-47 0 -76 22t-52 73q-29 -51 -62.5 -73t-84.5 -22q-45 0 -83 17t-65.5 47t-42.5 72t-15 92q0 57 20 109t55 85q53 48 127 48q47 0 80.5 -17t71.5 -59q31 42 60 59t70 17q38 0 71.5 -16.5t54.5 -45.5q17 -23 24.5 -49t9.5 -72h-254
q1 -33 4 -57t7.5 -43.5t11 -36t16.5 -33.5q14 -23 38 -36.5t52 -13.5q36 0 65.5 20t64.5 68zM229 431q-42 0 -75 -33q-15 -16 -24.5 -52t-9.5 -75q0 -255 120 -255q51 0 77 46t26 137q0 112 -29.5 172t-84.5 60zM579 307v27q0 42 -22 69.5t-57 27.5q-80 0 -81 -124h160z" />
    <glyph glyph-name="endash" unicode="&#x2013;" 
d="M500 250v-49h-500v49h500z" />
    <glyph glyph-name="emdash" unicode="&#x2014;" horiz-adv-x="1000" 
d="M1000 250v-49h-1000v49h1000z" />
    <glyph glyph-name="quotedblleft" unicode="&#x201c;" horiz-adv-x="444" 
d="M164 657q-82 -56 -82 -106q0 -14 14 -14h2t6 2q5 1 9.5 1.5t9.5 0.5q27 0 43 -13.5t16 -37.5q0 -26 -16.5 -41.5t-42.5 -15.5q-34 0 -57 25.5t-23 63.5q0 45 30.5 87t81.5 67zM396 657q-82 -56 -82 -106q0 -14 14 -14h2t6 2q5 1 9.5 1.5t9.5 0.5q27 0 43 -13.5t16 -37.5
q0 -26 -16.5 -41.5t-42.5 -15.5q-34 0 -57 25.5t-23 63.5q0 45 30.5 87t81.5 67z" />
    <glyph glyph-name="quotedblright" unicode="&#x201d;" horiz-adv-x="444" 
d="M48 452q82 56 82 106q0 14 -14 14h-2t-6 -2q-5 -1 -9.5 -1.5t-9.5 -0.5q-28 0 -43.5 13.5t-15.5 37.5q0 26 16.5 41.5t42.5 15.5q34 0 57 -25.5t23 -63.5q0 -45 -30.5 -87t-81.5 -67zM280 452q82 56 82 106q0 14 -14 14h-2t-6 -2q-5 -1 -9.5 -1.5t-9.5 -0.5
q-28 0 -43.5 13.5t-15.5 37.5q0 26 16.5 41.5t42.5 15.5q34 0 57 -25.5t23 -63.5q0 -45 -30.5 -87t-81.5 -67z" />
    <glyph glyph-name="quoteleft" unicode="&#x2018;" horiz-adv-x="333" 
d="M236 657q-82 -56 -82 -106q0 -14 14 -14h2t6 2q5 1 9.5 1.5t9.5 0.5q27 0 43 -14t16 -37q0 -26 -16.5 -41.5t-42.5 -15.5q-34 0 -57 25.5t-23 63.5q0 45 30.5 87t81.5 67z" />
    <glyph glyph-name="quoteright" unicode="&#x2019;" horiz-adv-x="333" 
d="M97 452q82 56 82 106q0 14 -14 14h-2t-6 -2q-5 -1 -9.5 -1.5t-9.5 -0.5q-27 0 -43 13.5t-16 37.5q0 26 16.5 41.5t42.5 15.5q34 0 57 -25.5t23 -63.5q0 -45 -30.5 -87t-81.5 -67z" />
    <glyph glyph-name="divide" unicode="&#xf7;" horiz-adv-x="564" 
d="M30 220v66h504v-66h-504zM282 516q23 0 39.5 -17t16.5 -40q0 -22 -17 -38t-40 -16q-22 0 -38 16t-16 38q0 23 16 40t39 17zM282 101q23 0 39.5 -17t16.5 -40q0 -22 -17 -38t-40 -16q-22 0 -38 16t-16 38q0 23 16 40t39 17z" />
    <glyph glyph-name="lozenge" unicode="&#x25ca;" horiz-adv-x="494" 
d="M18 377l196 363h63l189 -366l-197 -374h-60zM402 374l-157 309l-164 -306l159 -319z" />
    <glyph glyph-name="ydieresis" unicode="&#xff;" 
d="M475 435q-18 -2 -28 -11.5t-20 -33.5l-154 -408q-20 -54 -39.5 -92t-40 -62t-42.5 -35t-47 -11q-32 0 -53 16.5t-21 41.5q0 18 13 31t30 13q23 0 53 -11q14 -7 25 -7t25 12.5t25 32.5q6 11 13 27.5t13 32.5t10 29t4 19q0 11 -11.5 37t-32.5 64l-15 30l-3 8l-114 246
q-12 26 -51 32v14h206v-15q-32 -2 -45 -7.5t-13 -19.5q0 -15 10 -38l115 -253l97 276q4 9 4 17q0 25 -48 25v15h135v-15zM165 622q21 0 36 -15t15 -35t-15 -34.5t-36 -14.5q-20 0 -34 14.5t-14 35.5q0 20 14.5 34.5t33.5 14.5zM364 622q21 0 36 -15t15 -35t-15 -34.5
t-36 -14.5q-20 0 -34 14.5t-14 35.5q0 20 14.5 34.5t33.5 14.5z" />
    <glyph glyph-name="Ydieresis" unicode="&#x178;" horiz-adv-x="722" 
d="M703 643q-19 -2 -34.5 -7.5t-31 -18t-32.5 -34t-40 -54.5l-148 -226v-194q0 -29 3.5 -46t14.5 -26.5t31.5 -13t53.5 -4.5v-19h-306v19q34 1 54 5t30.5 14.5t13.5 29.5t3 52v174l-131 192q-38 53 -61 84t-39.5 47t-30 20.5t-31.5 5.5v19h280v-19q-8 -1 -15 -1h-10
q-46 -3 -46 -29q0 -19 17 -44l148 -222l143 226q14 23 14 37q0 18 -15 25t-54 8v19h219v-19zM277 834q21 0 36 -15t15 -35t-15 -34.5t-36 -14.5q-20 0 -34 14.5t-14 35.5q0 20 14.5 34.5t33.5 14.5zM476 834q21 0 36 -15t15 -35t-15 -34.5t-36 -14.5q-20 0 -34 14.5
t-14 35.5q0 20 14.5 34.5t33.5 14.5z" />
    <glyph glyph-name="fraction" unicode="&#x2044;" horiz-adv-x="167" 
d="M-119 -14h-49l453 690h46z" />
    <glyph glyph-name="Euro" unicode="&#x20ac;" 
d="M369 390l-27 -41h-195q-1 -15 -1 -22v-11v-10t1 -20h155l-26 -41h-126q5 -53 19.5 -95t37 -71.5t52 -45.5t64.5 -16q45 0 86.5 26t67.5 71v-34q-29 -44 -77.5 -69t-103.5 -25q-45 0 -84 18t-69.5 52t-52 81.5t-31.5 107.5h-75l27 41h43q-1 10 -1 18v19v12t1 14h-70l27 41
h47q9 63 30.5 115t53 89.5t71 58t83.5 20.5q52 0 105 -35q13 -8 17 -8q16 0 25 44h18l16 -223h-17q-9 65 -29 105q-21 41 -56 65.5t-72 24.5q-43 0 -77 -32t-54 -91q-8 -24 -13.5 -58t-9.5 -75h220z" />
    <glyph glyph-name="guilsinglleft" unicode="&#x2039;" horiz-adv-x="333" 
d="M128 281q5 3 8.5 6.5l7.5 7.5l3 2q6 5 11.5 10.5t12.5 10.5q22 20 39.5 37t20.5 22q13 16 26 27.5t18 11.5q10 0 10 -10t-16 -36t-38 -53q-14 -17 -24 -29t-18.5 -22.5t-16 -20t-16.5 -21.5q5 -7 6.5 -8.5t3.5 -4.5q58 -73 88 -116t30 -53q0 -9 -9 -9q-6 0 -11 6
q-21 21 -40.5 39.5t-39 36.5t-41.5 37.5t-49 42.5l-31 27z" />
    <glyph glyph-name="guilsinglright" unicode="&#x203a;" horiz-adv-x="333" 
d="M239 195q-27 -24 -49 -43.5t-42 -37.5t-39 -36t-40 -39q-5 -6 -10 -6q-10 0 -10 9t30.5 53t87.5 116l6 7l4 6q-8 10 -14.5 18.5t-14.5 18.5t-19 23t-27 33q-22 26 -38 52.5t-16 36.5t10 10q5 0 18 -11.5t26 -27.5q2 -4 20 -21.5t41 -37.5q7 -7 12.5 -12t10.5 -9l3 -2
l7.5 -7.5t8.5 -6.5l65 -59z" />
    <glyph glyph-name="fi" unicode="&#xfb01;" horiz-adv-x="556" 
d="M31 450h69q2 30 5.5 52.5t9 41t13.5 34t19 30.5q55 75 170 75q58 0 92.5 -19t34.5 -51q0 -17 -10 -28t-26 -11q-13 0 -24 8.5t-25 28.5q-18 26 -34 36.5t-37 10.5q-34 0 -60.5 -20.5t-37.5 -52.5q-8 -27 -8 -92v-43h157q30 0 55 2.5t58 7.5l4 -3q-2 -40 -2 -60.5v-37.5
v-262q0 -24 2.5 -39t10 -24t20.5 -13t34 -6v-15h-220v15q23 2 37 5.5t21 12t9 23.5t2 41v264q0 20 -2.5 31t-12 16.5t-30 7t-56.5 1.5h-86v-329q0 -41 13.5 -55.5t55.5 -17.5v-15h-220v15q21 1 34 4.5t20.5 12t10 23.5t2.5 39v323h-68v33z" />
    <glyph glyph-name="fl" unicode="&#xfb02;" horiz-adv-x="556" 
d="M32 450h71q1 33 4 57.5t8 44t13 36t19 32.5q21 29 53.5 46t67.5 17q38 0 81 -17q24 -8 30 -8q12 0 42 14q19 9 31 11l5 -2v-600q0 -20 2.5 -32t9.5 -19t19.5 -10.5t32.5 -4.5v-15h-215v15q39 3 53 17.5t14 51.5v334h-188v-339q0 -17 3 -28.5t11 -18.5t22 -11t35 -6v-15
h-224v15q22 2 31.5 4t17.5 7q20 13 20 79v313h-69v32zM373 591q-7 -7 -16 -7q-17 0 -29 8t-26 29q-14 20 -24.5 27.5t-27.5 7.5q-65 0 -65 -154v-52h188v141z" />
    <glyph glyph-name="daggerdbl" unicode="&#x2021;" 
d="M261 456q13 0 23.5 1.5t20.5 3.5t21.5 6.5t27.5 10.5q31 13 49 13q17 0 28 -12.5t11 -31.5t-10.5 -31t-27.5 -12q-9 0 -23 3.5t-29 8.5q-15 6 -26.5 10t-21.5 6t-20 3.5t-23 2.5q0 -36 2 -63t6.5 -48t12.5 -37t19 -30q-12 -13 -19.5 -28.5t-12.5 -35.5t-7 -47t-2 -64
q13 1 23 2.5t19.5 3.5t21 6t27.5 10q14 5 28 8.5t23 3.5q17 0 28 -12t11 -32q0 -19 -11.5 -31t-28.5 -12t-48 13q-16 6 -27.5 10.5t-21.5 6.5t-20.5 3.5t-23.5 1.5q0 -20 1 -35.5t3.5 -29.5t7 -29t12.5 -34q5 -14 8.5 -26t3.5 -20q0 -18 -14 -32t-33 -14q-18 0 -32 14
t-14 32q0 8 3.5 20t8.5 26q7 19 12 34t7.5 29t3.5 29.5t1 35.5q-13 0 -23 -1.5t-20.5 -3.5t-22.5 -6.5t-27 -10.5q-31 -13 -48 -13t-28.5 12t-11.5 32t11 31.5t28 11.5q8 0 22 -3.5t29 -8.5q16 -6 27.5 -10t21 -6t19.5 -3.5t23 -2.5q1 74 -8.5 114.5t-31.5 60.5
q23 29 32.5 70.5t8.5 107.5q-13 -1 -23.5 -2.5t-20.5 -4t-21 -6t-26 -9.5q-18 -7 -27.5 -9.5t-18.5 -2.5q-44 0 -44 43q0 20 11.5 32t28.5 12t48 -13q15 -6 27 -10.5t22.5 -6.5t20.5 -3.5t23 -1.5q0 20 -1 35t-3.5 29.5t-7.5 29.5t-12 34q-5 14 -8.5 26t-3.5 20q0 18 14 32
t32 14q19 0 33 -14t14 -32q0 -8 -3.5 -20t-8.5 -26q-8 -19 -12.5 -33.5t-7 -29t-3.5 -30t-1 -35.5z" />
    <glyph glyph-name="periodcentered" unicode="&#xb7;" horiz-adv-x="250" 
d="M125 310q23 0 39.5 -17t16.5 -40q0 -22 -17 -38t-40 -16q-22 0 -38 16t-16 38q0 23 16 40t39 17z" />
    <glyph glyph-name="quotesinglbase" unicode="&#x201a;" horiz-adv-x="333" 
d="M97 -122q82 56 82 106q0 14 -14 14h-2t-6 -2q-5 -1 -9.5 -1.5t-9.5 -0.5q-27 0 -43 13.5t-16 37.5q0 26 16.5 41.5t42.5 15.5q34 0 57 -25.5t23 -63.5q0 -45 -30.5 -87t-81.5 -67z" />
    <glyph glyph-name="quotedblbase" unicode="&#x201e;" horiz-adv-x="444" 
d="M63 -122q82 56 82 106q0 14 -14 14h-2t-6 -2q-5 -1 -9.5 -1.5t-9.5 -0.5q-28 0 -43.5 13.5t-15.5 37.5q0 26 16.5 41.5t42.5 15.5q34 0 57 -25.5t23 -63.5q0 -45 -30.5 -87t-81.5 -67zM295 -122q82 56 82 106q0 14 -14 14h-2t-6 -2q-5 -1 -9.5 -1.5t-9.5 -0.5
q-28 0 -43.5 13.5t-15.5 37.5q0 26 16.5 41.5t42.5 15.5q34 0 57 -25.5t23 -63.5q0 -45 -30.5 -87t-81.5 -67z" />
    <glyph glyph-name="perthousand" unicode="&#x2030;" horiz-adv-x="1000" 
d="M137 -18h-47l394 658q-28 -32 -54.5 -44.5t-66.5 -12.5q-20 0 -36 3t-40 11q2 -14 3 -23.5t1 -20.5q0 -51 -20 -100.5t-55 -84.5q-42 -42 -91 -42q-25 0 -46.5 10.5t-37.5 29t-25 43.5t-9 54q0 42 16 81t42.5 68t61.5 46.5t73 17.5q16 0 28 -5.5t32 -22.5q27 -23 48 -31
t51 -8q22 0 37.5 3t32.5 12.5t38.5 29t55.5 52.5h44zM198 649q-6 -3 -13 -7t-11 -6q-20 -11 -37 -33.5t-30.5 -51.5t-21 -62t-7.5 -66q0 -32 15.5 -51t41.5 -19t50 17.5t42 47.5t29 69t11 82q0 22 -4.5 30t-20.5 16q-11 5 -21 12.5t-23 21.5zM536 330q46 0 71 -30.5
t25 -86.5q0 -45 -13.5 -87t-36 -74.5t-52.5 -51.5t-62 -19q-26 0 -48 10.5t-38 29t-25.5 44t-9.5 54.5q0 40 16 78t42.5 67.5t60.5 47.5t70 18zM548 302q-14 0 -27.5 -6t-23.5 -17q-17 -18 -31 -42t-24.5 -51.5t-16.5 -55.5t-6 -53q0 -29 16 -49t40 -20q25 0 49.5 17.5
t43 46t30 66t11.5 76.5q0 38 -17.5 63t-43.5 25zM898 330q46 0 71 -30.5t25 -86.5q0 -45 -13.5 -87t-36.5 -74.5t-52.5 -51.5t-60.5 -19q-26 0 -48 10.5t-38.5 29.5t-26 44t-9.5 55q0 40 16 77.5t42.5 67t60.5 47.5t70 18zM909 302q-34 0 -64 -39q-12 -15 -23.5 -38.5
t-20.5 -49t-14.5 -51t-5.5 -45.5q0 -31 16 -51t40 -20q25 0 49.5 17.5t43 46t30 66t11.5 76.5t-17 63.5t-45 24.5z" />
    <glyph glyph-name="Acircumflex" unicode="&#xc2;" horiz-adv-x="722" 
d="M706 0h-255v19q40 1 55 8t15 26q0 11 -5 29t-14 38l-41 96h-262l-46 -117q-8 -21 -8 -39q0 -21 16 -31t52 -10v-19h-198v19q18 1 30.5 6t25.5 22t28.5 49t39.5 87l208 491h20l249 -568q13 -28 22.5 -44.5t19 -25.5t20.5 -12.5t28 -4.5v-19zM447 257l-116 275l-115 -275
h231zM478 719l-122 103l-121 -103h-34l124 167h62l125 -167h-34z" />
    <glyph glyph-name="Ecircumflex" unicode="&#xca;" horiz-adv-x="611" 
d="M552 0h-540v19q27 2 44 6.5t26.5 14t13 26.5t3.5 43v444q0 26 -3 42.5t-12.5 26.5t-26.5 14.5t-45 6.5v19h531l3 -143h-25q-6 34 -15 54.5t-25 31.5t-43 15t-69 4h-135q-20 0 -26.5 -6.5t-6.5 -27.5v-222h154q69 0 88 25q8 11 12.5 25t9.5 45h23v-232h-23q-5 31 -11 50
t-18 29t-31 13.5t-50 3.5h-154v-247q0 -27 7 -31q5 -5 33 -8.5t65 -3.5h27q54 0 90.5 5.5t62.5 20t45 40t38 66.5h28zM428 719l-122 103l-121 -103h-34l124 167h62l125 -167h-34z" />
    <glyph glyph-name="Aacute" unicode="&#xc1;" horiz-adv-x="722" 
d="M706 0h-255v19q40 1 55 8t15 26q0 11 -5 29t-14 38l-41 96h-262l-46 -117q-8 -21 -8 -39q0 -21 16 -31t52 -10v-19h-198v19q18 1 30.5 6t25.5 22t28.5 49t39.5 87l208 491h20l249 -568q13 -28 22.5 -44.5t19 -25.5t20.5 -12.5t28 -4.5v-19zM447 257l-116 275l-115 -275
h231zM283 719l147 148q14 14 22.5 18.5t19.5 4.5q35 0 35 -32q0 -23 -30 -42l-154 -97h-40z" />
    <glyph glyph-name="Edieresis" unicode="&#xcb;" horiz-adv-x="611" 
d="M552 0h-540v19q27 2 44 6.5t26.5 14t13 26.5t3.5 43v444q0 26 -3 42.5t-12.5 26.5t-26.5 14.5t-45 6.5v19h531l3 -143h-25q-6 34 -15 54.5t-25 31.5t-43 15t-69 4h-135q-20 0 -26.5 -6.5t-6.5 -27.5v-222h154q69 0 88 25q8 11 12.5 25t9.5 45h23v-232h-23q-5 31 -11 50
t-18 29t-31 13.5t-50 3.5h-154v-247q0 -27 7 -31q5 -5 33 -8.5t65 -3.5h27q54 0 90.5 5.5t62.5 20t45 40t38 66.5h28zM205 834q21 0 36 -15t15 -35t-15 -34.5t-36 -14.5q-20 0 -34 14.5t-14 35.5q0 20 14.5 34.5t33.5 14.5zM404 834q21 0 36 -15t15 -35t-15 -34.5t-36 -14.5
q-20 0 -34 14.5t-14 35.5q0 20 14.5 34.5t33.5 14.5z" />
    <glyph glyph-name="Egrave" unicode="&#xc8;" horiz-adv-x="611" 
d="M552 0h-540v19q27 2 44 6.5t26.5 14t13 26.5t3.5 43v444q0 26 -3 42.5t-12.5 26.5t-26.5 14.5t-45 6.5v19h531l3 -143h-25q-6 34 -15 54.5t-25 31.5t-43 15t-69 4h-135q-20 0 -26.5 -6.5t-6.5 -27.5v-222h154q69 0 88 25q8 11 12.5 25t9.5 45h23v-232h-23q-5 31 -11 50
t-18 29t-31 13.5t-50 3.5h-154v-247q0 -27 7 -31q5 -5 33 -8.5t65 -3.5h27q54 0 90.5 5.5t62.5 20t45 40t38 66.5h28zM341 719l-154 97q-29 19 -29 43q0 31 34 31q11 0 19.5 -4.5t22.5 -18.5l147 -148h-40z" />
    <glyph glyph-name="Iacute" unicode="&#xcd;" horiz-adv-x="333" 
d="M115 553q0 28 -3 44.5t-13.5 26t-29.5 13.5t-51 6v19h297v-19q-32 -2 -51 -5.5t-29.5 -13.5t-14 -27t-3.5 -44v-444q0 -27 4 -44.5t14.5 -27t29.5 -13.5t50 -5v-19h-297v19q31 1 50.5 4.5t29.5 13.5t13.5 27t3.5 45v444zM93 719l147 148q14 14 22.5 18.5t19.5 4.5
q35 0 35 -32q0 -23 -30 -42l-154 -97h-40z" />
    <glyph glyph-name="Icircumflex" unicode="&#xce;" horiz-adv-x="333" 
d="M115 553q0 28 -3 44.5t-13.5 26t-29.5 13.5t-51 6v19h297v-19q-32 -2 -51 -5.5t-29.5 -13.5t-14 -27t-3.5 -44v-444q0 -27 4 -44.5t14.5 -27t29.5 -13.5t50 -5v-19h-297v19q31 1 50.5 4.5t29.5 13.5t13.5 27t3.5 45v444zM288 719l-122 103l-121 -103h-34l124 167h62
l125 -167h-34z" />
    <glyph glyph-name="Idieresis" unicode="&#xcf;" horiz-adv-x="333" 
d="M115 553q0 28 -3 44.5t-13.5 26t-29.5 13.5t-51 6v19h297v-19q-32 -2 -51 -5.5t-29.5 -13.5t-14 -27t-3.5 -44v-444q0 -27 4 -44.5t14.5 -27t29.5 -13.5t50 -5v-19h-297v19q31 1 50.5 4.5t29.5 13.5t13.5 27t3.5 45v444zM66 834q21 0 36 -15t15 -35t-15 -34.5t-36 -14.5
q-20 0 -34 14.5t-14 35.5q0 20 14.5 34.5t33.5 14.5zM265 834q21 0 36 -15t15 -35t-15 -34.5t-36 -14.5q-20 0 -34 14.5t-14 35.5q0 20 14.5 34.5t33.5 14.5z" />
    <glyph glyph-name="Igrave" unicode="&#xcc;" horiz-adv-x="333" 
d="M115 553q0 28 -3 44.5t-13.5 26t-29.5 13.5t-51 6v19h297v-19q-32 -2 -51 -5.5t-29.5 -13.5t-14 -27t-3.5 -44v-444q0 -27 4 -44.5t14.5 -27t29.5 -13.5t50 -5v-19h-297v19q31 1 50.5 4.5t29.5 13.5t13.5 27t3.5 45v444zM202 719l-154 97q-29 19 -29 43q0 31 34 31
q11 0 19.5 -4.5t22.5 -18.5l147 -148h-40z" />
    <glyph glyph-name="Oacute" unicode="&#xd3;" horiz-adv-x="722" 
d="M361 676q72 0 133.5 -26.5t109.5 -78.5q42 -45 63 -107t21 -137t-24.5 -138t-68.5 -108t-105 -70t-135 -25q-66 0 -128.5 27t-106.5 75q-41 44 -63.5 108t-22.5 135q0 75 24 138.5t67.5 109.5t103.5 71.5t132 25.5zM361 640q-84 0 -143 -65q-16 -18 -29 -44t-22 -58.5
t-14 -69t-5 -74.5q0 -84 23 -153.5t62 -104.5q26 -23 58.5 -36t67.5 -13q80 0 133 53q35 35 49 73q15 39 24 87t9 93q0 90 -22 157.5t-63 104.5q-27 24 -60 37t-68 13zM288 719l147 148q14 14 22.5 18.5t19.5 4.5q35 0 35 -32q0 -23 -30 -42l-154 -97h-40z" />
    <glyph glyph-name="Ocircumflex" unicode="&#xd4;" horiz-adv-x="722" 
d="M361 676q72 0 133.5 -26.5t109.5 -78.5q42 -45 63 -107t21 -137t-24.5 -138t-68.5 -108t-105 -70t-135 -25q-66 0 -128.5 27t-106.5 75q-41 44 -63.5 108t-22.5 135q0 75 24 138.5t67.5 109.5t103.5 71.5t132 25.5zM361 640q-84 0 -143 -65q-16 -18 -29 -44t-22 -58.5
t-14 -69t-5 -74.5q0 -84 23 -153.5t62 -104.5q26 -23 58.5 -36t67.5 -13q80 0 133 53q35 35 49 73q15 39 24 87t9 93q0 90 -22 157.5t-63 104.5q-27 24 -60 37t-68 13zM483 719l-122 103l-121 -103h-34l124 167h62l125 -167h-34z" />
    <glyph glyph-name="Ograve" unicode="&#xd2;" horiz-adv-x="722" 
d="M361 676q72 0 133.5 -26.5t109.5 -78.5q42 -45 63 -107t21 -137t-24.5 -138t-68.5 -108t-105 -70t-135 -25q-66 0 -128.5 27t-106.5 75q-41 44 -63.5 108t-22.5 135q0 75 24 138.5t67.5 109.5t103.5 71.5t132 25.5zM361 640q-84 0 -143 -65q-16 -18 -29 -44t-22 -58.5
t-14 -69t-5 -74.5q0 -84 23 -153.5t62 -104.5q26 -23 58.5 -36t67.5 -13q80 0 133 53q35 35 49 73q15 39 24 87t9 93q0 90 -22 157.5t-63 104.5q-27 24 -60 37t-68 13zM397 719l-154 97q-29 19 -29 43q0 31 34 31q11 0 19.5 -4.5t22.5 -18.5l147 -148h-40z" />
    <glyph glyph-name="Uacute" unicode="&#xda;" horiz-adv-x="722" 
d="M611 254q0 -58 -7.5 -95.5t-25.5 -69.5q-59 -103 -223 -103q-128 0 -189.5 62t-61.5 193v312q0 27 -3 44t-12.5 26.5t-27 13.5t-47.5 6v19h283v-19q-30 -3 -48 -7t-27.5 -13.5t-12.5 -26t-3 -43.5v-320q0 -48 5.5 -78t19.5 -54q41 -71 147 -71q57 0 101.5 21.5t64.5 57.5
q12 23 17.5 54t5.5 82v270q0 37 -3.5 61t-14 38t-29 20.5t-47.5 8.5v19h232v-19q-31 -4 -49.5 -10t-28.5 -19.5t-13 -37t-3 -61.5v-261zM313 719l147 148q14 14 22.5 18.5t19.5 4.5q35 0 35 -32q0 -23 -30 -42l-154 -97h-40z" />
    <glyph glyph-name="Ucircumflex" unicode="&#xdb;" horiz-adv-x="722" 
d="M611 254q0 -58 -7.5 -95.5t-25.5 -69.5q-59 -103 -223 -103q-128 0 -189.5 62t-61.5 193v312q0 27 -3 44t-12.5 26.5t-27 13.5t-47.5 6v19h283v-19q-30 -3 -48 -7t-27.5 -13.5t-12.5 -26t-3 -43.5v-320q0 -48 5.5 -78t19.5 -54q41 -71 147 -71q57 0 101.5 21.5t64.5 57.5
q12 23 17.5 54t5.5 82v270q0 37 -3.5 61t-14 38t-29 20.5t-47.5 8.5v19h232v-19q-31 -4 -49.5 -10t-28.5 -19.5t-13 -37t-3 -61.5v-261zM502 719l-122 103l-121 -103h-34l124 167h62l125 -167h-34z" />
    <glyph glyph-name="Ugrave" unicode="&#xd9;" horiz-adv-x="722" 
d="M611 254q0 -58 -7.5 -95.5t-25.5 -69.5q-59 -103 -223 -103q-128 0 -189.5 62t-61.5 193v312q0 27 -3 44t-12.5 26.5t-27 13.5t-47.5 6v19h283v-19q-30 -3 -48 -7t-27.5 -13.5t-12.5 -26t-3 -43.5v-320q0 -48 5.5 -78t19.5 -54q41 -71 147 -71q57 0 101.5 21.5t64.5 57.5
q12 23 17.5 54t5.5 82v270q0 37 -3.5 61t-14 38t-29 20.5t-47.5 8.5v19h232v-19q-31 -4 -49.5 -10t-28.5 -19.5t-13 -37t-3 -61.5v-261zM414 719l-154 97q-29 19 -29 43q0 31 34 31q11 0 19.5 -4.5t22.5 -18.5l147 -148h-40z" />
    <glyph glyph-name="dotlessi" unicode="&#x131;" horiz-adv-x="278" 
d="M179 457v-355q0 -27 2.5 -43.5t10 -25.5t22 -12.5t39.5 -5.5v-15h-237v15q26 1 41.5 5t24 13t11 25.5t2.5 43.5v232q0 33 -7.5 46.5t-25.5 13.5q-16 0 -34 -3l-8 -1v15l155 55z" />
    <glyph glyph-name="circumflex" unicode="&#x2c6;" horiz-adv-x="333" 
d="M288 507l-122 103l-121 -103h-34l124 167h62l125 -167h-34z" />
    <glyph glyph-name="tilde" unicode="&#x2dc;" horiz-adv-x="333" 
d="M331 638q-16 -57 -39.5 -81.5t-65.5 -24.5q-19 0 -34.5 4.5t-46.5 19.5l-23 11q-24 11 -41 11q-35 0 -51 -46h-29q11 49 37 75t64 26q35 0 70 -18l24 -12q14 -7 28 -11t25 -4q17 0 28.5 10.5t24.5 39.5h29z" />
    <glyph glyph-name="macron" unicode="&#xaf;" horiz-adv-x="333" 
d="M322 601v-54h-311v54h311z" />
    <glyph glyph-name="breve" unicode="&#x2d8;" horiz-adv-x="333" 
d="M307 664q-18 -157 -142 -157q-73 0 -112 54q-14 21 -20 43t-7 60h29q11 -51 37.5 -74t74.5 -23q22 0 38 4.5t28.5 15.5t23 29.5t21.5 47.5h29z" />
    <glyph glyph-name="dotaccent" unicode="&#x2d9;" horiz-adv-x="333" 
d="M166 622q21 0 36 -15t15 -35t-15 -34.5t-36 -14.5q-20 0 -34 14.5t-14 35.5q0 20 14.5 34.5t33.5 14.5z" />
    <glyph glyph-name="ring" unicode="&#x2da;" horiz-adv-x="333" 
d="M166 711q42 0 71 -29t29 -71t-29 -70.5t-71 -28.5t-70.5 29t-28.5 71q0 20 8 38t21.5 31.5t31.5 21.5t38 8zM167 677q-27 0 -46.5 -19t-19.5 -46t19 -46.5t45 -19.5q28 0 47.5 19t19.5 46t-19.5 46.5t-45.5 19.5z" />
    <glyph glyph-name="cedilla" unicode="&#xb8;" horiz-adv-x="333" 
d="M139 0h35l-25 -65q8 2 13 2.5t13 0.5q41 0 63.5 -18.5t22.5 -50.5q0 -39 -33.5 -61.5t-91.5 -22.5q-24 0 -43 3.5t-41 12.5l14 31q21 -7 35 -9.5t30 -2.5q26 0 40.5 12t14.5 32t-12 28t-41 8q-17 0 -28 -4l-7 5z" />
    <glyph glyph-name="hungarumlaut" unicode="&#x2dd;" horiz-adv-x="333" 
d="M153 507l147 148q14 14 22.5 18.5t19.5 4.5q35 0 35 -32q0 -23 -30 -42l-154 -97h-40zM-3 507l147 148q14 14 22.5 18.5t19.5 4.5q35 0 35 -32q0 -23 -30 -42l-154 -97h-40z" />
    <glyph glyph-name="ogonek" unicode="&#x2db;" horiz-adv-x="333" 
d="M249 -89q-28 -40 -54.5 -58t-57.5 -18t-52 22t-21 54q0 24 12.5 45t41.5 44h46q-23 -19 -33.5 -35.5t-10.5 -33.5t10.5 -28.5t27.5 -11.5q16 0 32 8t39 28z" />
    <glyph glyph-name="caron" unicode="&#x2c7;" horiz-adv-x="333" 
d="M197 507h-62l-124 167h34l121 -103l122 103h34z" />
    <glyph glyph-name="infinity" unicode="&#x221e;" horiz-adv-x="669" 
d="M646 317q0 -64 -41 -119q-43 -59 -105 -59q-102 0 -148 133q-63 -133 -163 -133q-67 0 -112 55q-43 52 -43 120q0 75 36 126q41 59 113 59q55 0 93 -42q23 -25 56 -91q31 62 60 91q42 42 98 42q72 0 116 -56q40 -50 40 -126zM626 322q0 50 -32 90q-33 42 -83 42
q-42 0 -76 -37q-22 -22 -49 -74q-25 -46 -25 -51t16 -29q43 -65 117 -65q53 0 92.5 36t39.5 88zM320 345q0 16 -39 56q-26 26 -46 34q-17 6 -53 6q-57 0 -92 -33.5t-35 -90.5q0 -49 30 -88q32 -41 80 -41t82 34q18 19 51 77q22 39 22 46z" />
    <glyph glyph-name="product" unicode="&#x220f;" horiz-adv-x="823" 
d="M809 -221h-316v34q69 3 87 40q12 24 12 117l1 632h-362v-658q0 -82 17.5 -104t84.5 -24v-37h-318v37q71 4 90 46q12 24 12 104v523q0 80 -18 107q-20 29 -84 33v33h794v-33q-71 -6 -89 -44q-11 -22 -11 -100v-545q0 -76 19 -98.5t81 -25.5v-37z" />
    <glyph glyph-name="pi" unicode="&#x3c0;" horiz-adv-x="561" 
d="M533 385h-108q-20 -111 -20 -171q0 -4 1.5 -10.5t1.5 -9.5q0 -1 -1.5 -4l-1.5 -3q0 -114 50 -114q37 0 53 55h20q-13 -145 -92 -145q-97 0 -97 196q0 62 21 206h-118q0 -107 -25 -228q-35 -175 -99 -175q-18 0 -32 13.5t-14 31.5q0 17 29 53q78 98 78 305h-49
q-30 0 -48 -20q-12 -11 -30 -46h-24q35 88 47 105q32 46 96 46h362v-85z" />
    <glyph glyph-name="integral" unicode="&#x222b;" horiz-adv-x="333" 
d="M348 619q0 -40 -40 -40q-29 0 -51.5 36t-48.5 36q-57 0 -57 -110q0 -15 1.5 -44t1.5 -44v-440q0 -229 -177 -229q-35 0 -60 11q-33 15 -33 46q0 39 40 39q23 0 49 -29.5t46 -29.5q46 0 46 84v548q0 101 37 160q45 74 139 74q39 0 69 -15q38 -18 38 -53z" />
    <glyph glyph-name="uni03A9" unicode="&#x3a9;" horiz-adv-x="753" 
d="M726 184l-23 -184h-271l9 141q152 79 152 247q0 101 -54 176q-60 82 -158 82q-97 0 -159 -83q-57 -75 -57 -176q0 -87 38 -146q36 -55 115 -100l7 -141h-271l-27 181h27q19 -50 29 -65q22 -35 57 -35h131v45q-100 22 -160 87q-64 69 -64 167q0 135 99 226q97 89 233 89
q139 0 232 -87q97 -88 97 -225q0 -198 -222 -257v-45h137q30 0 54 37q20 30 26 66h23z" />
    <glyph glyph-name="approxequal" unicode="&#x2248;" horiz-adv-x="541" 
d="M501 367q-30 -44 -51 -60q-33 -26 -74 -26q-39 0 -105 34t-111 34q-52 0 -84 -72l-36 50q43 86 125 86q41 0 114.5 -34t97.5 -34q42 0 88 72zM501 175q-30 -44 -51 -60q-33 -27 -74 -27q-39 0 -105 34.5t-111 34.5q-52 0 -84 -73l-36 51q43 86 125 86q41 0 114.5 -34
t97.5 -34q42 0 88 72z" />
    <glyph glyph-name="Scaron" unicode="&#x160;" horiz-adv-x="556" 
d="M469 463h-25q-12 44 -25 68.5t-36 48.5q-53 55 -122 55q-47 0 -75.5 -25.5t-28.5 -67.5q0 -41 34 -76.5t113 -79.5q99 -53 143 -105t44 -113q0 -39 -15.5 -72t-43 -57.5t-65 -38.5t-80.5 -14q-60 0 -118 23q-30 11 -47 11q-11 0 -19 -9.5t-9 -23.5h-22l-30 212h23
q38 -92 86.5 -134.5t115.5 -42.5q55 0 89 31t34 82q0 38 -14 58q-39 59 -149 117q-84 44 -120 89.5t-36 105.5q0 78 53 125q25 22 56.5 34t63.5 12q48 0 106 -22q13 -6 24.5 -9t19.5 -3q26 0 32 34h21zM309 719h-62l-124 167h34l121 -103l122 103h34z" />
    <glyph glyph-name="Zcaron" unicode="&#x17d;" horiz-adv-x="611" 
d="M597 176l-24 -176h-564v15l437 609h-221q-100 0 -134 -43q-13 -16 -20 -34.5t-14 -55.5h-26l20 171h526v-15l-432 -609h257q88 0 125 39q7 8 13 16.5t11.5 20t11 26.5t11.5 36h23zM337 719h-62l-124 167h34l121 -103l122 103h34z" />
    <glyph glyph-name="scaron" unicode="&#x161;" horiz-adv-x="389" 
d="M300 314q-17 67 -42 95t-68 28q-35 0 -56 -19t-21 -49q0 -43 43 -68l108 -64q45 -27 64.5 -54t19.5 -65q0 -26 -11 -49.5t-30.5 -41t-45 -27.5t-54.5 -10q-14 0 -33 2.5t-40 7.5q-17 5 -28 6.5t-18 1.5q-9 0 -13.5 -2t-9.5 -10h-13v156h16q10 -43 18.5 -64.5t24.5 -40.5
q14 -17 36 -26t48 -9q38 0 60.5 19.5t22.5 52.5q0 45 -52 75l-58 33q-64 36 -90.5 69t-26.5 75q0 27 10 49.5t28 39t43 25.5t55 9q37 0 70 -12q8 -4 15 -5.5t12 -1.5q3 0 5 1.5t9 6.5l2 2h11l4 -136h-15zM225 507h-62l-124 167h34l121 -103l122 103h34z" />
    <glyph glyph-name="zcaron" unicode="&#x17e;" horiz-adv-x="444" 
d="M404 0h-377v15l266 405h-138q-23 0 -37.5 -3.5t-23.5 -13t-14.5 -27t-8.5 -44.5h-18l3 118h347v-15l-269 -405h138q78 0 99 26q5 6 8.5 13t7 16t6.5 22t7 32l18 -4zM253 507h-62l-124 167h34l121 -103l122 103h34z" />
    <glyph glyph-name="currency" unicode="&#xa4;" 
d="M76 204q-22 32 -31.5 61.5t-9.5 64.5q0 36 9.5 66t31.5 60l-98 98l50 48l96 -96q34 22 62 30.5t65 8.5q36 0 66 -9.5t59 -29.5l98 96l48 -48l-96 -98q22 -32 30.5 -60t8.5 -65q0 -36 -8.5 -64.5t-30.5 -62.5l96 -96l-48 -50l-98 98q-57 -41 -125 -41q-35 0 -65 10t-62 31
l-96 -98l-50 50zM253 481q-32 0 -59 -12t-47.5 -32t-32 -48t-11.5 -59t11.5 -58.5t31.5 -48t47 -32.5t58 -12q30 0 57 12t46.5 32.5t31 48t11.5 59.5q0 31 -11.5 58t-31 47.5t-45.5 32.5t-56 12z" />
    <glyph glyph-name="brokenbar" unicode="&#xa6;" horiz-adv-x="200" 
d="M67 262h66v-276h-66v276zM67 676h66v-276h-66v276z" />
    <glyph glyph-name="uni00AD" unicode="&#xad;" horiz-adv-x="333" 
d="M285 257v-63h-246v63h246z" />
    <glyph glyph-name="twosuperior" unicode="&#xb2;" horiz-adv-x="300" 
d="M259 270h-253v23l98 107q38 41 59.5 77.5t21.5 59.5q0 32 -21.5 54t-51.5 22q-54 0 -86 -70l-25 14q12 35 21.5 52.5t25.5 31.5q17 17 42.5 26t55.5 9q59 0 95 -29t36 -77q0 -37 -19 -71t-65 -79l-86 -85h121q20 0 30 5t21 22l17 -7z" />
    <glyph glyph-name="threesuperior" unicode="&#xb3;" horiz-adv-x="300" 
d="M93 489q52 18 73.5 36.5t21.5 45.5q0 23 -15.5 36t-42.5 13q-26 0 -43.5 -12.5t-40.5 -44.5l-25 18q26 51 57.5 73t77.5 22q22 0 42 -6.5t34.5 -18t23 -26.5t8.5 -32q0 -21 -14 -40t-46 -42q87 -35 87 -113q0 -29 -14.5 -54t-40.5 -43t-61.5 -28.5t-77.5 -10.5
q-39 0 -61 13t-22 37q0 16 10 26.5t25 10.5q8 0 17.5 -4t23.5 -15q17 -12 27.5 -16t24.5 -4q31 0 49.5 18.5t18.5 49.5q0 48 -41 71q-12 7 -28 11.5t-25 2.5l-23 -3v29z" />
    <glyph glyph-name="onesuperior" unicode="&#xb9;" horiz-adv-x="300" 
d="M248 270h-191v24q32 2 42.5 8.5t10.5 23.5v257q0 17 -1.5 22.5t-6.5 5.5h-4t-6 -1.5t-11.5 -4t-21.5 -7.5v23l118 55l14 -3v-343q0 -20 11 -27t46 -9v-24z" />
    <glyph glyph-name="onequarter" unicode="&#xbc;" horiz-adv-x="750" 
d="M718 90h-55v-90h-70v90h-180v49l203 266h47v-258h55v-57zM593 326l-135 -179h135v179zM187 -14h-49l453 690h46zM228 270h-191v24q32 2 42.5 8.5t10.5 23.5v257q0 17 -1.5 22.5t-6.5 5.5h-4t-6 -1.5t-11.5 -4t-21.5 -7.5v23l118 55l14 -3v-343q0 -20 11 -27t46 -9v-24z
" />
    <glyph glyph-name="onehalf" unicode="&#xbd;" horiz-adv-x="750" 
d="M150 -14h-49l453 690h46zM222 270h-191v24q32 2 42.5 8.5t10.5 23.5v257q0 17 -1.5 22.5t-6.5 5.5h-4t-6 -1.5t-11.5 -4t-21.5 -7.5v23l118 55l14 -3v-343q0 -20 11 -27t46 -9v-24zM709 0h-253v23l98 107q38 41 59.5 77.5t21.5 59.5q0 32 -21.5 54t-51.5 22
q-54 0 -86 -70l-25 14q12 35 21.5 52.5t25.5 31.5q17 17 42.5 26t55.5 9q59 0 95 -29t36 -77q0 -37 -19 -71t-65 -79l-86 -85h121q20 0 30 5t21 22l17 -7z" />
    <glyph glyph-name="threequarters" unicode="&#xbe;" horiz-adv-x="750" 
d="M718 90h-55v-90h-70v90h-180v49l203 266h47v-258h55v-57zM593 326l-135 -179h135v179zM187 -14h-49l453 690h46zM94 489q53 18 74.5 36.5t21.5 45.5q0 23 -15 36t-41 13q-28 0 -46 -12t-42 -45l-25 18q27 51 58.5 73t78.5 22q22 0 42 -6.5t34.5 -18t23 -26.5t8.5 -32
q0 -21 -14 -40t-47 -42q87 -35 87 -113q0 -29 -14.5 -54t-40.5 -43t-61.5 -28.5t-77.5 -10.5q-39 0 -61 13t-22 37q0 16 10 26.5t25 10.5q8 0 17.5 -4t23.5 -15q17 -12 27.5 -16t24.5 -4q31 0 49.5 18.5t18.5 49.5q0 48 -41 71q-12 7 -28 11.5t-25 2.5l-23 -3v29z" />
    <glyph glyph-name="Eth" unicode="&#xd0;" horiz-adv-x="722" 
d="M21 315v44h83v194q0 28 -2.5 44.5t-11.5 25.5t-26.5 13t-47.5 7v19h270q103 0 183 -26.5t131 -78.5q42 -42 63.5 -98.5t21.5 -124.5q0 -73 -26.5 -136.5t-75.5 -108.5q-47 -42 -121 -65.5t-162 -23.5h-284v19q28 2 45.5 6t27 14t12.5 26.5t3 43.5v206h-83zM352 315h-146
v-237q0 -24 11 -32.5t41 -8.5q66 0 112 9.5t84 31.5q122 71 122 249q0 81 -30 144t-89 104q-36 26 -85 38t-116 12q-30 0 -40 -8t-10 -31v-227h146v-44z" />
    <glyph glyph-name="multiply" unicode="&#xd7;" horiz-adv-x="564" 
d="M38 449l48 48l196 -197l197 197l48 -48l-197 -196l197 -197l-48 -48l-197 197l-196 -197l-48 48l196 197z" />
    <glyph glyph-name="Yacute" unicode="&#xdd;" horiz-adv-x="722" 
d="M703 643q-19 -2 -34.5 -7.5t-31 -18t-32.5 -34t-40 -54.5l-148 -226v-194q0 -29 3.5 -46t14.5 -26.5t31.5 -13t53.5 -4.5v-19h-306v19q34 1 54 5t30.5 14.5t13.5 29.5t3 52v174l-131 192q-38 53 -61 84t-39.5 47t-30 20.5t-31.5 5.5v19h280v-19q-8 -1 -15 -1h-10
q-46 -3 -46 -29q0 -19 17 -44l148 -222l143 226q14 23 14 37q0 18 -15 25t-54 8v19h219v-19zM320 719l147 148q14 14 22.5 18.5t19.5 4.5q35 0 35 -32q0 -23 -30 -42l-154 -97h-40z" />
    <glyph glyph-name="Thorn" unicode="&#xde;" horiz-adv-x="556" 
d="M293 643q-31 -3 -49 -7.5t-27.5 -16.5t-12 -32.5t-2.5 -54.5h80q60 0 108 -12.5t82 -36t52 -57t18 -75.5q0 -50 -25.5 -92.5t-70.5 -66.5q-32 -18 -74 -26t-101 -8q-18 0 -33.5 0.5t-35.5 2.5v-52q0 -27 3.5 -44.5t14 -27t28.5 -13.5t48 -5v-19h-280v19q28 3 45 7
t25.5 14.5t11 29t2.5 50.5v433q0 27 -2.5 43.5t-11.5 25.5t-25.5 13.5t-44.5 7.5v19h277v-19zM202 201q17 -2 29.5 -2.5t27.5 -0.5q174 0 174 147q0 78 -47.5 113.5t-151.5 35.5q-19 0 -25.5 -6.5t-6.5 -26.5v-260z" />
    <glyph glyph-name="eth" unicode="&#xf0;" 
d="M147 510l-33 30l121 64q-35 25 -64.5 37t-68.5 19l42 23q25 -2 44.5 -5.5t37 -9t34.5 -13.5t36 -19l95 50l33 -30l-91 -48q19 -18 32.5 -32.5t24 -28t18.5 -27t16 -30.5q23 -48 35 -100t12 -105q0 -72 -23.5 -137.5t-65.5 -104.5q-56 -53 -135 -53q-47 0 -86.5 17.5
t-69 49t-46 74t-16.5 92.5t16 93.5t44.5 75.5t67.5 50t84 18q18 0 33 -3t29 -9.5t29.5 -18t34.5 -29.5q-6 28 -13.5 50t-18.5 42.5t-27 40t-38 42.5zM237 432q-53 0 -85.5 -43t-32.5 -113q0 -53 11.5 -103t32.5 -90q17 -31 43 -48t55 -17q57 0 88.5 48t31.5 135
q0 51 -10.5 93.5t-29.5 73t-45.5 47.5t-58.5 17z" />
    <glyph glyph-name="yacute" unicode="&#xfd;" 
d="M475 435q-18 -2 -28 -11.5t-20 -33.5l-154 -408q-20 -54 -39.5 -92t-40 -62t-42.5 -35t-47 -11q-32 0 -53 16.5t-21 41.5q0 18 13 31t30 13q23 0 53 -11q14 -7 25 -7t25 12.5t25 32.5q6 11 13 27.5t13 32.5t10 29t4 19q0 11 -11.5 37t-32.5 64l-15 30l-3 8l-114 246
q-12 26 -51 32v14h206v-15q-32 -2 -45 -7.5t-13 -19.5q0 -15 10 -38l115 -253l97 276q4 9 4 17q0 25 -48 25v15h135v-15zM177 507l147 148q14 14 22.5 18.5t19.5 4.5q35 0 35 -32q0 -23 -30 -42l-154 -97h-40z" />
    <glyph glyph-name="thorn" unicode="&#xfe;" 
d="M9 639q26 7 45 12.5t35.5 10.5t31.5 10l33 11l5 -3v-298q34 41 68 59.5t76 18.5q36 0 67 -16t53 -44t34.5 -67.5t12.5 -85.5q0 -54 -16 -101t-44.5 -81.5t-67 -54.5t-82.5 -20q-32 0 -53.5 9t-47.5 34v-157q0 -24 3 -38.5t12.5 -22.5t27 -11t45.5 -3v-18h-242v18
q22 2 36 5.5t21.5 11t10 19.5t2.5 32v704q0 32 -9.5 41.5t-39.5 9.5h-8.5t-8.5 -1v16zM159 88q0 -11 9.5 -23t24.5 -21.5t33.5 -15.5t36.5 -6q27 0 49.5 13.5t38 38t24.5 58.5t9 76q0 43 -9 78.5t-25 61t-38.5 39t-50.5 13.5q-17 0 -35 -6t-33 -15.5t-24.5 -21.5t-9.5 -23
v-246z" />
  </font>
</defs>
</svg>
